<svg width="11" height="9" viewBox="0 0 11 9" fill="none" xmlns="http://www.w3.org/2000/svg">
<path d="M0.167009 4.2673C0.16405 4.42029 0.221666 4.56825 0.327306 4.67895C0.432947 4.78965 0.578051 4.85411 0.731009 4.8583H8.96101L6.41101 7.5473C6.30258 7.66064 6.24205 7.81145 6.24205 7.96831C6.24205 8.12516 6.30258 8.27597 6.41101 8.3893C6.46123 8.44427 6.5222 8.48834 6.59015 8.51878C6.65809 8.54923 6.73156 8.5654 6.80601 8.5663C6.88068 8.56677 6.95458 8.55121 7.02272 8.52068C7.09086 8.49014 7.15166 8.44534 7.20101 8.3893L10.71 4.69631C10.8184 4.58597 10.8792 4.43748 10.8792 4.2828C10.8792 4.12813 10.8184 3.97964 10.71 3.86931L7.20001 0.175305C7.14907 0.120035 7.08722 0.0759225 7.01837 0.04575C6.94953 0.0155776 6.87518 0 6.80001 0C6.72484 0 6.65049 0.0155776 6.58165 0.04575C6.5128 0.0759225 6.45095 0.120035 6.40001 0.175305C6.29158 0.288644 6.23105 0.43945 6.23105 0.596305C6.23105 0.75316 6.29158 0.903966 6.40001 1.0173L8.96101 3.6763H0.731009C0.578051 3.6805 0.432947 3.74496 0.327306 3.85566C0.221666 3.96636 0.16405 4.11432 0.167009 4.2673Z" fill="#D9C3A9"/>
</svg>
