<svg width="170" height="61" viewBox="0 0 170 61" fill="none" xmlns="http://www.w3.org/2000/svg">
<path d="M63.46 44.57C63.544 44.5719 63.628 44.5636 63.71 44.5451C63.7665 44.5323 63.8201 44.5088 63.868 44.476C63.9047 44.4514 63.9335 44.4168 63.951 44.3762C63.9667 44.3336 63.9745 44.2885 63.974 44.2431C63.9735 44.191 63.9597 44.14 63.934 44.0947C63.9083 44.0494 63.8714 44.0112 63.827 43.9841C63.6693 43.8876 63.4995 43.8127 63.322 43.7612C63.218 43.7245 63.114 43.6825 63.01 43.6352C62.9085 43.5894 62.8142 43.5292 62.73 43.4563C62.6471 43.3826 62.5792 43.2934 62.53 43.1941C62.4748 43.0773 62.448 42.9491 62.452 42.82C62.4495 42.6822 62.4779 42.5456 62.535 42.4201C62.5893 42.3037 62.6693 42.2011 62.769 42.1201C62.8779 42.0336 63.0025 41.9692 63.136 41.9301C63.2941 41.8837 63.4582 41.8612 63.623 41.8632C63.9502 41.8562 64.2738 41.9318 64.564 42.0832L64.357 42.6482C64.2605 42.5993 64.1602 42.5584 64.057 42.5261C63.9295 42.4882 63.797 42.4703 63.664 42.4731C63.5366 42.4635 63.4089 42.4881 63.294 42.5442C63.2573 42.5669 63.2274 42.5993 63.2075 42.6377C63.1876 42.676 63.1784 42.719 63.181 42.7622C63.1795 42.8143 63.1941 42.8656 63.223 42.9091C63.2543 42.9526 63.2941 42.9893 63.34 43.0171C63.3951 43.0515 63.4534 43.0808 63.514 43.1042C63.5806 43.1302 63.6533 43.157 63.732 43.185C63.8973 43.2464 64.0413 43.3068 64.164 43.3662C64.2766 43.419 64.3798 43.4895 64.47 43.5752C64.5503 43.6539 64.6122 43.7496 64.651 43.8552C64.6938 43.9806 64.7141 44.1126 64.711 44.2451C64.7177 44.3768 64.6929 44.5082 64.6386 44.6284C64.5843 44.7486 64.5022 44.8542 64.399 44.9362C64.121 45.1197 63.7901 45.2057 63.458 45.1811C63.3306 45.1822 63.2032 45.174 63.077 45.1562C62.9758 45.1419 62.8756 45.1212 62.777 45.0942C62.7003 45.0734 62.6251 45.0473 62.552 45.0161C62.4981 44.9928 62.4453 44.9668 62.394 44.9382L62.594 44.3681C62.8594 44.5086 63.1568 44.5774 63.457 44.5681L63.46 44.57Z" fill="#B9B9B9"/>
<path d="M70.696 44.5012V45.1162H68.57V41.9343H69.286V44.5012H70.696Z" fill="#B9B9B9"/>
<path d="M77.491 43.5232C77.4956 43.7684 77.4543 44.0123 77.369 44.2422C77.296 44.4368 77.1825 44.6137 77.036 44.7613C76.8943 44.9015 76.7237 45.0089 76.536 45.0762C76.3347 45.1475 76.1226 45.1831 75.9091 45.1812C75.6995 45.1827 75.4913 45.1471 75.2941 45.0762C75.1052 45.0084 74.933 44.901 74.7891 44.7613C74.64 44.6145 74.524 44.4375 74.449 44.2422C74.3622 44.0126 74.3202 43.7686 74.3251 43.5232C74.32 43.2775 74.3634 43.0331 74.453 42.8042C74.5315 42.6085 74.6497 42.4311 74.8001 42.2832C74.9427 42.1437 75.113 42.0356 75.3001 41.9661C75.4922 41.8956 75.6953 41.8597 75.9 41.8601C76.1097 41.8589 76.3179 41.8948 76.515 41.9661C76.7042 42.0343 76.8764 42.1425 77.02 42.2832C77.1687 42.4311 77.2845 42.6086 77.36 42.8042C77.4491 43.0334 77.4935 43.2774 77.491 43.5232ZM75.062 43.5232C75.06 43.6659 75.0792 43.808 75.119 43.9451C75.1529 44.0626 75.2089 44.1728 75.2841 44.2693C75.3545 44.3587 75.4449 44.4302 75.548 44.4783C75.6607 44.527 75.7822 44.552 75.905 44.552C76.0278 44.552 76.1492 44.527 76.262 44.4783C76.3659 44.4306 76.4572 44.359 76.5281 44.2693C76.6031 44.1727 76.659 44.0626 76.693 43.9451C76.7326 43.808 76.7519 43.6659 76.75 43.5232C76.7518 43.3795 76.7326 43.2363 76.693 43.0982C76.6592 42.98 76.6033 42.8695 76.5281 42.7722C76.457 42.6827 76.3658 42.6111 76.262 42.5633C76.1501 42.5131 76.0286 42.4882 75.906 42.4903C75.7824 42.488 75.66 42.5139 75.548 42.5662C75.4451 42.6156 75.3549 42.6877 75.2841 42.7771C75.2088 42.8743 75.1527 42.9851 75.119 43.1033C75.0809 43.24 75.0631 43.3814 75.066 43.5232H75.062Z" fill="#B9B9B9"/>
<path d="M82.946 42.4851C82.8122 42.4727 82.6773 42.4914 82.5519 42.5396C82.4265 42.5878 82.3139 42.6644 82.2229 42.7632C82.0635 42.9834 81.9847 43.2518 81.9999 43.5232C81.9981 43.6668 82.0167 43.8099 82.055 43.9483C82.0877 44.0675 82.1438 44.1788 82.22 44.2762C82.2935 44.3681 82.3877 44.4416 82.4949 44.4903C82.6167 44.5427 82.7484 44.5683 82.881 44.5652C82.96 44.5652 83.029 44.5652 83.081 44.5652C83.131 44.563 83.1809 44.5569 83.23 44.5472V43.4322H83.946V45.0071C83.8113 45.0539 83.6733 45.0902 83.533 45.1153C83.3021 45.1569 83.0675 45.1759 82.8329 45.1722C82.6114 45.1751 82.3912 45.138 82.183 45.0623C81.9947 44.993 81.824 44.8831 81.683 44.7403C81.5407 44.5922 81.4318 44.4151 81.3639 44.2212C81.2856 43.9963 81.2474 43.7594 81.251 43.5213C81.2465 43.2798 81.2885 43.0397 81.3749 42.8142C81.4511 42.619 81.5669 42.4416 81.715 42.2933C81.8591 42.1506 82.0319 42.0402 82.222 41.9693C82.4209 41.8952 82.6316 41.8578 82.8439 41.8592C83.0871 41.8579 83.3293 41.8917 83.5629 41.9593C83.6369 41.9801 83.7092 42.0067 83.779 42.0391C83.835 42.0661 83.8789 42.0883 83.8999 42.1033L83.6929 42.6773C83.5852 42.6215 83.4724 42.5763 83.356 42.5423C83.2228 42.5036 83.0847 42.4843 82.946 42.4851Z" fill="#B9B9B9"/>
<path d="M90.057 45.1171C90.022 45.0061 89.983 44.8921 89.943 44.7761L89.821 44.4282H88.578L88.457 44.7773C88.417 44.894 88.3793 45.0071 88.344 45.1171H87.6C87.7193 44.7738 87.833 44.4569 87.941 44.1662C88.049 43.8755 88.1543 43.6015 88.2569 43.3442C88.3596 43.0869 88.4597 42.8426 88.557 42.6113C88.6543 42.3799 88.758 42.1543 88.868 41.9343H89.547C89.6517 42.1549 89.7546 42.3806 89.8559 42.6113C89.9573 42.8419 90.0596 43.0862 90.163 43.3442C90.2663 43.6009 90.3717 43.8749 90.479 44.1662C90.5863 44.4575 90.7004 44.7745 90.821 45.1171H90.057ZM89.197 42.6562C89.181 42.7029 89.1576 42.7655 89.1269 42.8442L89.022 43.1201C88.9826 43.2247 88.9387 43.3394 88.89 43.4641C88.8413 43.5887 88.7919 43.7204 88.7419 43.8591H89.652C89.6033 43.7211 89.556 43.5878 89.51 43.4592C89.464 43.3305 89.4207 43.2155 89.38 43.1142L89.272 42.8391C89.24 42.7611 89.216 42.7012 89.199 42.6562H89.197Z" fill="#B9B9B9"/>
<path d="M96.669 45.1171C96.4644 44.7525 96.2424 44.3929 96.003 44.0383C95.7684 43.689 95.5139 43.3533 95.2409 43.0332V45.1181H94.534V41.9362H95.117C95.2177 42.0376 95.3293 42.1616 95.452 42.3083C95.5747 42.455 95.6993 42.6119 95.826 42.7792C95.9527 42.9459 96.079 43.119 96.205 43.2983C96.331 43.4776 96.4489 43.6498 96.5589 43.8151V41.9372H97.271V45.1191L96.669 45.1171Z" fill="#B9B9B9"/>
<path d="M103.969 42.4851C103.835 42.4727 103.7 42.4914 103.575 42.5396C103.45 42.5878 103.337 42.6644 103.246 42.7632C103.087 42.9834 103.008 43.2518 103.023 43.5232C103.021 43.6668 103.04 43.8099 103.078 43.9483C103.111 44.0675 103.168 44.1788 103.244 44.2762C103.318 44.3681 103.412 44.4415 103.519 44.4903C103.64 44.5427 103.772 44.5682 103.904 44.5652C103.984 44.5652 104.052 44.5652 104.104 44.5652C104.154 44.5629 104.204 44.5569 104.253 44.5472V43.4322H104.969V45.0071C104.834 45.054 104.696 45.0902 104.556 45.1153C104.325 45.1569 104.091 45.1759 103.856 45.1722C103.634 45.1752 103.414 45.138 103.206 45.0623C103.018 44.9931 102.847 44.8831 102.706 44.7403C102.564 44.592 102.455 44.415 102.387 44.2212C102.309 43.9962 102.271 43.7594 102.275 43.5213C102.27 43.2798 102.313 43.0397 102.399 42.8142C102.475 42.619 102.591 42.4416 102.739 42.2932C102.883 42.1506 103.056 42.0402 103.246 41.9693C103.445 41.8952 103.656 41.8578 103.868 41.8592C104.111 41.8579 104.353 41.8916 104.587 41.9593C104.661 41.98 104.733 42.0066 104.803 42.0391C104.86 42.0661 104.903 42.0883 104.925 42.1033L104.718 42.6773C104.61 42.6215 104.497 42.5763 104.38 42.5423C104.246 42.5035 104.108 42.4842 103.969 42.4851Z" fill="#B9B9B9"/>
<path d="M111.976 43.5232C111.981 43.7684 111.939 44.0123 111.854 44.2422C111.781 44.4368 111.667 44.6137 111.521 44.7613C111.379 44.9015 111.209 45.0089 111.021 45.0762C110.82 45.1476 110.608 45.1831 110.394 45.1812C110.184 45.1826 109.976 45.1471 109.779 45.0762C109.59 45.0082 109.418 44.9009 109.274 44.7613C109.125 44.6145 109.009 44.4375 108.934 44.2422C108.847 44.0126 108.805 43.7686 108.81 43.5232C108.805 43.2775 108.848 43.0331 108.938 42.8042C109.017 42.6085 109.135 42.4311 109.285 42.2832C109.429 42.1432 109.601 42.035 109.79 41.9661C109.982 41.8956 110.185 41.8597 110.39 41.8601C110.6 41.8589 110.808 41.8948 111.005 41.9661C111.194 42.0343 111.366 42.1425 111.51 42.2832C111.659 42.431 111.775 42.6086 111.85 42.8042C111.937 43.0337 111.98 43.2777 111.976 43.5232ZM109.547 43.5232C109.545 43.6659 109.564 43.808 109.604 43.9451C109.638 44.0626 109.694 44.1728 109.769 44.2693C109.84 44.3586 109.93 44.4302 110.033 44.4783C110.146 44.527 110.267 44.552 110.39 44.552C110.513 44.552 110.634 44.527 110.747 44.4783C110.851 44.4306 110.942 44.359 111.013 44.2693C111.088 44.1728 111.144 44.0626 111.178 43.9451C111.218 43.808 111.237 43.6659 111.235 43.5232C111.237 43.3795 111.218 43.2363 111.178 43.0982C111.144 42.98 111.088 42.8694 111.013 42.7722C110.942 42.6827 110.851 42.6111 110.747 42.5633C110.635 42.5131 110.514 42.4881 110.391 42.4903C110.267 42.4881 110.145 42.514 110.033 42.5662C109.93 42.6156 109.84 42.6877 109.769 42.7771C109.694 42.8743 109.638 42.9851 109.604 43.1033C109.565 43.2398 109.545 43.3812 109.547 43.5232Z" fill="#B9B9B9"/>
<path d="M115.879 45.1171V41.9352H118.028V42.5351H116.596V43.1601H117.868V43.7473H116.596V44.5141H118.134V45.1142L115.879 45.1171Z" fill="#B9B9B9"/>
<path d="M122.834 44.57C122.918 44.5719 123.002 44.5636 123.084 44.5451C123.141 44.5325 123.195 44.509 123.243 44.476C123.279 44.4514 123.308 44.4168 123.325 44.3762C123.341 44.3337 123.349 44.2885 123.348 44.2431C123.347 44.191 123.334 44.14 123.308 44.0947C123.282 44.0494 123.245 44.0112 123.201 43.9841C123.043 43.8876 122.874 43.8127 122.696 43.7612C122.592 43.7245 122.488 43.6826 122.384 43.6352C122.282 43.5895 122.188 43.5292 122.104 43.4563C122.021 43.3826 121.953 43.2934 121.904 43.1941C121.849 43.0773 121.822 42.9491 121.826 42.82C121.823 42.6822 121.852 42.5456 121.909 42.4201C121.963 42.3037 122.043 42.2011 122.143 42.1201C122.252 42.0335 122.377 41.969 122.511 41.9301C122.669 41.8837 122.832 41.8613 122.997 41.8632C123.324 41.8562 123.648 41.9318 123.938 42.0832L123.731 42.6482C123.634 42.5993 123.534 42.5585 123.431 42.5261C123.304 42.4882 123.171 42.4703 123.038 42.4731C122.91 42.4637 122.783 42.4882 122.668 42.5442C122.631 42.5672 122.602 42.5996 122.582 42.6379C122.563 42.6762 122.553 42.7191 122.556 42.7622C122.554 42.8142 122.569 42.8655 122.597 42.9091C122.628 42.9526 122.668 42.9893 122.714 43.0171C122.769 43.0515 122.827 43.0808 122.888 43.1042C122.954 43.1302 123.027 43.157 123.107 43.185C123.272 43.2464 123.416 43.3068 123.539 43.3662C123.651 43.4191 123.754 43.4896 123.844 43.5752C123.924 43.6539 123.986 43.7496 124.025 43.8552C124.068 43.9806 124.088 44.1126 124.085 44.2451C124.092 44.3768 124.067 44.5082 124.013 44.6284C123.958 44.7486 123.876 44.8542 123.773 44.9362C123.495 45.1196 123.164 45.2057 122.832 45.1811C122.705 45.1822 122.577 45.174 122.451 45.1562C122.35 45.1419 122.25 45.1211 122.151 45.0942C122.017 45.058 121.889 45.0056 121.768 44.9382L121.968 44.3681C122.08 44.4271 122.197 44.4739 122.319 44.508C122.487 44.5532 122.66 44.5741 122.834 44.57Z" fill="#B9B9B9"/>
<path d="M130.965 41.9352H131.682V45.1171H130.965V43.7673H129.765V45.1171H129.049V41.9352H129.765V43.1523H130.965V41.9352Z" fill="#B9B9B9"/>
<path d="M135.718 45.1171V41.9352H137.867V42.5351H136.434V43.1601H137.706V43.7473H136.434V44.5141H137.973V45.1142L135.718 45.1171Z" fill="#B9B9B9"/>
<path d="M142.741 41.898C143.125 41.874 143.507 41.9628 143.841 42.1532C143.968 42.2406 144.07 42.3595 144.137 42.4984C144.204 42.6373 144.233 42.7914 144.222 42.9451C144.23 43.1383 144.176 43.329 144.068 43.4891C143.954 43.6373 143.8 43.751 143.625 43.8172C143.689 43.8972 143.757 43.9882 143.825 44.0902C143.893 44.1922 143.965 44.3002 144.034 44.4112C144.103 44.5222 144.17 44.6391 144.234 44.7601C144.298 44.8811 144.358 45 144.413 45.116H143.613L143.435 44.7992C143.375 44.6922 143.314 44.5881 143.251 44.4871C143.188 44.3861 143.126 44.287 143.064 44.2C143.002 44.113 142.941 44.0282 142.879 43.9542H142.525V45.116H141.809V41.9801C141.969 41.9492 142.131 41.9278 142.293 41.9161C142.461 41.9041 142.61 41.898 142.741 41.898ZM142.783 42.5091C142.731 42.5091 142.683 42.5091 142.643 42.5091L142.526 42.5181V43.3812H142.726C142.924 43.3954 143.122 43.3609 143.304 43.2811C143.362 43.2458 143.41 43.1949 143.441 43.1341C143.472 43.0733 143.485 43.0051 143.479 42.9371C143.484 42.8705 143.471 42.8037 143.439 42.7447C143.408 42.6857 143.36 42.6369 143.302 42.6041C143.139 42.5302 142.961 42.4982 142.783 42.5091Z" fill="#B9B9B9"/>
<path d="M148.178 45.1171V41.9352H150.327V42.5351H148.894V43.1601H150.166V43.7473H148.894V44.5141H150.432V45.1142L148.178 45.1171Z" fill="#B9B9B9"/>
<path d="M55.659 36.2432V26.3512H62.284V28.2212H57.884V30.2912H61.796V32.1613H57.884V36.2442L55.659 36.2432Z" fill="#B9B9B9"/>
<path d="M66.753 26.2353C67.9431 26.1618 69.1289 26.4371 70.165 27.0272C70.5598 27.2991 70.8767 27.6694 71.0846 28.1013C71.2924 28.5333 71.3839 29.0121 71.35 29.4903C71.3776 30.0911 71.2098 30.6847 70.872 31.1823C70.5159 31.6435 70.0389 31.9969 69.494 32.2033C69.694 32.4506 69.9033 32.7336 70.122 33.0523C70.3407 33.3709 70.5573 33.7043 70.772 34.0523C70.986 34.3996 71.193 34.7612 71.393 35.1372C71.593 35.5132 71.7787 35.8823 71.95 36.2443H69.46L68.908 35.2593C68.7213 34.926 68.5303 34.6022 68.335 34.2882C68.1397 33.9742 67.9463 33.6769 67.755 33.3963C67.5636 33.1156 67.3726 32.8609 67.182 32.6322H66.082V36.2443H63.855V26.4922C64.3526 26.3955 64.8554 26.3287 65.361 26.2923C65.8797 26.2543 66.3436 26.2353 66.753 26.2353ZM66.881 28.1353C66.719 28.1353 66.5737 28.1399 66.445 28.1492L66.081 28.1782V30.8603H66.709C67.3256 30.9035 67.9435 30.7958 68.509 30.5463C68.6903 30.4362 68.8372 30.2774 68.933 30.0882C69.0288 29.8989 69.0697 29.6866 69.051 29.4752C69.0674 29.2683 69.0244 29.0609 68.9269 28.8776C68.8295 28.6942 68.6817 28.5424 68.501 28.4402C67.9943 28.2068 67.4379 28.1028 66.881 28.1353Z" fill="#B9B9B9"/>
<path d="M73.378 36.2432V26.3512H80.06V28.2212H75.605V30.1632H79.56V31.9912H75.605V34.3753H80.388V36.2462L73.378 36.2432Z" fill="#B9B9B9"/>
<path d="M82.03 36.2432V26.3512H88.712V28.2212H84.257V30.1632H88.212V31.9912H84.257V34.3753H89.04V36.2462L82.03 36.2432Z" fill="#B9B9B9"/>
<path d="M99.349 31.2892C99.3654 32.0557 99.2294 32.8178 98.949 33.5313C98.7018 34.1422 98.3127 34.6855 97.8139 35.1162C97.2898 35.5532 96.6791 35.8742 96.022 36.0583C95.2512 36.2767 94.453 36.3824 93.652 36.3722C93.252 36.3722 92.7853 36.3556 92.2519 36.3223C91.7241 36.2898 91.1992 36.2206 90.681 36.1153V26.4783C91.2119 26.3811 91.7482 26.3166 92.287 26.2853C92.8436 26.252 93.322 26.2353 93.722 26.2353C94.5 26.2266 95.2756 26.3228 96.0279 26.5213C96.6779 26.6914 97.2841 26.9982 97.806 27.4213C98.31 27.8432 98.7022 28.3827 98.948 28.9922C99.2317 29.724 99.368 30.5046 99.349 31.2892ZM92.91 34.4302C93.0147 34.4395 93.136 34.4465 93.274 34.4512C93.412 34.4562 93.5739 34.4583 93.7669 34.4583C94.2155 34.4952 94.6669 34.4394 95.093 34.2946C95.5191 34.1497 95.9109 33.9188 96.244 33.6162C96.8101 32.9778 97.1002 32.1411 97.051 31.2892C97.1139 30.8552 97.0737 30.4125 96.9336 29.997C96.7935 29.5814 96.5574 29.2047 96.2446 28.8974C95.9318 28.59 95.5511 28.3607 95.1332 28.2279C94.7152 28.0952 94.2718 28.0627 93.839 28.1332C93.6863 28.1332 93.5294 28.1356 93.368 28.1403C93.2152 28.1443 93.0626 28.1563 92.911 28.1763L92.91 34.4302Z" fill="#B9B9B9"/>
<path d="M110.628 31.2882C110.643 32.0503 110.515 32.8084 110.25 33.5232C110.022 34.1276 109.669 34.6772 109.215 35.1362C108.772 35.5728 108.238 35.9067 107.652 36.1142C107.026 36.3367 106.367 36.4477 105.703 36.4422C105.051 36.4465 104.403 36.3354 103.79 36.1142C103.203 35.9032 102.668 35.5698 102.22 35.1362C101.757 34.6798 101.397 34.1299 101.163 33.5232C100.894 32.8095 100.763 32.0509 100.778 31.2882C100.763 30.5245 100.899 29.7652 101.178 29.0542C101.422 28.4457 101.789 27.8941 102.256 27.4342C102.704 26.9989 103.239 26.6633 103.826 26.4492C104.427 26.2294 105.063 26.1183 105.704 26.1212C106.356 26.1171 107.003 26.2282 107.617 26.4492C108.205 26.6611 108.74 26.997 109.187 27.4342C109.649 27.8941 110.009 28.446 110.244 29.0542C110.513 29.7676 110.643 30.5259 110.628 31.2882ZM103.075 31.2882C103.069 31.7326 103.129 32.1754 103.253 32.6022C103.359 32.9674 103.533 33.3093 103.767 33.6092C103.986 33.8868 104.267 34.1093 104.588 34.2591C104.939 34.4099 105.316 34.4877 105.698 34.4877C106.08 34.4877 106.457 34.4099 106.808 34.2591C107.131 34.1106 107.415 33.888 107.636 33.6092C107.87 33.3092 108.044 32.9674 108.15 32.6022C108.274 32.1754 108.334 31.7326 108.329 31.2882C108.334 30.8415 108.274 30.3964 108.15 29.9671C108.045 29.5995 107.87 29.2554 107.636 28.9532C107.415 28.6745 107.131 28.4518 106.808 28.3032C106.46 28.1466 106.082 28.0684 105.701 28.0742C105.316 28.067 104.935 28.1477 104.587 28.3102C104.267 28.4643 103.986 28.6889 103.766 28.9671C103.531 29.2692 103.357 29.6134 103.252 29.9812C103.129 30.4058 103.07 30.8462 103.075 31.2882Z" fill="#B9B9B9"/>
<path d="M115.11 26.3512C115.282 26.6652 115.48 27.0532 115.704 27.5152C115.928 27.9772 116.161 28.4772 116.404 29.0152C116.647 29.5532 116.888 30.1029 117.127 30.6642L117.8 32.2492L118.473 30.6642C118.712 30.1029 118.953 29.5532 119.196 29.0152C119.439 28.4772 119.673 27.9772 119.896 27.5152C120.12 27.0532 120.318 26.6652 120.49 26.3512H122.518C122.613 27.0079 122.701 27.7433 122.782 28.5573C122.863 29.3713 122.935 30.2182 122.996 31.0982C123.058 31.9788 123.115 32.8616 123.167 33.7462C123.219 34.6309 123.264 35.4642 123.302 36.2462H121.132C121.103 35.2849 121.065 34.2379 121.018 33.1052C120.971 31.9726 120.899 30.8302 120.804 29.6782C120.632 30.0782 120.441 30.5209 120.231 31.0062C120.021 31.4916 119.813 31.9768 119.608 32.4622C119.403 32.9475 119.205 33.4116 119.014 33.8543C118.823 34.2969 118.661 34.6752 118.527 34.9892H116.971C116.838 34.6752 116.675 34.2969 116.484 33.8543C116.293 33.4116 116.095 32.9475 115.89 32.4622C115.685 31.9768 115.477 31.4916 115.267 31.0062C115.057 30.5209 114.866 30.0782 114.694 29.6782C114.599 30.8296 114.527 31.9719 114.48 33.1052C114.433 34.2386 114.395 35.2856 114.366 36.2462H112.196C112.234 35.4656 112.279 34.6322 112.332 33.7462C112.385 32.8602 112.442 31.9775 112.503 31.0982C112.565 30.2182 112.636 29.3713 112.717 28.5573C112.798 27.7433 112.886 27.0079 112.981 26.3512H115.11Z" fill="#B9B9B9"/>
<path d="M128.589 36.3721C128.046 36.3721 127.506 36.3555 126.968 36.3222C126.404 36.2852 125.843 36.2067 125.291 36.0872V26.4921C125.787 26.4013 126.288 26.3369 126.791 26.2991C127.334 26.2565 127.838 26.2352 128.304 26.2352C128.885 26.2315 129.466 26.277 130.039 26.3712C130.517 26.4444 130.978 26.6015 131.402 26.8351C131.769 27.0411 132.076 27.3389 132.294 27.6992C132.52 28.1019 132.631 28.5588 132.615 29.0202C132.615 29.4068 132.509 29.786 132.307 30.1159C132.106 30.4459 131.817 30.7138 131.473 30.8902C132.003 31.0515 132.458 31.3956 132.758 31.8611C132.99 32.2853 133.109 32.7626 133.101 33.2462C133.128 33.7011 133.038 34.1554 132.839 34.5655C132.641 34.9756 132.34 35.3277 131.966 35.5882C130.943 36.1789 129.767 36.4518 128.589 36.3721ZM127.461 30.2332H128.546C129.05 30.2697 129.556 30.1789 130.016 29.9692C130.161 29.8823 130.28 29.7569 130.358 29.6069C130.436 29.4568 130.471 29.288 130.459 29.1192C130.473 28.9496 130.437 28.7794 130.356 28.6298C130.275 28.4802 130.152 28.3577 130.002 28.2772C129.58 28.0921 129.12 28.0088 128.66 28.0341C128.469 28.0341 128.265 28.0365 128.046 28.0412C127.827 28.0459 127.632 28.0579 127.461 28.0772V30.2332ZM127.461 31.9332V34.4892C127.623 34.5085 127.799 34.5228 127.989 34.5322C128.179 34.5415 128.388 34.5462 128.617 34.5462C129.169 34.5677 129.719 34.4705 130.23 34.2612C130.429 34.1701 130.595 34.0196 130.705 33.8303C130.815 33.641 130.863 33.4222 130.844 33.2042C130.859 33.0092 130.819 32.8139 130.728 32.6408C130.637 32.4677 130.499 32.324 130.33 32.2261C129.872 32.006 129.366 31.9052 128.859 31.9332H127.461Z" fill="#B9B9B9"/>
<path d="M134.885 26.3512H137.112V36.2462H134.885V26.3512Z" fill="#B9B9B9"/>
<path d="M142.295 26.2352C143.485 26.1616 144.672 26.4368 145.708 27.0272C146.103 27.299 146.42 27.6693 146.628 28.1013C146.836 28.5333 146.927 29.012 146.893 29.4902C146.921 30.091 146.753 30.6847 146.415 31.1822C146.059 31.6434 145.582 31.9968 145.037 32.2032C145.237 32.4505 145.446 32.7335 145.665 33.0522C145.884 33.3709 146.1 33.7042 146.315 34.0522C146.529 34.3995 146.736 34.7611 146.936 35.1371C147.136 35.5131 147.322 35.8822 147.493 36.2442H145.003L144.451 35.2592C144.265 34.9259 144.074 34.6021 143.878 34.2881C143.682 33.9741 143.488 33.6768 143.297 33.3962C143.106 33.1155 142.915 32.8608 142.724 32.6321H141.624V36.2442H139.396V26.4921C139.894 26.3954 140.397 26.3286 140.903 26.2922C141.422 26.2542 141.886 26.2352 142.295 26.2352ZM142.424 28.1352C142.263 28.1352 142.117 28.1398 141.988 28.1491L141.624 28.1782V30.8602H142.252C142.869 30.9037 143.486 30.796 144.052 30.5462C144.233 30.4362 144.381 30.2776 144.477 30.0883C144.572 29.899 144.614 29.6866 144.595 29.4752C144.611 29.2682 144.568 29.0609 144.471 28.8775C144.373 28.6941 144.226 28.5423 144.045 28.4401C143.538 28.2066 142.981 28.1026 142.424 28.1352Z" fill="#B9B9B9"/>
<path d="M157.587 31.2892C157.604 32.0557 157.468 32.8178 157.187 33.5313C156.94 34.1422 156.551 34.6855 156.052 35.1162C155.528 35.5533 154.917 35.8743 154.26 36.0583C153.489 36.2767 152.691 36.3825 151.89 36.3722C151.49 36.3722 151.023 36.3556 150.49 36.3223C149.963 36.2897 149.438 36.2205 148.92 36.1153V26.4783C149.451 26.3811 149.987 26.3166 150.526 26.2853C151.083 26.252 151.561 26.2353 151.961 26.2353C152.739 26.2266 153.515 26.3228 154.267 26.5213C154.917 26.6914 155.523 26.9982 156.045 27.4213C156.549 27.8432 156.941 28.3827 157.187 28.9922C157.471 29.724 157.606 30.5047 157.587 31.2892ZM151.148 34.4302C151.252 34.4395 151.373 34.4465 151.512 34.4512C151.649 34.4562 151.812 34.4583 152.004 34.4583C152.453 34.4952 152.904 34.4394 153.33 34.2946C153.756 34.1497 154.148 33.9188 154.481 33.6162C155.047 32.9779 155.337 32.1411 155.288 31.2892C155.351 30.8552 155.311 30.4125 155.171 29.997C155.03 29.5814 154.794 29.2047 154.482 28.8974C154.169 28.59 153.788 28.3607 153.37 28.2279C152.952 28.0952 152.509 28.0627 152.076 28.1332C151.923 28.1332 151.766 28.1356 151.605 28.1403C151.452 28.1442 151.3 28.1562 151.148 28.1763V34.4302Z" fill="#B9B9B9"/>
<path d="M58.0949 20.842L53.775 18.266C53.1185 16.7558 52.1889 15.3797 51.0329 14.207L50.925 14.086C48.651 11.544 46.125 10.353 43.415 10.541C39.995 10.78 36.566 13.241 33.468 17.67C32.816 17.404 32.161 17.148 31.508 16.896C26.279 14.865 21.3399 12.947 18.4919 5.17999L17.326 2L16.9189 5.36298C16.5349 8.2989 16.4379 11.2652 16.629 14.22C15.4898 12.8716 14.5655 11.3554 13.889 9.72498L12.696 6.94098L12.333 9.948C10.218 27.441 18.533 31.214 25.869 34.543L25.8819 34.549C25.1403 37.9351 24.6324 41.3682 24.3619 44.824C24.1769 46.59 23.962 48.591 23.702 50.446C23.349 50.503 23.002 50.555 22.665 50.608C19.775 51.051 17.688 51.37 17.098 52.777C16.611 53.937 17.5049 55.177 17.7979 55.582C18.7069 56.843 20.0419 58.433 21.5219 58.433C21.7009 58.433 21.8791 58.4094 22.052 58.363C23.692 57.926 24.5219 55.642 25.1359 51.857C26.4887 51.6291 27.825 51.312 29.1359 50.908C40.7859 47.208 43.01 39.05 44.973 31.85C46.349 26.803 47.5569 22.376 51.8409 20.301C53.0729 19.831 58.0949 20.842 58.0949 20.842ZM21.6359 56.79C21.2519 56.89 20.3839 56.381 19.1199 54.629C18.4979 53.767 18.5779 53.458 18.6009 53.405C18.8379 52.84 21.1009 52.4939 22.9129 52.2159L23.437 52.1349C23.001 54.6369 22.4299 56.578 21.6359 56.79ZM13.696 12.929C14.565 14.3959 15.6593 15.7171 16.9389 16.844C18.3529 25.552 23.2079 29.306 27.6319 32.719C28.5919 33.46 29.523 34.179 30.389 34.925C29.153 34.244 27.8429 33.649 26.5439 33.059C19.8109 30.005 12.862 26.853 13.696 12.929ZM28.6429 49.358C27.5748 49.6891 26.4878 49.9562 25.3879 50.158C25.5939 48.624 25.782 46.898 25.982 44.995C26.2441 41.7172 26.7116 38.4592 27.3819 35.24C31.9429 37.37 35.613 39.653 35.531 45.879C33.4585 47.4364 31.1264 48.6143 28.6429 49.358ZM37.135 44.4789C36.747 37.7009 32.795 34.6489 28.625 31.4319C23.069 27.1459 17.3359 22.723 18.2459 8.651C21.4529 14.738 26.256 16.603 30.92 18.415C36.128 20.438 41.049 22.35 43.758 30.124C43.6387 30.5546 43.5199 30.9879 43.4019 31.424C42.1379 36.0579 40.8459 40.788 37.1359 44.477L37.135 44.4789ZM44.508 27.607C42.6813 23.3834 39.2637 20.0499 34.9959 18.329C37.7169 14.543 40.724 12.364 43.529 12.167C45.709 12.011 47.79 13.025 49.712 15.174L49.821 15.295C50.7276 16.2184 51.4883 17.2745 52.077 18.4269C47.691 20.0879 45.824 23.569 44.508 27.605V27.607Z" fill="#B9B9B9"/>
</svg>
