<svg width="194" height="167" viewBox="0 0 194 167" fill="none" xmlns="http://www.w3.org/2000/svg">
<path d="M79.238 33.732C80.3806 33.284 81.4183 32.6048 82.2861 31.737C83.154 30.8692 83.8332 29.8315 84.2813 28.689C84.7294 27.5464 84.9367 26.3237 84.8902 25.0973C84.8437 23.8709 84.5444 22.6673 84.011 21.562L76.211 5.893C75.0764 3.73147 73.1685 2.07722 70.8681 1.26034C68.5676 0.44347 66.0437 0.52405 63.8 1.486C50.275 6.963 38.66 14.113 29.432 22.786C18.139 32.972 10.5 44.686 6.365 57.617C2.228 70.701 0 88.499 0 111.167V157.867C0.0639763 160.341 1.10364 162.689 2.89218 164.399C4.68071 166.109 7.07296 167.042 9.547 166.995H72.078C74.552 167.042 76.9443 166.109 78.7328 164.399C80.5214 162.689 81.561 160.341 81.625 157.867V98.086C81.5613 95.6123 80.5217 93.2641 78.7331 91.554C76.9445 89.8439 74.5521 88.9107 72.078 88.958H42.165C42.483 73.586 46.3 61.268 53.3 51.986C59.031 44.535 67.623 38.45 79.238 33.732Z" fill="#F8F8F8"/>
<path d="M188.334 33.7379C189.476 33.2898 190.514 32.6105 191.382 31.7427C192.25 30.8749 192.929 29.8373 193.377 28.6948C193.825 27.5523 194.032 26.3295 193.986 25.1032C193.939 23.8768 193.64 22.6733 193.107 21.5679L185.307 6.05294C184.173 3.8922 182.266 2.23843 179.966 1.42143C177.666 0.604427 175.143 0.684237 172.9 1.64494C160.352 6.64671 148.775 13.8027 138.691 22.7899C127.392 33.1309 119.597 44.8449 115.455 57.7749C111.318 70.5516 109.252 88.3516 109.255 111.175V157.875C109.319 160.348 110.359 162.696 112.148 164.406C113.936 166.116 116.328 167.049 118.802 167.002H181.333C183.807 167.049 186.199 166.116 187.987 164.406C189.776 162.696 190.816 160.348 190.88 157.875V98.0869C190.816 95.6134 189.776 93.2655 187.988 91.5556C186.199 89.8457 183.807 88.9126 181.333 88.9599H151.261C151.579 73.5939 155.4 61.2729 162.399 51.9919C168.127 44.5399 176.719 38.4549 188.334 33.7379Z" fill="#F8F8F8"/>
</svg>
