<?xml version="1.0" encoding="UTF-8" standalone="no"?>
<!-- Created with Inkscape (http://www.inkscape.org/) -->

<svg
   width="44.979164mm"
   height="44.97916mm"
   viewBox="0 0 44.979164 44.97916"
   version="1.1"
   id="svg1"
   xml:space="preserve"
   xmlns="http://www.w3.org/2000/svg"
   xmlns:svg="http://www.w3.org/2000/svg"><defs
     id="defs1"><linearGradient
       id="paint0_linear_170_24732"
       x1="85"
       y1="0"
       x2="85"
       y2="170"
       gradientUnits="userSpaceOnUse"><stop
         stop-color="#F8F5ED"
         id="stop1" /><stop
         offset="1"
         stop-color="#F7F7F7"
         stop-opacity="0"
         id="stop2" /></linearGradient></defs><g
     id="layer1"
     transform="translate(-82.648417,-126.01042)"><g
       style="fill:none"
       id="g1"
       transform="matrix(0.26458333,0,0,0.26458333,82.648417,126.01042)"><path
         d="m 85,170 c 46.944,0 85,-38.056 85,-85 C 170,38.0558 131.944,0 85,0 38.0558,0 0,38.0558 0,85 c 0,46.944 38.0558,85 85,85 z"
         fill="url(#paint0_linear_170_24732)"
         id="path1"
         style="fill:url(#paint0_linear_170_24732)" /></g><g
       style="fill:none"
       id="g2"
       transform="matrix(0.26458333,0,0,0.26458333,93.496347,136.59375)"><path
         d="m 71.0014,43.3906 c 9.388,0 16.9985,-7.5548 16.9985,-16.8741 0,-9.3193 -7.6105,-16.87417 -16.9985,-16.87417 -9.388,0 -16.9985,7.55487 -16.9985,16.87417 0,9.3193 7.6105,16.8741 16.9985,16.8741 z"
         fill="#f2eddc"
         id="path1-6" /><path
         d="m 27.4413,28.9271 c 8.0469,0 14.5702,-6.4755 14.5702,-14.4635 C 42.0115,6.47556 35.4882,0 27.4413,0 19.3945,0 12.8712,6.47556 12.8712,14.4636 c 0,7.988 6.5233,14.4635 14.5701,14.4635 z"
         fill="#f2eddc"
         id="path2" /><path
         d="M 46.5013,90 C 59.9128,90 70.7849,79.2074 70.7849,65.894 70.7849,52.5807 59.9128,41.7881 46.5013,41.7881 33.0899,41.7881 22.2178,52.5807 22.2178,65.894 22.2178,79.2074 33.0899,90 46.5013,90 Z"
         fill="#f2eddc"
         id="path3" /><path
         d="m 1.0918,58.8187 c 2.67119,0 4.85671,2.1696 4.85671,4.8212 0,-2.6516 2.18552,-4.8212 4.85669,-4.8212 -2.67117,0 -4.85669,-2.1695 -4.85669,-4.8211 0,2.6516 -2.18552,4.8211 -4.85671,4.8211 z"
         fill="#ffffff"
         id="path4" /><path
         d="m 5.94943,64.4834 c -0.48567,0 -0.97133,-0.3616 -0.97133,-0.9643 0,-2.1695 -1.82125,-3.8569 -4.006773,-3.8569 C 0.485656,59.6622 0,59.3006 0,58.698 c 0,-0.4822 0.364239,-0.9643 0.971327,-0.9643 2.185523,0 4.006773,-1.8079 4.006773,-3.9775 0,-0.4821 0.36424,-0.9642 0.97133,-0.9642 0.48567,0 0.9714,0.3616 0.9714,0.9642 0,2.1696 1.82125,3.9775 4.00677,3.9775 0.4857,0 0.9713,0.3616 0.9713,0.9643 0,0.4821 -0.3642,0.9642 -0.9713,0.9642 -2.18552,0 -4.00677,1.8079 -4.00677,3.9775 -0.12142,0.4821 -0.48573,0.8437 -0.9714,0.8437 z M 4.12816,58.8185 c 0.72851,0.4821 1.33563,1.0848 1.69988,1.6874 C 6.31371,59.7827 6.92083,59.1801 7.52792,58.8185 6.79941,58.3364 6.19229,57.7337 5.82804,57.1311 5.46379,57.7337 4.85667,58.3364 4.12816,58.8185 Z"
         fill="#4f5955"
         id="path5" /><path
         d="m 24.1631,66.0502 c 2.6712,0 4.8567,2.1695 4.8567,4.8212 0,-2.6517 2.1855,-4.8212 4.8567,-4.8212 -2.6712,0 -4.8567,-2.1695 -4.8567,-4.8212 0,2.6517 -2.1855,4.8212 -4.8567,4.8212 z"
         fill="#ffffff"
         id="path6" /><path
         d="m 29.0178,71.715 c -0.4857,0 -0.9713,-0.3616 -0.9713,-0.9643 0,-2.1695 -1.8213,-3.9774 -4.0068,-3.9774 -0.4857,0 -0.9713,-0.3616 -0.9713,-0.9643 0,-0.4821 0.3642,-0.9642 0.9713,-0.9642 2.1855,0 4.0068,-1.808 4.0068,-3.9775 0,-0.4821 0.3642,-0.9642 0.9713,-0.9642 0.4857,0 0.9714,0.3616 0.9714,0.9642 0,2.1695 1.8212,3.9775 4.0068,3.9775 0.4856,0 0.9713,0.3616 0.9713,0.9642 0,0.4821 -0.3643,0.9643 -0.9713,0.9643 -2.1856,0 -4.0068,1.8079 -4.0068,3.9774 -0.1214,0.6027 -0.4857,0.9643 -0.9714,0.9643 z M 27.318,66.0501 c 0.7285,0.4821 1.3355,1.0848 1.6998,1.6874 0.4857,-0.7232 1.0928,-1.3258 1.6999,-1.6874 -0.7285,-0.4821 -1.3357,-1.0848 -1.6999,-1.6874 -0.4857,0.6026 -1.0927,1.2053 -1.6998,1.6874 z"
         fill="#4f5955"
         id="path7" /><path
         d="m 10.8047,75.6928 c 2.6712,0 4.8567,2.1695 4.8567,4.8212 0,-2.6517 2.1855,-4.8212 4.8567,-4.8212 -2.6712,0 -4.8567,-2.1696 -4.8567,-4.8212 0,2.6516 -2.1855,4.8212 -4.8567,4.8212 z"
         fill="#ffffff"
         id="path8" /><path
         d="m 15.664,81.3573 c -0.4857,0 -0.9714,-0.3616 -0.9714,-0.9642 0,-2.1696 -1.8212,-3.9775 -3.8853,-3.9775 -0.4857,0 -0.97136,-0.3616 -0.97136,-0.9642 0,-0.4822 0.36426,-0.9643 0.97136,-0.9643 2.1855,0 3.8854,-1.8079 4.0068,-3.9775 0,-0.4821 0.3642,-0.9642 0.9713,-0.9642 0.4857,0 0.9714,0.3616 0.9714,0.9642 0,2.1696 1.8212,3.9775 4.0067,3.9775 0.4857,0 0.9714,0.3616 0.9714,0.9643 0,0.4821 -0.3643,0.9642 -0.9714,0.9642 -2.1855,0 -4.0067,1.8079 -4.0067,3.9775 -0.2429,0.6026 -0.6072,0.9642 -1.0928,0.9642 z m -1.6998,-5.6649 c 0.7285,0.4821 1.3355,1.0848 1.6998,1.6874 0.4856,-0.7231 1.0928,-1.3258 1.6999,-1.6874 -0.7286,-0.4821 -1.3357,-1.0847 -1.6999,-1.6874 -0.4857,0.6027 -1.0927,1.2053 -1.6998,1.6874 z"
         fill="#4f5955"
         id="path9" /><path
         d="M 78.8011,29.8914 C 78.8011,14.8252 66.0523,2.6517 50.6323,3.37488 36.9121,4.09805 25.863,15.4279 25.3773,28.9272 c -0.2428,7.8344 2.9141,14.9457 8.2565,20.0079 2.914,2.7722 4.4924,6.7497 4.4924,10.7271 v 1.4464 h 27.9261 v -1.8079 c 0,-3.9775 1.8213,-7.8345 4.7353,-10.6067 4.9781,-4.7006 8.0135,-11.4503 8.0135,-18.8026 z"
         fill="#ffffff"
         id="path10" /><path
         opacity="0.2"
         d="m 52.6961,3.375 c 6.1923,5.6649 10.0777,13.8609 10.0777,22.9006 0,15.0663 -10.6848,27.6013 -25.0121,30.6146 0.1214,0.9642 0.2429,1.8079 0.2429,2.7722 v 1.4463 h 27.9261 v -1.8079 c 0,-3.9775 1.8213,-7.8344 4.7353,-10.6066 C 75.6441,43.873 78.6795,37.2438 78.6795,29.771 78.8009,15.428 67.1448,3.73659 52.6961,3.375 Z"
         fill="#4f5955"
         id="path11" /><path
         d="M 61.8005,70.8717 H 42.3737 c -1.3356,0 -2.4284,-1.0847 -2.4284,-2.4106 0,-1.3258 1.0928,-2.4106 2.4284,-2.4106 h 19.4268 c 1.3356,0 2.4284,1.0848 2.4284,2.4106 0,1.3259 -1.0928,2.4106 -2.4284,2.4106 z"
         fill="#ffffff"
         id="path12" /><path
         d="M 61.8005,75.6928 H 42.3737 c -1.3356,0 -2.4284,-1.0848 -2.4284,-2.4106 0,-1.3259 1.0928,-2.4106 2.4284,-2.4106 h 19.4268 c 1.3356,0 2.4284,1.0847 2.4284,2.4106 0,1.3258 -1.0928,2.4106 -2.4284,2.4106 z"
         fill="#ffffff"
         id="path13" /><path
         d="M 61.8005,66.0502 H 42.3737 c -1.3356,0 -2.4284,-1.0848 -2.4284,-2.4106 V 61.229 h 24.2836 v 2.4106 c 0,1.3258 -1.0928,2.4106 -2.4284,2.4106 z"
         fill="#ffffff"
         id="path14" /><path
         opacity="0.2"
         d="m 61.6816,70.8717 h -5.9495 c -1.3356,0 -2.4284,-1.0847 -2.4284,-2.4106 0,-1.3258 1.0928,-2.4106 2.4284,-2.4106 h 5.9495 c 1.3356,0 2.4283,1.0848 2.4283,2.4106 0,1.3259 -1.0927,2.4106 -2.4283,2.4106 z"
         fill="#4f5955"
         id="path15" /><path
         opacity="0.2"
         d="m 61.6796,75.6928 h -9.5921 c -1.3356,0 -2.4283,-1.0848 -2.4283,-2.4106 0,-1.3259 1.0927,-2.4106 2.4283,-2.4106 h 9.5921 c 1.3356,0 2.4283,1.0847 2.4283,2.4106 0,1.3258 -1.0927,2.4106 -2.4283,2.4106 z"
         fill="#4f5955"
         id="path16" /><path
         opacity="0.2"
         d="M 61.8009,66.0502 H 48.445 c -1.3356,0 -2.4284,-1.0848 -2.4284,-2.4106 V 61.229 h 18.2127 v 2.4106 c 0,1.3258 -1.0928,2.4106 -2.4284,2.4106 z"
         fill="#4f5955"
         id="path17" /><path
         d="M 66.0509,62.0728 H 38.1248 c -0.4856,0 -0.9713,-0.3616 -0.9713,-0.9643 v -1.4463 c 0,-3.857 -1.5784,-7.5934 -4.2496,-10.1245 C 27.3187,44.1138 24.1618,36.641 24.4047,28.9271 24.8903,14.8251 36.3036,3.25429 50.5095,2.41058 c 7.6493,-0.36159 14.9344,2.29006 20.5196,7.47283 5.5852,5.18279 8.6206,12.29399 8.6206,19.88739 0,7.4728 -2.914,14.343 -8.2563,19.5258 -2.7927,2.7722 -4.3711,6.2676 -4.3711,10.004 v 1.8079 c 0,0.6027 -0.4857,0.9643 -0.9714,0.9643 z m -27.0761,-1.808 h 26.1048 v -0.8437 c 0,-4.2185 1.6999,-8.196 4.9782,-11.2093 4.9781,-4.8211 7.7707,-11.3297 7.7707,-18.3205 0,-7.1112 -2.914,-13.7403 -8.0136,-18.5615 C 64.594,6.38806 57.7946,3.97746 50.6309,4.33905 37.3964,5.06223 26.7116,15.9099 26.2259,29.0476 c -0.2428,7.2318 2.6712,14.2225 7.8922,19.2848 3.0354,2.8927 4.7353,6.9907 4.7353,11.3298 v 0.6026 z"
         fill="#4f5955"
         id="path18" /><path
         d="M 61.8021,71.7147 H 42.3753 c -1.8213,0 -3.3997,-1.4463 -3.3997,-3.3748 0,-1.8079 1.457,-3.3748 3.3997,-3.3748 h 19.4268 c 1.8213,0 3.3998,1.4463 3.3998,3.3748 -0.1214,1.9285 -1.5785,3.3748 -3.3998,3.3748 z M 42.3753,66.8936 c -0.85,0 -1.5784,0.7231 -1.5784,1.5668 0,0.8437 0.7284,1.5669 1.5784,1.5669 h 19.4268 c 0.8499,0 1.5785,-0.7232 1.5785,-1.5669 0,-0.8437 -0.7286,-1.5668 -1.5785,-1.5668 z"
         fill="#4f5955"
         id="path19" /><path
         d="M 61.8021,76.5365 H 42.3753 c -1.8213,0 -3.3997,-1.4463 -3.3997,-3.3748 0,-1.8079 1.457,-3.3748 3.3997,-3.3748 h 19.4268 c 1.8213,0 3.3998,1.4463 3.3998,3.3748 -0.1214,1.9285 -1.5785,3.3748 -3.3998,3.3748 z M 42.3753,71.7153 c -0.85,0 -1.5784,0.7232 -1.5784,1.5669 0,0.8437 0.7284,1.5669 1.5784,1.5669 h 19.4268 c 0.8499,0 1.5785,-0.7232 1.5785,-1.5669 0,-0.8437 -0.7286,-1.5669 -1.5785,-1.5669 z"
         fill="#4f5955"
         id="path20" /><path
         d="M 61.8021,66.8935 H 42.3753 c -1.8213,0 -3.3997,-1.4464 -3.3997,-3.3749 V 61.108 c 0,-0.4821 0.3642,-0.9642 0.9713,-0.9642 h 24.2836 c 0.4856,0 0.9714,0.3616 0.9714,0.9642 v 2.4106 c -0.1214,1.9285 -1.5785,3.3749 -3.3998,3.3749 z M 40.7969,62.0723 v 1.5669 c 0,0.8437 0.7284,1.5668 1.5784,1.5668 h 19.4268 c 0.8499,0 1.5785,-0.7231 1.5785,-1.5668 v -1.5669 z"
         fill="#4f5955"
         id="path21" /><path
         d="M 59.3715,81.3574 H 44.8014 c -0.4857,0 -0.9713,-0.3616 -0.9713,-0.9642 0,-0.4821 0.3642,-0.9642 0.9713,-0.9642 h 14.5701 c 0.4857,0 0.9714,0.3615 0.9714,0.9642 -0.1214,0.6026 -0.4857,0.9642 -0.9714,0.9642 z"
         fill="#4f5955"
         id="path22" /><path
         d="m 72.6076,28.4454 c -0.4856,0 -0.8499,-0.3616 -0.8499,-0.8437 -0.6071,-5.7854 -3.8854,-10.9682 -8.7421,-14.102 -0.3642,-0.241 -0.4856,-0.8437 -0.2428,-1.2053 0.2429,-0.3615 0.85,-0.4821 1.2142,-0.241 5.3424,3.4954 8.8635,9.1602 9.592,15.4278 0,0.3616 -0.3643,0.8437 -0.9714,0.9642 z"
         fill="#4f5955"
         id="path23" /><path
         d="m 71.6367,37.1228 c -0.1214,0 -0.2428,0 -0.2428,0 -0.4857,-0.1205 -0.7285,-0.7231 -0.6071,-1.0847 0.3643,-1.2053 0.7285,-2.5312 0.8499,-3.857 0,-0.4821 0.4857,-0.8437 0.9714,-0.8437 0.4856,0 0.8499,0.4821 0.8499,0.9642 -0.1214,1.4464 -0.4856,2.7722 -0.9713,4.2186 0,0.3616 -0.3643,0.6026 -0.85,0.6026 z"
         fill="#4f5955"
         id="path24" /><path
         d="m 59.3738,22.6598 c 0,-3.9775 -3.2782,-7.2318 -7.285,-7.2318 -4.0068,0 -7.2851,3.2543 -7.2851,7.2318 0,2.29 1.0928,4.4596 2.9141,5.7854 l -2.9141,15.9099 h 7.2851 7.285 L 56.4599,28.4452 c 1.8212,-1.4464 2.9139,-3.4954 2.9139,-5.7854 z"
         fill="#ffffff"
         id="path25" /><path
         opacity="0.2"
         d="m 59.3726,22.6598 c 0,-3.9775 -3.2783,-7.2318 -7.2851,-7.2318 -0.8499,0 -1.6998,0.1205 -2.4283,0.3616 2.7926,0.9642 4.8567,3.7364 4.8567,6.8702 0,2.29 -1.0927,4.4596 -2.914,5.7854 l 2.914,15.9099 h 4.8567 l -2.914,-15.9099 c 1.8213,-1.4464 2.914,-3.4954 2.914,-5.7854 z"
         fill="#4f5955"
         id="path26" /><path
         d="M 59.3738,45.1986 H 44.6823 c -0.2429,0 -0.4857,-0.1205 -0.7285,-0.3616 -0.1214,-0.241 -0.2429,-0.4821 -0.2429,-0.7232 L 46.5035,28.686 c -1.8212,-1.5668 -2.7926,-3.7364 -2.7926,-6.147 0,-4.4596 3.6426,-8.196 8.2564,-8.196 4.4925,0 8.2564,3.6159 8.2564,8.196 0,2.2901 -0.9713,4.5802 -2.7926,6.147 l 2.7926,15.4278 c 0,0.2411 0,0.4822 -0.2428,0.7232 0,0.2411 -0.3643,0.3616 -0.6071,0.3616 z M 45.8964,43.3907 H 58.4025 L 55.7313,28.5655 c 0,-0.3616 0.1214,-0.7232 0.3643,-0.8437 1.5784,-1.2053 2.5497,-3.0132 2.5497,-5.0622 0,-3.4954 -2.914,-6.3881 -6.4351,-6.3881 -3.5211,0 -6.4351,2.8927 -6.4351,6.3881 0,1.9284 0.9713,3.8569 2.5497,5.0622 0.2428,0.2411 0.3642,0.4821 0.3642,0.8437 z"
         fill="#4f5955"
         id="path27" /><path
         d="M 59.3723,23.2621 H 33.7532 c -2.5498,-6.0265 -8.6207,-10.245 -15.6629,-10.245 -9.34918,0 -16.9985,7.5934 -16.9985,16.8741 0,9.2808 7.64932,16.8742 16.9985,16.8742 7.0422,0 13.1131,-4.2185 15.6629,-10.245 h 7.2851 l 4.9781,-4.7007 4.0068,3.9775 4.0068,-3.9775 4.0068,3.9775 -1.3356,-7.3523 c 1.457,-1.3258 2.5497,-3.1338 2.6711,-5.1828 z"
         fill="#ffffff"
         id="path28" /><path
         opacity="0.2"
         d="m 33.5105,28.0834 c -0.6071,0 -1.0928,0.4821 -1.2142,0.9643 -1.6999,9.2807 -9.8349,16.392 -19.6697,16.392 -0.3643,0 -0.6071,0 -0.9713,0 1.9427,0.8437 4.1282,1.2053 6.4351,1.2053 7.0422,0 13.1132,-4.2185 15.6629,-10.245 h 7.2851 l 4.9781,-4.7007 4.0068,3.9775 4.0068,-3.9775 4.0068,3.9775 -1.3356,-7.3523 c 0.1214,-0.1205 0.2428,-0.2411 0.3643,-0.3616 H 33.5105 Z"
         fill="#4f5955"
         id="path29" /><path
         opacity="0.2"
         d="m 22.5835,22.6597 c 0.2428,0.7231 0.3642,1.5669 0.3642,2.29 0,4.7007 -3.764,8.4371 -8.4992,8.4371 -1.6999,0 -3.1568,-0.4821 -4.49245,-1.3258 0.97135,3.4953 4.24955,6.147 8.13495,6.147 4.7353,0 8.4992,-3.7364 8.4992,-8.4371 0,-2.8927 -1.5784,-5.5443 -4.0067,-7.1112 z"
         fill="#4f5955"
         id="path30" /><path
         d="m 18.0917,39.172 c -5.221,0 -9.47061,-4.2185 -9.47061,-9.4013 0,-5.1828 4.24961,-9.4013 9.47061,-9.4013 5.2209,0 9.4706,4.2185 9.4706,9.4013 -0.1214,5.1828 -4.2497,9.4013 -9.4706,9.4013 z m 0,-16.8741 c -4.1282,0 -7.6493,3.3748 -7.6493,7.5933 0,4.098 3.3996,7.5934 7.6493,7.5934 4.1282,0 7.6493,-3.3748 7.6493,-7.5934 -0.1214,-4.2185 -3.5211,-7.5933 -7.6493,-7.5933 z"
         fill="#4f5955"
         id="path31" /><path
         d="m 18.0919,47.6091 c -9.83485,0 -17.96983,-7.9549 -17.96983,-17.8383 0,-9.7629 8.01356,-17.8384 17.96983,-17.8384 7.0422,0 13.356,3.9775 16.27,10.245 h 25.012 c 0.2429,0 0.4858,0.1205 0.7286,0.2411 0.1214,0.241 0.2428,0.4821 0.2428,0.7231 -0.1214,2.049 -1.2142,3.9775 -2.7926,5.4239 l 1.2141,6.7496 c 0.1215,0.3616 -0.1213,0.7232 -0.4856,0.9643 -0.3642,0.1205 -0.7285,0.1205 -1.0928,-0.1206 l -3.2783,-3.2543 -3.2782,3.2543 c -0.1214,0.1206 -0.3642,0.2411 -0.6071,0.2411 -0.2428,0 -0.4856,-0.1205 -0.6071,-0.2411 l -3.2783,-3.2543 -4.2496,4.098 c -0.1214,0.1206 -0.3642,0.2411 -0.6071,0.2411 h -6.9208 c -3.0354,6.3881 -9.3492,10.3655 -16.27,10.3655 z m 0,-33.7483 c -8.86351,0 -16.14856,7.1113 -16.14856,16.0305 0,8.7987 7.16363,16.0304 16.14856,16.0304 6.4351,0 12.2632,-3.8569 14.813,-9.7629 0.1214,-0.3616 0.4857,-0.6026 0.8499,-0.6026 h 6.9208 l 4.6139,-4.4596 c 0.3643,-0.3616 0.9713,-0.3616 1.2142,0 l 3.2783,3.2543 3.2783,-3.2543 c 0.1214,-0.1205 0.3642,-0.2411 0.6071,-0.2411 0.2428,0 0.4856,0.1206 0.6071,0.2411 l 1.9426,1.9285 -0.7285,-4.4596 c 0,-0.3616 0.1214,-0.7232 0.3643,-0.8437 1.2141,-0.8437 1.9426,-2.1696 2.3069,-3.4954 H 33.512 c -0.3643,0 -0.7286,-0.2411 -0.85,-0.6027 -2.3069,-5.9059 -8.135,-9.7629 -14.5701,-9.7629 z"
         fill="#4f5955"
         id="path32" /></g></g></svg>
