<?xml version="1.0" encoding="UTF-8" standalone="no"?>
<!-- Created with Inkscape (http://www.inkscape.org/) -->

<svg
   width="29.104166mm"
   height="29.104158mm"
   viewBox="0 0 29.104166 29.104158"
   version="1.1"
   id="svg1"
   xml:space="preserve"
   xmlns="http://www.w3.org/2000/svg"
   xmlns:svg="http://www.w3.org/2000/svg"><defs
     id="defs1" /><g
     id="layer1"
     transform="translate(-90.353922,-133.94792)"><g
       style="fill:none"
       id="g1"
       transform="matrix(0.26458333,0,0,0.26458333,95.645592,139.23958)"><path
         d="M 35,70 C 54.33,70 70,54.33 70,35 70,15.67 54.33,0 35,0 15.67,0 0,15.67 0,35 0,54.33 15.67,70 35,70 Z"
         fill="#ffffff"
         id="path1" /></g><g
       style="fill:none"
       id="g2"
       transform="matrix(0.26458333,0,0,0.26458333,92.999759,136.59375)"><path
         opacity="0.5"
         d="M 45,89.5 C 69.5767,89.5 89.5,69.5767 89.5,45 89.5,20.4233 69.5767,0.5 45,0.5 20.4233,0.5 0.5,20.4233 0.5,45 0.5,69.5767 20.4233,89.5 45,89.5 Z"
         stroke="#ffffff"
         id="path1-6" /></g><g
       style="fill:none"
       id="g3"
       transform="matrix(0.26458333,0,0,0.26458333,90.353925,133.94792)"><path
         opacity="0.3"
         d="M 55,109.5 C 85.0995,109.5 109.5,85.0995 109.5,55 109.5,24.9005 85.0995,0.5 55,0.5 24.9005,0.5 0.5,24.9005 0.5,55 c 0,30.0995 24.4005,54.5 54.5,54.5 z"
         stroke="#ffffff"
         id="path1-2" /></g><g
       style="fill:none"
       id="g4"
       transform="matrix(0.26458333,0,0,0.26458333,103.02404,146.11927)"><path
         d="m 13.2859,7.30001 c 0.2877,0.17978 0.5249,0.42977 0.6893,0.72646 0.1645,0.29669 0.2508,0.63033 0.2508,0.96954 0,0.33921 -0.0863,0.67285 -0.2508,0.96954 -0.1644,0.29665 -0.4016,0.54665 -0.6893,0.72645 L 3.05995,17.088 C 2.75691,17.2774 2.40867,17.3822 2.05144,17.3914 1.69421,17.4006 1.34103,17.3139 1.02866,17.1403 0.716275,16.9668 0.456098,16.7127 0.275184,16.4045 0.0942698,16.0964 -7.71523e-4,15.7454 -5.53131e-5,15.388 V 2.60801 C -7.71523e-4,2.25066 0.0942698,1.89965 0.275184,1.59148 0.456098,1.28331 0.716275,1.02923 1.02866,0.85569 1.34103,0.682145 1.69421,0.595466 2.05144,0.604667 2.40867,0.613869 2.75691,0.718615 3.05995,0.908011 Z"
         fill="#d9c3a9"
         id="path1-3" /></g></g></svg>
