<svg width="47" height="47" viewBox="0 0 47 47" fill="none" xmlns="http://www.w3.org/2000/svg">
<path d="M42.3059 31.8124V6.11425C43.0704 5.54295 43.2274 4.45962 42.6566 3.6945C42.3291 3.25551 41.813 2.99784 41.2656 3.00001H1.73449C0.78037 2.99628 0.00387873 3.76729 0.000151015 4.72214C-0.00201626 5.27001 0.255456 5.78648 0.694113 6.11425V31.8124C-0.0704155 32.3837 -0.227413 33.467 0.343361 34.2321C0.670879 34.6711 1.18695 34.9288 1.7344 34.9266H10.2398L5.73814 39.4262C4.92533 40.2398 4.9255 41.5587 5.73849 42.3721C6.55148 43.1856 7.86935 43.1854 8.68217 42.3718L16.0336 35.0078C16.0546 34.9823 16.0736 34.9552 16.0904 34.9266H19.4194V41.1731C19.4194 42.3231 20.3509 43.2553 21.5 43.2553C22.649 43.2553 23.5805 42.3231 23.5805 41.1731V34.9266H26.9129C26.9286 34.955 26.9465 34.9822 26.9663 35.0078L34.3177 42.3718C35.1307 43.1852 36.4486 43.185 37.2614 42.3714C38.0742 41.5578 38.0741 40.2389 37.2611 39.4255L32.7601 34.9266H41.2655C42.2196 34.9304 42.9961 34.1594 42.9998 33.2045C43.002 32.6566 42.7445 32.1402 42.3059 31.8124ZM7.69883 41.3904C7.42342 41.6513 6.99221 41.6513 6.7168 41.3904C6.4458 41.1195 6.44554 40.68 6.71628 40.4088C6.71645 40.4086 6.71662 40.4085 6.7168 40.4083L12.2026 34.9266H14.1535L7.69883 41.3904ZM22.1936 41.1731C22.1936 41.5564 21.883 41.8672 21.5 41.8672C21.117 41.8672 20.8065 41.5564 20.8065 41.1731V34.9266H22.1936V41.1731ZM36.2812 40.4097C36.5524 40.6804 36.553 41.1199 36.2824 41.3913C36.282 41.3917 36.2816 41.3921 36.2812 41.3925C36.006 41.6533 35.5751 41.6533 35.2999 41.3925L28.8466 34.9266H30.7975L36.2812 40.4097ZM41.2656 33.5385H1.73449C1.54299 33.5385 1.38773 33.3831 1.38773 33.1915C1.38773 32.9998 1.54299 32.8445 1.73449 32.8445H41.2656C41.4571 32.8445 41.6124 32.9998 41.6124 33.1915C41.6124 33.3831 41.4571 33.5385 41.2656 33.5385ZM2.08126 31.4564V6.4703H40.9188V31.4564H2.08126ZM41.2656 5.08218H1.73449C1.54299 5.08218 1.38773 4.9268 1.38773 4.73516C1.38773 4.54351 1.54299 4.38813 1.73449 4.38813H41.2656C41.4571 4.38813 41.6124 4.54351 41.6124 4.73516C41.6124 4.9268 41.4571 5.08218 41.2656 5.08218Z" fill="#4F5955"/>
</svg>
