<?xml version="1.0" encoding="UTF-8" standalone="no"?>
<!-- Created with Inkscape (http://www.inkscape.org/) -->

<svg
   width="26.458317mm"
   height="26.458334mm"
   viewBox="0 0 26.458317 26.458334"
   version="1.1"
   id="svg1"
   xml:space="preserve"
   xmlns="http://www.w3.org/2000/svg"
   xmlns:svg="http://www.w3.org/2000/svg"><defs
     id="defs1"><clipPath
       id="clip0_243_30"><rect
         width="40"
         height="40"
         fill="#ffffff"
         id="rect22"
         x="0"
         y="0" /></clipPath></defs><g
     id="layer1"
     transform="translate(-91.785784,-135.27082)"><g
       style="fill:none"
       id="g1"
       transform="matrix(0.26458333,0,0,0.26458333,91.785795,135.27083)"><path
         d="m 97.9999,50 c 0,26.5097 -21.4903,48 -48,48 C 23.4903,98 1.99994,76.5097 1.99994,50 1.99994,23.4903 23.4903,2 49.9999,2 c 26.5097,0 48,21.4903 48,48 z"
         fill="#ffffff"
         stroke="#f2eddc"
         stroke-width="4"
         id="path1" /></g><g
       style="fill:none"
       id="g3"
       transform="matrix(0.26458333,0,0,0.26458333,99.723001,143.20833)"><g
         clip-path="url(#clip0_243_30)"
         id="g22"><path
           d="M 18.8302,5.1318 V 18.1873 L 10.6292,14.0869 0.00205994,19.3566 V 40.0054 H 40.0021 V 5.12914 L 29.3749,0 Z M 11.7989,37.6616 H 9.45518 v -2.3437 h 2.34372 z m 2.3438,0 V 32.9741 H 7.11143 v 4.6875 H 2.34581 V 20.8105 l 8.27909,-4.1053 8.2053,4.1026 v 16.8538 z m 16.4062,0 h -2.3437 v -2.3437 h 2.3437 z M 37.6583,6.60039 V 37.6616 h -4.7656 v -4.6875 h -7.0313 v 4.6875 H 21.1739 V 6.59773 l 8.2053,-3.9932 z"
           fill="#4f5955"
           id="path1-6" /><path
           d="m 23.5183,9.53668 h 2.3438 v 2.34372 h -2.3438 z"
           fill="#d9c3a9"
           id="path2-2" /><path
           d="m 32.8933,9.53668 h 2.3438 v 2.34372 h -2.3438 z"
           fill="#d9c3a9"
           id="path3-6" /><path
           d="m 28.2058,9.53668 h 2.3438 v 2.34372 h -2.3438 z"
           fill="#d9c3a9"
           id="path4-1" /><path
           d="m 23.5183,14.2242 h 2.3438 v 2.3437 h -2.3438 z"
           fill="#d9c3a9"
           id="path5-8" /><path
           d="m 28.2058,14.2242 h 2.3438 v 2.3437 h -2.3438 z"
           fill="#d9c3a9"
           id="path6" /><path
           d="m 32.8933,14.2242 h 2.3438 v 2.3437 h -2.3438 z"
           fill="#d9c3a9"
           id="path7" /><path
           d="m 23.5183,18.9117 h 2.3438 v 2.3437 h -2.3438 z"
           fill="#d9c3a9"
           id="path8" /><path
           d="m 32.8933,18.9117 h 2.3438 v 2.3437 h -2.3438 z"
           fill="#d9c3a9"
           id="path9" /><path
           d="m 28.2058,18.9117 h 2.3438 v 2.3437 h -2.3438 z"
           fill="#d9c3a9"
           id="path10" /><path
           d="m 23.5183,23.5992 h 2.3438 v 2.3437 h -2.3438 z"
           fill="#d9c3a9"
           id="path11" /><path
           d="m 28.2058,23.5992 h 2.3438 v 2.3437 h -2.3438 z"
           fill="#d9c3a9"
           id="path12" /><path
           d="m 32.8933,23.5992 h 2.3438 v 2.3437 h -2.3438 z"
           fill="#d9c3a9"
           id="path13" /><path
           d="m 23.5183,28.2867 h 2.3438 v 2.3437 h -2.3438 z"
           fill="#d9c3a9"
           id="path14" /><path
           d="m 32.8933,28.2867 h 2.3438 v 2.3437 h -2.3438 z"
           fill="#d9c3a9"
           id="path15" /><path
           d="m 28.2058,28.2867 h 2.3438 v 2.3437 h -2.3438 z"
           fill="#d9c3a9"
           id="path16" /><path
           d="m 4.76834,23.5992 h 2.34375 v 2.3437 H 4.76834 Z"
           fill="#d9c3a9"
           id="path17" /><path
           d="m 9.45584,23.5992 h 2.34376 v 2.3437 H 9.45584 Z"
           fill="#d9c3a9"
           id="path18" /><path
           d="m 14.1433,23.5992 h 2.3438 v 2.3437 h -2.3438 z"
           fill="#d9c3a9"
           id="path19" /><path
           d="m 4.76834,28.2867 h 2.34375 v 2.3437 H 4.76834 Z"
           fill="#d9c3a9"
           id="path20" /><path
           d="m 14.1433,28.2867 h 2.3438 v 2.3437 h -2.3438 z"
           fill="#d9c3a9"
           id="path21" /><path
           d="m 9.45584,28.2867 h 2.34376 v 2.3437 H 9.45584 Z"
           fill="#d9c3a9"
           id="path22" /></g></g></g></svg>
