<svg width="40" height="40" viewBox="0 0 40 40" fill="none" xmlns="http://www.w3.org/2000/svg">
<path d="M36.4844 7.03125C38.4229 7.03125 40 5.45414 40 3.51562C40 1.57711 38.4229 0 36.4844 0C34.5459 0 32.9688 1.57711 32.9688 3.51562C32.9688 4.05766 33.0923 4.57148 33.3123 5.03039L29.9475 8.39523C27.1645 5.99617 23.6745 4.6875 20 4.6875C16.3409 4.6875 12.8651 5.98555 10.088 8.36531L6.69117 5.02273C6.90898 4.5657 7.03125 4.05469 7.03125 3.51562C7.03125 1.57711 5.45414 0 3.51562 0C1.57711 0 0 1.57711 0 3.51562C0 5.45414 1.57711 7.03125 3.51562 7.03125C4.06063 7.03125 4.57711 6.90656 5.03797 6.6843L8.42539 10.0176C6.00719 12.8062 4.6875 16.3101 4.6875 20C4.6875 23.6899 6.00719 27.1938 8.42539 29.9824L5.03797 33.3157C4.57711 33.0934 4.06063 32.9688 3.51562 32.9688C1.57711 32.9688 0 34.5459 0 36.4844C0 38.4229 1.57711 40 3.51562 40C5.45414 40 7.03125 38.4229 7.03125 36.4844C7.03125 35.9453 6.90898 35.4343 6.69117 34.9773L10.088 31.6347C12.8651 34.0145 16.3409 35.3125 20 35.3125C23.6745 35.3125 27.1645 34.0038 29.9475 31.6048L33.3123 34.9696C33.0923 35.4285 32.9688 35.9423 32.9688 36.4844C32.9688 38.4229 34.5459 40 36.4844 40C38.4229 40 40 38.4229 40 36.4844C40 34.5459 38.4229 32.9688 36.4844 32.9688C35.9423 32.9688 35.4286 33.0923 34.9696 33.3123L31.6048 29.9475C34.0038 27.1646 35.3125 23.6745 35.3125 20C35.3125 16.3255 34.0038 12.8354 31.6048 10.0525L34.9696 6.68766C35.4286 6.90773 35.9423 7.03125 36.4844 7.03125ZM36.4844 2.34375C37.1305 2.34375 37.6562 2.86945 37.6562 3.51562C37.6562 4.1618 37.1305 4.6875 36.4844 4.6875C35.8382 4.6875 35.3125 4.1618 35.3125 3.51562C35.3125 2.86945 35.8382 2.34375 36.4844 2.34375ZM18.8281 11.6937C17.9575 11.659 17.0983 11.5852 16.2548 11.4739C16.931 10.3023 17.7934 9.18422 18.8281 8.21969V11.6937ZM18.8281 14.0406V18.8281H14.173C14.2752 16.9808 14.6227 15.2655 15.2112 13.6923C16.3906 13.8784 17.6004 13.9951 18.8281 14.0406ZM18.8281 21.1719V25.9594C17.6037 26.0048 16.3972 26.121 15.2209 26.3061C14.6802 24.8625 14.2869 23.1598 14.1743 21.1718H18.8281V21.1719ZM18.8281 28.3063V31.7822C18.038 31.0438 17.0951 29.9758 16.2623 28.5252C17.1034 28.4145 17.9601 28.3409 18.8281 28.3063ZM21.1719 28.3067C22.0382 28.3419 22.8985 28.4158 23.745 28.5265C23.0702 29.6956 22.2084 30.8141 21.1719 31.7804V28.3067ZM21.1719 25.9599V21.1719L25.827 21.1711C25.7248 23.0184 25.3773 24.7345 24.7887 26.3077C23.6047 26.1231 22.3921 26.0059 21.1719 25.9599ZM21.1719 18.8281V14.0401C22.3888 13.9942 23.5981 13.8773 24.7791 13.6937C25.3199 15.1373 25.7132 16.84 25.8257 18.828H21.1719V18.8281ZM21.1719 11.6933V8.21781C21.9619 8.95617 22.9048 10.0241 23.7375 11.4746C22.8934 11.5846 22.0356 11.6583 21.1719 11.6933ZM23.8472 7.61375C25.6512 8.17531 27.2872 9.12141 28.6598 10.355C27.8626 10.6242 27.0293 10.8558 26.1698 11.0477C25.512 9.75539 24.7342 8.62055 23.8472 7.61375ZM13.8335 11.0411C12.9831 10.8472 12.1566 10.6123 11.3594 10.338C12.728 9.11266 14.3571 8.17266 16.1528 7.61375C15.283 8.60102 14.5016 9.73008 13.8335 11.0411ZM9.64234 12.2047C10.6816 12.6112 11.7709 12.9534 12.8984 13.2289C12.3436 14.812 11.9374 16.6734 11.8275 18.8281H7.08477C7.30719 16.3566 8.22539 14.0827 9.64234 12.2047ZM11.8276 21.1719C11.9375 23.3266 12.3437 25.188 12.8985 26.7711C11.7709 27.0466 10.6816 27.3888 9.64242 27.7953C8.22547 25.9173 7.30727 23.6434 7.08484 21.1719H11.8276ZM13.8335 28.9589C14.5002 30.2673 15.2812 31.397 16.1528 32.3862C14.3571 31.8273 12.728 30.8873 11.3594 29.662C12.1566 29.3877 12.9831 29.1528 13.8335 28.9589ZM26.1698 28.9523C27.0292 29.1442 27.8626 29.3757 28.6598 29.6449C27.2873 30.8786 25.6512 31.8247 23.8472 32.3862C24.7323 31.3816 25.5107 30.2472 26.1698 28.9523ZM30.375 27.7727C29.3416 27.3741 28.2442 27.0365 27.1041 26.7636C27.6576 25.1821 28.0627 23.3224 28.1725 21.1711L32.9153 21.1719C32.6937 23.6334 31.7822 25.8991 30.375 27.7727ZM28.1724 18.8281C28.0627 16.6767 27.6576 14.8178 27.104 13.2364C28.2441 12.9635 29.3416 12.6259 30.3749 12.2273C31.7821 14.1009 32.6936 16.3666 32.9152 18.8281H28.1724ZM3.51562 4.6875C2.86945 4.6875 2.34375 4.1618 2.34375 3.51562C2.34375 2.86945 2.86945 2.34375 3.51562 2.34375C4.1618 2.34375 4.6875 2.86945 4.6875 3.51562C4.6875 4.1618 4.1618 4.6875 3.51562 4.6875ZM3.51562 37.6562C2.86945 37.6562 2.34375 37.1305 2.34375 36.4844C2.34375 35.8382 2.86945 35.3125 3.51562 35.3125C4.1618 35.3125 4.6875 35.8382 4.6875 36.4844C4.6875 37.1305 4.1618 37.6562 3.51562 37.6562ZM36.4844 35.3125C37.1305 35.3125 37.6562 35.8382 37.6562 36.4844C37.6562 37.1305 37.1305 37.6562 36.4844 37.6562C35.8382 37.6562 35.3125 37.1305 35.3125 36.4844C35.3125 35.8382 35.8382 35.3125 36.4844 35.3125Z" fill="#4F5955"/>
</svg>
