<svg width="40" height="40" viewBox="0 0 40 40" fill="none" xmlns="http://www.w3.org/2000/svg">
<g clip-path="url(#clip0_243_9)">
<path d="M7.42864 25.8592V35.3123H17.2739L19.7854 40.0005L38.278 32.4272L34.8232 24.4902C36.8105 21.8638 37.8974 18.6329 37.8974 15.3123C37.8974 12.4625 37.1157 9.71904 35.6289 7.31802L38.0133 4.93365L34.4893 3.47451L32.9997 0.00411799L30.659 2.34482C28.0891 0.737477 25.3056 -0.014007 22.5785 -0.000178887C13.7971 0.0477117 7.42864 7.47256 7.42864 15.7954V17.3013L1.72333 25.8592H7.42864ZM32.2107 4.10779L32.7117 5.27513L33.8754 5.75693L33.5452 6.08709L31.4761 6.49935L31.8882 4.43021L32.2107 4.10779ZM28.5224 15.3123C28.5224 18.5432 25.8939 21.1717 22.663 21.1717C19.4322 21.1717 16.8036 18.5432 16.8036 15.3123C16.8036 12.0815 19.4322 9.45295 22.663 9.45295C23.8555 9.45295 24.9654 9.81185 25.8919 10.4262L24.1779 12.1403C23.7189 11.9202 23.2051 11.7967 22.663 11.7967C20.7245 11.7967 19.1474 13.3738 19.1474 15.3123C19.1474 17.2508 20.7245 18.8279 22.663 18.8279C24.6015 18.8279 26.1786 17.2508 26.1786 15.3123C26.1786 14.7703 26.0551 14.2565 25.8351 13.7976L27.5492 12.0835C28.1634 13.01 28.5224 14.1198 28.5224 15.3123ZM23.8349 15.3123C23.8349 15.9585 23.3092 16.4842 22.663 16.4842C22.0168 16.4842 21.4911 15.9585 21.4911 15.3123C21.4911 14.6661 22.0168 14.1404 22.663 14.1404C23.3092 14.1404 23.8349 14.6661 23.8349 15.3123ZM9.77239 18.0109V15.7954C9.77239 8.41662 15.5229 2.38216 22.5913 2.34357C25.0042 2.33217 27.3788 3.03576 29.5067 4.38873L28.9039 7.4142L27.5731 8.74498C26.2032 7.7181 24.5029 7.1092 22.663 7.1092C18.1398 7.1092 14.4599 10.7891 14.4599 15.3123C14.4599 19.8355 18.1398 23.5154 22.663 23.5154C27.1862 23.5154 30.8661 19.8355 30.8661 15.3123C30.8661 13.4724 30.2572 11.7722 29.2304 10.4022L30.5611 9.07146L33.585 8.46904C34.8751 10.519 35.5536 12.8694 35.5536 15.3124C35.5536 20.708 32.2683 23.8405 32.1041 24.1159L35.1729 31.1662L20.8531 37.0305L18.6771 32.9686H9.77239V23.5155H6.1027L9.77239 18.0109Z" fill="#4F5955"/>
</g>
<defs>
<clipPath id="clip0_243_9">
<rect width="40" height="40" fill="white"/>
</clipPath>
</defs>
</svg>
