<svg width="40" height="40" viewBox="0 0 40 40" fill="none" xmlns="http://www.w3.org/2000/svg">
<path d="M23.5156 18.8281H30.5469V21.1719H23.5156V18.8281Z" fill="#4F5955"/>
<path d="M12.9688 16.4845C12.3226 16.4845 11.7969 15.9588 11.7969 15.3126H9.45312C9.45312 16.8402 10.4329 18.1428 11.7969 18.6266V21.1719H14.1406V18.6266C15.5046 18.1429 16.4844 16.8403 16.4844 15.3126C16.4844 13.3741 14.9073 11.797 12.9688 11.797C12.3226 11.797 11.7969 11.2713 11.7969 10.6251C11.7969 9.97891 12.3226 9.4532 12.9688 9.4532C13.6149 9.4532 14.1406 9.97891 14.1406 10.625H16.4844C16.4844 9.09734 15.5045 7.79477 14.1406 7.31109V4.76562H11.7969V7.31109C10.433 7.79484 9.45312 9.09742 9.45312 10.6251C9.45312 12.5636 11.0302 14.1407 12.9688 14.1407C13.6149 14.1407 14.1406 14.6664 14.1406 15.3126C14.1406 15.9588 13.6149 16.4845 12.9688 16.4845Z" fill="#4F5955"/>
<path d="M35.2344 10.1424L25.1758 0H4.76562V40H35.2344V10.1424ZM25.8594 4.01773L31.2498 9.45312H25.8594V4.01773ZM7.10938 37.6562V2.34375H23.5156V11.7969H32.8906V37.6562H7.10938Z" fill="#4F5955"/>
<path d="M9.45312 23.5156H30.5469V25.8594H9.45312V23.5156Z" fill="#4F5955"/>
<path d="M9.45312 28.2031H30.5469V30.5469H9.45312V28.2031Z" fill="#4F5955"/>
<path d="M9.45312 32.8906H30.5469V35.2344H9.45312V32.8906Z" fill="#4F5955"/>
<path d="M18.8281 18.8281H21.1719V21.1719H18.8281V18.8281Z" fill="#4F5955"/>
</svg>
