<svg width="16" height="16" viewBox="0 0 16 16" fill="none" xmlns="http://www.w3.org/2000/svg">
<path fill-rule="evenodd" clip-rule="evenodd" d="M2.00008 7.33333V12.6667H14.0001V7.33333H2.00008ZM2.00008 6H14.0001V4.66667L7.99651 4.66666C7.51774 4.66409 7.20588 4.43994 6.87064 4.02436C6.82437 3.967 6.67733 3.77627 6.65448 3.74744C6.40476 3.43238 6.25624 3.33333 6.00008 3.33333H2.00008V6ZM14.0001 3.33333C14.7365 3.33333 15.3334 3.93029 15.3334 4.66667V12.6667C15.3334 13.403 14.7365 14 14.0001 14H2.00008C1.2637 14 0.666748 13.403 0.666748 12.6667V3.33333C0.666748 2.59695 1.2637 2 2.00008 2H6.00008C6.74675 2 7.22204 2.31697 7.6994 2.91924C7.73125 2.95942 7.87348 3.14392 7.9084 3.18721C8.01323 3.31716 8.0346 3.33315 8.00127 3.33333H14.0001Z" fill="#9C9EA6"/>
</svg>
