<svg width="170" height="61" viewBox="0 0 170 61" fill="none" xmlns="http://www.w3.org/2000/svg">
<path d="M29.7432 38.4692C29.4561 38.2266 29.0844 38.1081 28.7099 38.1396C28.3354 38.1711 27.9888 38.3501 27.7462 38.6372C27.5037 38.9243 27.3851 39.296 27.4166 39.6705C27.4481 40.045 27.6271 40.3916 27.9142 40.6342L39.7592 50.6432V56.4932C37.4994 56.3753 35.285 55.8126 33.2429 54.8374C31.2009 53.8622 29.3714 52.4937 27.8592 50.8102C21.0052 42.8252 24.1882 31.3512 28.0652 23.1322C30.4159 18.5486 33.236 14.2214 36.4802 10.2202C36.7124 9.92458 36.8177 9.54886 36.7729 9.17566C36.7281 8.80247 36.5368 8.46236 36.2412 8.23016C35.9457 7.99796 35.5699 7.8927 35.1967 7.93752C34.8235 7.98234 34.4834 8.17357 34.2512 8.46916C30.8751 12.6374 27.9429 17.1465 25.5022 21.9232C19.4292 34.7972 19.5022 45.4232 25.7082 52.6562C27.6336 54.801 29.9942 56.5108 32.6324 57.6715C35.2707 58.8321 38.1261 59.417 41.0082 59.3872H41.0222C41.4265 59.3738 41.811 59.2095 42.1001 58.9267C42.3892 58.6438 42.5619 58.263 42.5842 57.8592V49.9902C42.5844 49.7843 42.5398 49.5809 42.4534 49.3941C42.3671 49.2072 42.2411 49.0414 42.0842 48.9082L29.7432 38.4692Z" fill="#B9B9B9"/>
<path d="M51.3962 29.5542L41.1962 37.8012L30.9082 29.3262C30.7655 29.2007 30.5991 29.1052 30.4188 29.0454C30.2385 28.9855 30.048 28.9625 29.8586 28.9778C29.6692 28.9931 29.4849 29.0462 29.3165 29.1342C29.1481 29.2221 28.9991 29.3431 28.8784 29.4897C28.7576 29.6364 28.6676 29.8059 28.6137 29.9881C28.5598 30.1702 28.543 30.3614 28.5645 30.5502C28.5859 30.7389 28.6451 30.9215 28.7385 31.0869C28.8319 31.2523 28.9577 31.3973 29.1082 31.5132C29.2662 31.6432 40.2082 40.6652 40.3752 40.7822C40.626 40.9618 40.9288 41.0543 41.2372 41.0452C41.5455 41.0362 41.8424 40.9262 42.0822 40.7322L53.1822 31.7572C53.3362 31.6435 53.4655 31.4997 53.5624 31.3346C53.6593 31.1696 53.7218 30.9866 53.746 30.7967C53.7702 30.6068 53.7558 30.414 53.7034 30.2299C53.6511 30.0458 53.562 29.8742 53.4415 29.7254C53.321 29.5767 53.1717 29.4539 53.0024 29.3645C52.8332 29.275 52.6476 29.2208 52.4568 29.2051C52.2661 29.1894 52.0741 29.2125 51.8925 29.273C51.7109 29.3335 51.5434 29.4301 51.4002 29.5572L51.3962 29.5542Z" fill="#B9B9B9"/>
<path d="M33.8512 21.6352C33.5675 21.3888 33.1974 21.2652 32.8225 21.2917C32.4476 21.3181 32.0986 21.4924 31.8523 21.7762C31.6059 22.0599 31.4823 22.43 31.5087 22.8049C31.5352 23.1798 31.7095 23.5288 31.9932 23.7752L35.3783 26.7142C35.662 26.9606 36.0321 27.0841 36.4069 27.0577C36.7818 27.0312 37.1309 26.8569 37.3772 26.5732C37.6236 26.2894 37.7472 25.9193 37.7208 25.5445C37.6943 25.1696 37.52 24.8206 37.2363 24.5742L33.8512 21.6352Z" fill="#B9B9B9"/>
<path d="M45.1192 47.1522C45.237 47.2962 45.382 47.4157 45.546 47.5037C45.7099 47.5917 45.8896 47.6466 46.0748 47.6652C46.26 47.6837 46.447 47.6656 46.6252 47.6119C46.8033 47.5582 46.9692 47.47 47.1132 47.3521L55.2312 40.7271C55.3757 40.6095 55.4956 40.4645 55.584 40.3005C55.6724 40.1366 55.7277 39.9567 55.7466 39.7714C55.7656 39.5861 55.7478 39.3988 55.6944 39.2203C55.641 39.0418 55.5529 38.8756 55.4352 38.7312C55.3176 38.5867 55.1726 38.4668 55.0086 38.3784C54.8446 38.29 54.6648 38.2347 54.4795 38.2158C54.2941 38.1968 54.1069 38.2146 53.9284 38.268C53.7499 38.3214 53.5837 38.4095 53.4392 38.5272L45.3212 45.1522C45.1761 45.2699 45.0558 45.4151 44.967 45.5795C44.8783 45.7439 44.823 45.9242 44.8042 46.1101C44.7854 46.296 44.8036 46.4838 44.8577 46.6626C44.9117 46.8414 45.0006 47.0078 45.1192 47.1522Z" fill="#B9B9B9"/>
<path d="M56.8712 21.9192C53.0352 13.7882 44.2443 3.90316 42.2863 1.51116C42.0925 1.2781 41.8291 1.11329 41.5348 1.04095C41.2405 0.968616 40.9307 0.992548 40.651 1.10925C40.3713 1.22594 40.1364 1.42925 39.9807 1.68932C39.8251 1.94938 39.7569 2.2525 39.7863 2.55416C39.7493 2.77316 39.7622 1.20016 39.7622 29.4112C39.7733 29.6858 39.86 29.9521 40.0128 30.1806C40.1655 30.4091 40.3785 30.591 40.6281 30.7061C40.8778 30.8213 41.1543 30.8652 41.4273 30.8331C41.7003 30.801 41.9591 30.6941 42.1752 30.5242L50.5753 23.8962C50.7213 23.7809 50.8433 23.6379 50.9341 23.4755C51.025 23.313 51.083 23.1343 51.1047 22.9495C51.1265 22.7646 51.1117 22.5773 51.0611 22.3982C51.0104 22.2191 50.925 22.0518 50.8097 21.9057C50.6945 21.7596 50.5515 21.6376 50.3891 21.5468C50.2266 21.4559 50.0479 21.3979 49.8631 21.3762C49.6782 21.3544 49.4909 21.3692 49.3118 21.4198C49.1327 21.4705 48.9653 21.5559 48.8192 21.6712L42.6002 26.5802V6.28016C45.9852 10.3332 51.5583 17.2802 54.3162 23.1262C58.1932 31.3452 61.3772 42.8192 54.5222 50.8042C52.5007 53.3714 49.684 55.1947 46.5142 55.9882C46.3317 56.031 46.1594 56.1096 46.0075 56.2195C45.8555 56.3293 45.7269 56.4683 45.629 56.6282C45.5312 56.7882 45.466 56.966 45.4374 57.1513C45.4087 57.3366 45.4172 57.5257 45.4622 57.7078C45.5072 57.8898 45.5878 58.0611 45.6995 58.2117C45.8112 58.3623 45.9516 58.4893 46.1128 58.5852C46.2739 58.6812 46.4524 58.7442 46.6381 58.7706C46.8237 58.797 47.0128 58.7863 47.1942 58.7392C50.9363 57.805 54.267 55.6653 56.6722 52.6502C62.8772 45.4192 62.9452 34.7922 56.8712 21.9192Z" fill="#B9B9B9"/>
<path d="M73.5842 26.6341C73.588 26.4376 73.5427 26.2432 73.4524 26.0686C73.3622 25.894 73.2298 25.7447 73.0672 25.6341C72.6626 25.3653 72.1824 25.2332 71.6972 25.2571C71.2508 25.233 70.8063 25.3308 70.4112 25.5401C70.2694 25.6168 70.1513 25.7309 70.0699 25.87C69.9884 26.0091 69.9467 26.1679 69.9492 26.3291C69.9492 26.5671 70.1246 26.7721 70.4752 26.9441C71.0678 27.1861 71.6827 27.369 72.3112 27.4901C73.5503 27.6841 74.7394 28.1189 75.8112 28.7701C76.1203 29.0385 76.3617 29.3762 76.5157 29.7555C76.6696 30.1348 76.7318 30.5452 76.6972 30.9531C76.7085 31.4516 76.5973 31.9453 76.3732 32.3908C76.1492 32.8363 75.8192 33.22 75.4122 33.5081C74.4191 34.194 73.2278 34.5342 72.0222 34.4761C70.6761 34.5592 69.337 34.2265 68.1862 33.5231C67.7429 33.2078 67.3814 32.7911 67.132 32.3076C66.8825 31.8242 66.7523 31.2881 66.7522 30.7441H69.6522C69.656 30.9782 69.7184 31.2075 69.8337 31.4112C69.949 31.6149 70.1135 31.7864 70.3122 31.9101C70.8287 32.2166 71.4244 32.3635 72.0242 32.3321C72.4875 32.3567 72.9488 32.2555 73.3592 32.0391C73.5071 31.9601 73.6303 31.8419 73.7153 31.6974C73.8004 31.5529 73.8439 31.3877 73.8412 31.2201C73.8295 31.0828 73.7797 30.9516 73.6973 30.8412C73.615 30.7307 73.5034 30.6455 73.3752 30.5951C72.8515 30.3614 72.3015 30.1915 71.7372 30.0891C70.4479 29.8811 69.2071 29.4406 68.0752 28.7891C67.7609 28.5431 67.5122 28.2232 67.3514 27.8579C67.1905 27.4925 67.1225 27.0931 67.1532 26.6951C67.1384 26.1991 67.239 25.7065 67.4473 25.2561C67.6556 24.8058 67.9657 24.41 68.3532 24.1001C69.253 23.4081 70.3694 23.0583 71.5032 23.1131C72.7595 23.0529 74.0028 23.3914 75.0552 24.0801C75.4771 24.3579 75.8221 24.7377 76.0581 25.1844C76.2941 25.631 76.4135 26.13 76.4052 26.6351L73.5842 26.6341Z" fill="#B9B9B9"/>
<path d="M78.8552 19.4981H81.7552V22.1381H78.8552V19.4981ZM78.8852 23.3981H81.7332V34.1981H78.8852V23.3981Z" fill="#B9B9B9"/>
<path d="M84.4022 23.3991H87.1112V25.1361C87.3659 24.5044 87.8131 23.9689 88.3893 23.6056C88.9654 23.2423 89.6414 23.0696 90.3212 23.1121C90.7569 23.0979 91.1906 23.1764 91.5937 23.3424C91.9967 23.5085 92.3599 23.7582 92.6592 24.0751C92.8922 24.3125 93.0833 24.5878 93.2242 24.8891L93.5722 24.3231C93.8669 23.9233 94.2565 23.6032 94.7059 23.3918C95.1553 23.1803 95.6503 23.0842 96.1462 23.1121C96.6525 23.0835 97.1591 23.1614 97.6333 23.3409C98.1075 23.5204 98.5388 23.7975 98.8992 24.1541C99.5983 24.9481 99.9555 25.9861 99.8932 27.0421V34.1971H97.0452V27.8561C97.0893 27.2329 96.9502 26.6104 96.6452 26.0651C96.5067 25.8705 96.3204 25.7149 96.1043 25.6131C95.8881 25.5113 95.6495 25.4669 95.4112 25.4841C95.1565 25.4673 94.9012 25.5082 94.6643 25.6035C94.4275 25.6989 94.2152 25.8464 94.0432 26.0351C93.7003 26.4887 93.5324 27.0507 93.5702 27.6181V34.1971H90.7222V27.3881C90.7637 26.8737 90.6158 26.362 90.3062 25.9491C89.9418 25.6334 89.4717 25.4667 88.9898 25.4822C88.5079 25.4978 88.0495 25.6945 87.7062 26.0331C87.3715 26.4903 87.2086 27.0508 87.2462 27.6161V34.1951H84.4022V23.3991Z" fill="#B9B9B9"/>
<path d="M102.433 23.3991H105.142V24.9991L105.331 24.7311C105.66 24.2269 106.11 23.8141 106.641 23.5313C107.173 23.2486 107.767 23.105 108.368 23.1141C108.998 23.0931 109.625 23.2194 110.198 23.4829C110.771 23.7464 111.274 24.1399 111.668 24.6321C112.542 25.7769 112.983 27.1937 112.913 28.6321C112.987 30.1443 112.548 31.637 111.668 32.8691C111.288 33.383 110.79 33.7976 110.215 34.0775C109.641 34.3575 109.007 34.4946 108.368 34.4771C107.779 34.4905 107.196 34.3602 106.668 34.0975C106.141 33.8347 105.685 33.4474 105.341 32.9691L105.281 32.8901V38.4271H102.433V23.3991ZM107.554 32.1321C107.9 32.1464 108.243 32.0756 108.555 31.926C108.866 31.7764 109.136 31.5525 109.341 31.2741C109.809 30.5695 110.036 29.7317 109.986 28.8871C110.036 28.0278 109.812 27.1749 109.346 26.4511C109.137 26.176 108.866 25.9534 108.556 25.801C108.246 25.6486 107.904 25.5705 107.558 25.5729C107.213 25.5753 106.872 25.6582 106.564 25.815C106.256 25.9717 105.989 26.1981 105.783 26.4761C105.316 27.2269 105.092 28.1041 105.143 28.9871C105.095 29.8073 105.32 30.6204 105.783 31.2991C105.989 31.5707 106.258 31.7884 106.566 31.9335C106.875 32.0785 107.214 32.1467 107.554 32.1321Z" fill="#B9B9B9"/>
<path d="M114.987 19.6081H117.835V34.1951H114.987V19.6081Z" fill="#B9B9B9"/>
<path d="M124.831 34.4741C124.125 34.5177 123.418 34.4042 122.761 34.1417C122.104 33.8792 121.513 33.4743 121.031 32.9561C120.069 31.7269 119.594 30.1865 119.696 28.6291C119.609 27.153 120.096 25.7003 121.055 24.5751C121.543 24.0763 122.132 23.6876 122.782 23.4351C123.433 23.1826 124.13 23.0722 124.826 23.1111C125.531 23.0671 126.237 23.1779 126.895 23.4358C127.552 23.6937 128.145 24.0925 128.632 24.6041C129.591 25.8056 130.067 27.322 129.967 28.8561C129.98 29.0723 129.964 29.2893 129.918 29.5011H122.568C122.579 30.179 122.775 30.841 123.134 31.4161C123.377 31.6978 123.684 31.917 124.03 32.0551C124.375 32.1933 124.749 32.2465 125.119 32.2101C125.547 32.2121 125.966 32.0841 126.319 31.8431C126.482 31.7473 126.625 31.6198 126.738 31.4682C126.852 31.3165 126.934 31.1438 126.979 30.9601H129.879C129.668 32.0078 129.059 32.9327 128.179 33.5401C127.188 34.1929 126.017 34.5195 124.831 34.4741ZM127.004 27.6861C126.975 27.1423 126.796 26.6172 126.488 26.1681C126.285 25.9187 126.024 25.7226 125.727 25.5965C125.431 25.4703 125.109 25.418 124.788 25.4441C124.46 25.4274 124.132 25.4963 123.838 25.6441C123.544 25.7918 123.294 26.0134 123.111 26.2871C122.847 26.7142 122.671 27.1904 122.595 27.6871L127.004 27.6861Z" fill="#B9B9B9"/>
<path d="M134.447 34.4741C133.562 34.5154 132.696 34.2072 132.036 33.6161C131.732 33.3262 131.494 32.9749 131.336 32.5855C131.179 32.1962 131.106 31.7777 131.123 31.3581C131.08 30.4921 131.376 29.6433 131.947 28.9911C132.594 28.352 133.442 27.9575 134.347 27.8751L136.223 27.6171C136.646 27.5698 137.058 27.4558 137.444 27.2791C137.592 27.2036 137.707 27.0766 137.767 26.9221C137.842 26.7575 137.871 26.5758 137.851 26.3961C137.834 26.249 137.782 26.108 137.701 25.9839C137.62 25.8599 137.512 25.7563 137.384 25.6811C136.955 25.4508 136.47 25.3442 135.984 25.3731C135.526 25.3463 135.074 25.4886 134.714 25.7731C134.559 25.9151 134.435 26.0884 134.351 26.2816C134.268 26.4748 134.226 26.6835 134.228 26.8941H131.499C131.489 26.3548 131.6 25.8201 131.823 25.329C132.046 24.8379 132.376 24.403 132.789 24.0561C133.826 23.3587 135.066 23.0269 136.312 23.1131C137.436 23.0512 138.55 23.3486 139.493 23.9621C139.866 24.2207 140.167 24.5683 140.371 24.9733C140.575 25.3784 140.674 25.828 140.659 26.2811V32.3201C140.64 32.6637 140.68 33.0081 140.778 33.3381C140.871 33.5477 141.042 33.7132 141.254 33.8001V34.2001H138.178V34.1901C138.056 33.7721 137.973 33.3435 137.93 32.9101L137.92 32.8901C137.501 33.4018 136.97 33.8107 136.368 34.0853C135.766 34.3598 135.109 34.4928 134.447 34.4741ZM137.871 28.9661C137.459 29.1797 137.018 29.3304 136.561 29.4131L135.509 29.6131C135.09 29.6696 134.697 29.8472 134.378 30.1241C134.252 30.2446 134.152 30.3903 134.085 30.5519C134.018 30.7135 133.986 30.8873 133.991 31.0621C133.97 31.4319 134.094 31.7952 134.338 32.0741C134.466 32.2002 134.618 32.2981 134.786 32.3613C134.953 32.4245 135.132 32.4517 135.311 32.4411C135.724 32.4576 136.136 32.3794 136.514 32.2125C136.893 32.0456 137.228 31.7944 137.494 31.4781C137.62 31.3125 137.711 31.1235 137.762 30.9221C137.833 30.6906 137.87 30.4501 137.871 30.2081V28.9661Z" fill="#B9B9B9"/>
<path d="M146.464 25.3931V34.1931H143.616V25.3931H142.038V23.3981H143.616V22.4981C143.583 22.0745 143.639 21.6485 143.782 21.2483C143.925 20.848 144.151 20.4826 144.445 20.1761C145.158 19.6133 146.056 19.3404 146.961 19.4121C147.409 19.4023 147.857 19.4254 148.301 19.4811V21.7541H147.401C147.267 21.7361 147.131 21.7471 147.002 21.7864C146.873 21.8258 146.753 21.8925 146.652 21.9821C146.498 22.2675 146.434 22.5927 146.468 22.9151V23.4011H148.304V25.3961L146.464 25.3931Z" fill="#B9B9B9"/>
<path d="M78.7972 42.9452H79.5412V49.0232H78.7972V42.9452Z" fill="#B9B9B9"/>
<path d="M81.9493 42.9452H82.7102V43.7892H81.9493V42.9452ZM81.9572 44.5992H82.7012V49.0232H81.9572V44.5992Z" fill="#B9B9B9"/>
<path d="M85.0842 44.5992H85.7912V45.2522L85.9562 45.0332C86.142 44.7592 86.4131 44.5544 86.7274 44.4506C87.0417 44.3468 87.3815 44.3498 87.6939 44.4593C88.0062 44.5687 88.2736 44.7784 88.4544 45.0557C88.6352 45.333 88.7191 45.6622 88.6932 45.9922V49.0232H87.9493V46.2442C87.9758 45.9458 87.8961 45.6476 87.7243 45.4022C87.6285 45.3089 87.5137 45.2375 87.3876 45.193C87.2616 45.1484 87.1273 45.1318 86.9942 45.1442C86.8299 45.1383 86.6667 45.1723 86.5183 45.2432C86.37 45.314 86.241 45.4197 86.1423 45.5512C85.918 45.8727 85.8075 46.2598 85.8283 46.6512V49.0202H85.0842V44.5992Z" fill="#B9B9B9"/>
<path d="M92.8663 49.1432C92.5914 49.1568 92.3168 49.1102 92.0618 49.0065C91.8069 48.9029 91.5777 48.7447 91.3902 48.5432C91.0097 48.0821 90.8179 47.494 90.8533 46.8972C90.819 46.2557 91.021 45.6238 91.4213 45.1212C91.6099 44.9033 91.8452 44.7308 92.1098 44.6165C92.3744 44.5022 92.6613 44.4491 92.9492 44.4612C93.2166 44.4533 93.4821 44.5073 93.725 44.6192C93.9679 44.7312 94.1816 44.8978 94.3493 45.1062C94.7235 45.5914 94.9125 46.1942 94.8823 46.8062L94.8733 47.0712H91.6413C91.6448 47.429 91.7488 47.7786 91.9412 48.0802C92.0598 48.2259 92.2121 48.3405 92.385 48.414C92.5579 48.4876 92.746 48.5178 92.9332 48.5022C93.2011 48.5075 93.463 48.423 93.6772 48.2622C93.881 48.116 94.0204 47.8967 94.0662 47.6502H94.8022C94.7214 48.0872 94.4869 48.4809 94.1413 48.7602C93.7713 49.0274 93.3222 49.1623 92.8663 49.1432ZM94.1082 46.4722C94.1084 46.1285 94.0014 45.7933 93.8022 45.5132C93.6952 45.3845 93.5592 45.2829 93.4054 45.2167C93.2516 45.1505 93.0844 45.1215 92.9173 45.1322C92.7373 45.126 92.5584 45.1625 92.3952 45.2386C92.232 45.3147 92.0892 45.4283 91.9783 45.5702C91.7811 45.8311 91.6647 46.1439 91.6432 46.4702L94.1082 46.4722Z" fill="#B9B9B9"/>
<path d="M98.2092 49.1432C97.8345 49.1632 97.4663 49.039 97.1803 48.7962C97.0527 48.6765 96.9527 48.5306 96.8871 48.3685C96.8215 48.2063 96.7918 48.0319 96.8002 47.8572C96.7915 47.6833 96.8188 47.5095 96.8802 47.3465C96.9416 47.1836 97.0359 47.0351 97.1572 46.9102C97.4475 46.6533 97.8145 46.4993 98.2013 46.4722L99.2143 46.3442C99.2939 46.3366 99.3727 46.3229 99.4502 46.3032C99.5403 46.2824 99.6195 46.2294 99.6732 46.1542C99.7279 46.071 99.7552 45.9727 99.7512 45.8732V45.8332C99.7555 45.7256 99.7332 45.6185 99.6863 45.5216C99.6394 45.4246 99.5693 45.3407 99.4823 45.2772C99.2606 45.1316 98.9979 45.0615 98.7332 45.0772C98.4764 45.062 98.2223 45.1374 98.0152 45.2902C97.8323 45.453 97.7204 45.6809 97.7032 45.9252H97.0172C97.0198 45.7168 97.067 45.5114 97.1554 45.3227C97.2439 45.134 97.3717 44.9664 97.5302 44.8312C97.9145 44.5639 98.3781 44.4348 98.8452 44.4652C99.2827 44.4351 99.717 44.5585 100.073 44.8142C100.217 44.9405 100.33 45.0981 100.403 45.275C100.476 45.4519 100.508 45.6432 100.495 45.8342V48.2652C100.494 48.2982 100.499 48.3312 100.511 48.3622C100.522 48.3932 100.54 48.4214 100.563 48.4452C100.588 48.4685 100.617 48.4865 100.648 48.4982C100.68 48.5098 100.714 48.515 100.747 48.5132C100.781 48.5125 100.814 48.5098 100.847 48.5052C100.89 48.4992 100.936 48.4912 100.986 48.4802V49.0172C100.913 49.0455 100.837 49.0676 100.759 49.0832C100.694 49.0981 100.627 49.1065 100.559 49.1082C100.446 49.1186 100.333 49.1033 100.227 49.0632C100.121 49.0232 100.025 48.9596 99.9473 48.8772C99.8534 48.7492 99.7923 48.6002 99.7692 48.4432C99.7118 48.5152 99.6482 48.5821 99.5792 48.6432C99.2032 48.9788 98.713 49.1577 98.2092 49.1432ZM99.7512 46.7902C99.6061 46.8588 99.4513 46.905 99.2923 46.9272L98.6102 47.0272C98.3326 47.0496 98.0638 47.1351 97.8242 47.2772C97.7459 47.3292 97.682 47.4002 97.6386 47.4837C97.5952 47.5671 97.5738 47.6602 97.5763 47.7542C97.5691 47.8583 97.5831 47.9627 97.6175 48.0612C97.6519 48.1597 97.7059 48.2502 97.7762 48.3272C97.8538 48.3973 97.9447 48.4511 98.0435 48.4855C98.1422 48.5198 98.2469 48.534 98.3512 48.5272C98.7086 48.5383 99.0589 48.4259 99.3432 48.2092C99.5124 48.0823 99.6404 47.9084 99.7112 47.7092C99.7253 47.6535 99.7337 47.5966 99.7363 47.5392C99.7458 47.4502 99.7508 47.3607 99.7512 47.2712V46.7902Z" fill="#B9B9B9"/>
<path d="M103.126 44.5992H103.833V45.3552C103.892 45.2431 103.959 45.1355 104.033 45.0332C104.147 44.8609 104.3 44.7192 104.481 44.6204C104.663 44.5217 104.865 44.4691 105.071 44.4672C105.143 44.4676 105.215 44.4801 105.282 44.5042V45.2652H105.129C104.957 45.255 104.785 45.282 104.624 45.3445C104.463 45.407 104.317 45.5034 104.197 45.6272C103.961 45.917 103.844 46.2853 103.868 46.6582V49.0272H103.124L103.126 44.5992Z" fill="#B9B9B9"/>
<path d="M108.738 49.0192C108.555 49.051 108.37 49.0704 108.184 49.0772C108.061 49.09 107.936 49.0776 107.818 49.0406C107.699 49.0036 107.589 48.9429 107.495 48.8622C107.34 48.6483 107.269 48.385 107.295 48.1222V45.2072H106.683V44.5992H107.295V43.3582H108.039V44.5992H108.739V45.2072H108.039V48.1222C108.038 48.1682 108.048 48.214 108.068 48.2552C108.089 48.2964 108.119 48.3318 108.157 48.3582C108.251 48.4203 108.361 48.4508 108.473 48.4452H108.738V49.0192Z" fill="#B9B9B9"/>
<path d="M116.895 45.8812C116.89 45.7699 116.86 45.6612 116.808 45.5626C116.756 45.464 116.684 45.3779 116.595 45.3102C116.384 45.1663 116.132 45.096 115.877 45.1102C115.632 45.0947 115.387 45.1506 115.172 45.2712C115.094 45.3217 115.031 45.3917 114.988 45.4744C114.946 45.557 114.926 45.6494 114.93 45.7422C114.926 45.8109 114.94 45.8795 114.969 45.9416C114.999 46.0037 115.044 46.0572 115.1 46.0972C115.31 46.2138 115.538 46.295 115.774 46.3372L116.543 46.5192C116.884 46.5798 117.202 46.7296 117.465 46.9532C117.56 47.0555 117.634 47.1761 117.681 47.3076C117.728 47.4391 117.748 47.5788 117.739 47.7182C117.747 47.9168 117.708 48.1146 117.626 48.2955C117.544 48.4765 117.42 48.6356 117.265 48.7602C116.896 49.0333 116.444 49.169 115.985 49.1442C115.492 49.1814 115.001 49.051 114.591 48.7742C114.428 48.6276 114.299 48.4479 114.211 48.2472C114.123 48.0464 114.079 47.8292 114.082 47.6102H114.798C114.803 47.7407 114.836 47.8688 114.893 47.9862C114.95 48.1037 115.031 48.2079 115.131 48.2922C115.386 48.4515 115.685 48.5254 115.985 48.5032C116.252 48.5212 116.518 48.4547 116.744 48.3132C116.83 48.2494 116.898 48.1654 116.943 48.0688C116.989 47.9721 117.009 47.8657 117.003 47.7592C117.007 47.6911 116.994 47.6231 116.964 47.5617C116.935 47.5003 116.89 47.4474 116.834 47.4082C116.622 47.2912 116.391 47.2102 116.152 47.1682L115.383 46.9862C115.055 46.9299 114.747 46.7854 114.494 46.5682C114.402 46.4687 114.331 46.3514 114.285 46.2235C114.24 46.0955 114.221 45.9597 114.229 45.8242C114.222 45.6359 114.258 45.4484 114.335 45.2764C114.412 45.1044 114.528 44.9527 114.673 44.8332C115.019 44.5733 115.446 44.4438 115.878 44.4672C116.32 44.4436 116.755 44.5767 117.108 44.8432C117.26 44.9701 117.383 45.1288 117.467 45.3082C117.551 45.4875 117.594 45.6831 117.594 45.8812H116.895Z" fill="#B9B9B9"/>
<path d="M121.487 49.0192C121.304 49.051 121.119 49.0704 120.933 49.0772C120.81 49.0901 120.685 49.0777 120.567 49.0407C120.448 49.0037 120.338 48.943 120.244 48.8622C120.089 48.6483 120.018 48.385 120.044 48.1222V45.2072H119.432V44.5992H120.044V43.3582H120.787V44.5992H121.487V45.2072H120.787V48.1222C120.786 48.1682 120.796 48.214 120.816 48.2552C120.837 48.2964 120.868 48.3318 120.905 48.3582C120.999 48.4204 121.109 48.4509 121.221 48.4452H121.486L121.487 49.0192Z" fill="#B9B9B9"/>
<path d="M125.393 49.1682C125.242 49.6504 125.008 50.1025 124.701 50.5042C124.579 50.6161 124.435 50.7017 124.278 50.7557C124.121 50.8097 123.955 50.831 123.789 50.8182C123.668 50.8226 123.546 50.8074 123.429 50.7732V50.0832C123.567 50.1283 123.711 50.1506 123.855 50.1492C123.937 50.1499 124.017 50.1316 124.091 50.0957C124.164 50.0597 124.228 50.0072 124.277 49.9422C124.442 49.7043 124.571 49.4439 124.661 49.1692L124.673 49.0992L123.031 44.5992H123.88L125.061 48.2582L126.261 44.5992H127.076L125.393 49.1682Z" fill="#B9B9B9"/>
<path d="M129.007 42.9452H129.751V49.0232H129.007V42.9452Z" fill="#B9B9B9"/>
<path d="M133.945 49.1432C133.67 49.1568 133.396 49.1101 133.141 49.0064C132.886 48.9028 132.657 48.7447 132.469 48.5432C132.089 48.082 131.897 47.494 131.932 46.8972C131.898 46.2557 132.1 45.6238 132.5 45.1212C132.689 44.9033 132.924 44.7308 133.189 44.6165C133.453 44.5022 133.74 44.4491 134.028 44.4612C134.296 44.4532 134.561 44.5072 134.804 44.6192C135.047 44.7311 135.261 44.8978 135.428 45.1062C135.803 45.5913 135.992 46.1942 135.961 46.8062L135.952 47.0712H132.72C132.724 47.429 132.828 47.7786 133.02 48.0802C133.139 48.2259 133.291 48.3405 133.464 48.414C133.637 48.4876 133.825 48.5178 134.012 48.5022C134.28 48.5075 134.542 48.423 134.756 48.2622C134.96 48.1158 135.099 47.8966 135.144 47.6502H135.88C135.799 48.0873 135.564 48.4809 135.218 48.7602C134.849 49.027 134.401 49.1619 133.945 49.1432ZM135.187 46.4722C135.187 46.1285 135.081 45.7933 134.881 45.5132C134.774 45.3845 134.638 45.2829 134.484 45.2167C134.331 45.1505 134.163 45.1215 133.996 45.1322C133.816 45.126 133.637 45.1625 133.474 45.2386C133.311 45.3147 133.168 45.4283 133.057 45.5702C132.86 45.8311 132.744 46.144 132.722 46.4702L135.187 46.4722Z" fill="#B9B9B9"/>
</svg>
