<svg width="114" height="14" viewBox="0 0 114 14" fill="none" xmlns="http://www.w3.org/2000/svg">
<path d="M6.57617 1.08203L4.92578 4.45898L1.19336 4.99219C0.533203 5.09375 0.279297 5.90625 0.761719 6.38867L3.42773 9.00391L2.79297 12.6855C2.69141 13.3457 3.40234 13.8535 3.98633 13.5488L7.3125 11.7969L10.6133 13.5488C11.1973 13.8535 11.9082 13.3457 11.8066 12.6855L11.1719 9.00391L13.8379 6.38867C14.3203 5.90625 14.0664 5.09375 13.4062 4.99219L9.69922 4.45898L8.02344 1.08203C7.74414 0.498047 6.88086 0.472656 6.57617 1.08203ZM31.3574 1.08203L29.707 4.45898L25.9746 4.99219C25.3145 5.09375 25.0605 5.90625 25.543 6.38867L28.209 9.00391L27.5742 12.6855C27.4727 13.3457 28.1836 13.8535 28.7676 13.5488L32.0938 11.7969L35.3945 13.5488C35.9785 13.8535 36.6895 13.3457 36.5879 12.6855L35.9531 9.00391L38.6191 6.38867C39.1016 5.90625 38.8477 5.09375 38.1875 4.99219L34.4805 4.45898L32.8047 1.08203C32.5254 0.498047 31.6621 0.472656 31.3574 1.08203ZM56.1387 1.08203L54.4883 4.45898L50.7559 4.99219C50.0957 5.09375 49.8418 5.90625 50.3242 6.38867L52.9902 9.00391L52.3555 12.6855C52.2539 13.3457 52.9648 13.8535 53.5488 13.5488L56.875 11.7969L60.1758 13.5488C60.7598 13.8535 61.4707 13.3457 61.3691 12.6855L60.7344 9.00391L63.4004 6.38867C63.8828 5.90625 63.6289 5.09375 62.9688 4.99219L59.2617 4.45898L57.5859 1.08203C57.3066 0.498047 56.4434 0.472656 56.1387 1.08203ZM80.9199 1.08203L79.2695 4.45898L75.5371 4.99219C74.877 5.09375 74.623 5.90625 75.1055 6.38867L77.7715 9.00391L77.1367 12.6855C77.0352 13.3457 77.7461 13.8535 78.3301 13.5488L81.6562 11.7969L84.957 13.5488C85.541 13.8535 86.252 13.3457 86.1504 12.6855L85.5156 9.00391L88.1816 6.38867C88.6641 5.90625 88.4102 5.09375 87.75 4.99219L84.043 4.45898L82.3672 1.08203C82.0879 0.498047 81.2246 0.472656 80.9199 1.08203ZM105.701 1.08203L104.051 4.45898L100.318 4.99219C99.6582 5.09375 99.4043 5.90625 99.8867 6.38867L102.553 9.00391L101.918 12.6855C101.816 13.3457 102.527 13.8535 103.111 13.5488L106.438 11.7969L109.738 13.5488C110.322 13.8535 111.033 13.3457 110.932 12.6855L110.297 9.00391L112.963 6.38867C113.445 5.90625 113.191 5.09375 112.531 4.99219L108.824 4.45898L107.148 1.08203C106.869 0.498047 106.006 0.472656 105.701 1.08203Z" fill="#EFCF00"/>
</svg>
