<svg width="170" height="61" viewBox="0 0 170 61" fill="none" xmlns="http://www.w3.org/2000/svg">
<path d="M59.6805 18.403C59.077 17.3865 58.3487 16.4495 57.5125 15.614C56.2093 14.3035 54.6592 13.2646 52.9518 12.5574C51.2444 11.8502 49.4136 11.4888 47.5655 11.494C45.7173 11.4887 43.8864 11.8502 42.1788 12.5574C40.4712 13.2646 38.9209 14.3035 37.6175 15.614C36.3073 16.9173 35.2686 18.4675 34.5614 20.1749C33.8542 21.8822 33.4926 23.7129 33.4975 25.5609C33.4924 27.409 33.8539 29.2397 34.5611 30.9471C35.2683 32.6545 36.3072 34.2047 37.6175 35.5079C38.4533 36.3444 39.3906 37.0727 40.4075 37.6759C39.9426 35.0423 40.1199 32.3354 40.9246 29.785C41.7292 27.2346 43.1374 24.9159 45.0295 23.026C46.9197 21.1338 49.2385 19.7255 51.789 18.9207C54.3396 18.1159 57.0466 17.9383 59.6805 18.403Z" fill="#E7E7E7"/>
<path d="M68.5705 46.571C70.7231 44.4186 72.4306 41.8632 73.5955 39.0508C74.7605 36.2384 75.36 33.2241 75.36 30.18C75.36 27.1359 74.7605 24.1216 73.5955 21.3093C72.4306 18.4969 70.7231 15.9415 68.5705 13.789C64.2235 9.44208 58.3276 7 52.18 7C46.0324 7 40.1366 9.44208 35.7895 13.789C38.9118 10.6668 43.1465 8.91277 47.562 8.91277C51.9776 8.91277 56.2122 10.6668 59.3345 13.789C62.4568 16.9113 64.2108 21.146 64.2108 25.5615C64.2108 29.9771 62.4568 34.2117 59.3345 37.334C56.2122 40.4562 51.9776 42.2103 47.562 42.2103C43.1465 42.2103 38.9118 40.4562 35.7895 37.334C32.6673 34.2117 30.9133 29.9771 30.9133 25.5615C30.9133 21.146 32.6673 16.9113 35.7895 13.789C33.637 15.9415 31.9295 18.4969 30.7646 21.3093C29.5996 24.1216 29 27.1359 29 30.18C29 33.2241 29.5996 36.2384 30.7646 39.0508C31.9295 41.8632 33.637 44.4186 35.7895 46.571C40.1366 50.918 46.0324 53.3601 52.18 53.3601C58.3276 53.3601 64.2235 50.918 68.5705 46.571Z" fill="#B9B9B9"/>
<path d="M91.4175 23.7131C92.8935 23.7131 94.1295 24.0791 95.1255 24.8111C96.1335 25.5431 96.8115 26.5391 97.1595 27.7991H95.4315C95.1315 27.0311 94.6275 26.4131 93.9195 25.9451C93.2235 25.4771 92.3955 25.2431 91.4355 25.2431C90.5715 25.2431 89.7975 25.4471 89.1135 25.8551C88.4295 26.2511 87.8895 26.8211 87.4935 27.5651C87.1095 28.3091 86.9175 29.1851 86.9175 30.1931C86.9175 31.2251 87.1155 32.1191 87.5115 32.8751C87.9075 33.6191 88.4535 34.1951 89.1495 34.6031C89.8575 34.9991 90.6675 35.1971 91.5795 35.1971C92.3595 35.1971 93.0735 35.0291 93.7215 34.6931C94.3695 34.3571 94.8975 33.8711 95.3055 33.2351C95.7255 32.5871 95.9775 31.8311 96.0615 30.9671H91.0755V29.7431H97.4475V31.2551C97.3395 32.2631 97.0275 33.1751 96.5115 33.9911C95.9955 34.8071 95.2995 35.4551 94.4235 35.9351C93.5475 36.4151 92.5515 36.6551 91.4355 36.6551C90.2115 36.6551 89.1315 36.3851 88.1955 35.8451C87.2595 35.2931 86.5275 34.5311 85.9995 33.5591C85.4835 32.5751 85.2255 31.4531 85.2255 30.1931C85.2255 28.9331 85.4835 27.8171 85.9995 26.8451C86.5275 25.8611 87.2595 25.0931 88.1955 24.5411C89.1315 23.9891 90.2055 23.7131 91.4175 23.7131ZM101.305 35.2511H105.805V36.5291H99.6673V23.8391H101.305V35.2511ZM113.286 23.6771C114.462 23.6771 115.518 23.9531 116.454 24.5051C117.402 25.0571 118.146 25.8311 118.686 26.8271C119.226 27.8111 119.496 28.9271 119.496 30.1751C119.496 31.4231 119.226 32.5451 118.686 33.5411C118.146 34.5251 117.402 35.2931 116.454 35.8451C115.518 36.3971 114.462 36.6731 113.286 36.6731C112.11 36.6731 111.042 36.3971 110.082 35.8451C109.134 35.2931 108.39 34.5251 107.85 33.5411C107.31 32.5451 107.04 31.4231 107.04 30.1751C107.04 28.9271 107.31 27.8111 107.85 26.8271C108.39 25.8311 109.134 25.0571 110.082 24.5051C111.042 23.9531 112.11 23.6771 113.286 23.6771ZM113.286 25.2071C112.41 25.2071 111.624 25.4111 110.928 25.8191C110.244 26.2151 109.704 26.7911 109.308 27.5471C108.924 28.2911 108.732 29.1671 108.732 30.1751C108.732 31.1711 108.924 32.0471 109.308 32.8031C109.704 33.5591 110.244 34.1411 110.928 34.5491C111.624 34.9451 112.41 35.1431 113.286 35.1431C114.15 35.1431 114.924 34.9391 115.608 34.5311C116.304 34.1231 116.844 33.5471 117.228 32.8031C117.624 32.0471 117.822 31.1711 117.822 30.1751C117.822 29.1671 117.624 28.2911 117.228 27.5471C116.844 26.7911 116.304 26.2151 115.608 25.8191C114.924 25.4111 114.15 25.2071 113.286 25.2071ZM127.902 29.9591C128.682 30.1271 129.312 30.4991 129.792 31.0751C130.284 31.6511 130.53 32.3291 130.53 33.1091C130.53 34.1411 130.176 34.9691 129.468 35.5931C128.772 36.2171 127.758 36.5291 126.426 36.5291H121.71V23.8391H126.354C127.626 23.8391 128.592 24.1211 129.252 24.6851C129.912 25.2491 130.242 26.0231 130.242 27.0071C130.242 27.8231 130.02 28.4831 129.576 28.9871C129.144 29.4911 128.586 29.8151 127.902 29.9591ZM123.348 29.4011H126.084C126.888 29.4011 127.5 29.2151 127.92 28.8431C128.352 28.4711 128.568 27.9491 128.568 27.2771C128.568 26.6291 128.358 26.1191 127.938 25.7471C127.518 25.3751 126.876 25.1891 126.012 25.1891H123.348V29.4011ZM126.12 35.1611C126.984 35.1611 127.65 34.9631 128.118 34.5671C128.598 34.1711 128.838 33.6131 128.838 32.8931C128.838 32.1851 128.592 31.6331 128.1 31.2371C127.62 30.8291 126.948 30.6251 126.084 30.6251H123.348V35.1611H126.12ZM134.212 25.1711V29.5091H139.036V30.7691H134.212V35.1971H139.576V36.5291H132.574V23.8391H139.576V25.1711H134.212Z" fill="#B9B9B9"/>
<path d="M97.5415 45.335C97.5415 45.543 97.4915 45.737 97.3915 45.917C97.2915 46.093 97.1395 46.235 96.9355 46.343C96.7315 46.451 96.4815 46.505 96.1855 46.505C95.8975 46.505 95.6395 46.455 95.4115 46.355C95.1835 46.251 95.0015 46.107 94.8655 45.923C94.7295 45.739 94.6515 45.527 94.6315 45.287H95.3635C95.3835 45.471 95.4615 45.629 95.5975 45.761C95.7375 45.893 95.9235 45.959 96.1555 45.959C96.3635 45.959 96.5235 45.903 96.6355 45.791C96.7515 45.679 96.8095 45.535 96.8095 45.359C96.8095 45.207 96.7675 45.083 96.6835 44.987C96.5995 44.887 96.4955 44.809 96.3715 44.753C96.2475 44.697 96.0775 44.633 95.8615 44.561C95.5975 44.477 95.3815 44.393 95.2135 44.309C95.0495 44.225 94.9095 44.103 94.7935 43.943C94.6775 43.783 94.6195 43.573 94.6195 43.313C94.6195 43.085 94.6755 42.885 94.7875 42.713C94.8995 42.541 95.0595 42.409 95.2675 42.317C95.4755 42.221 95.7155 42.173 95.9875 42.173C96.4195 42.173 96.7615 42.277 97.0135 42.485C97.2695 42.693 97.4155 42.965 97.4515 43.301H96.7135C96.6855 43.141 96.6095 43.005 96.4855 42.893C96.3655 42.777 96.1995 42.719 95.9875 42.719C95.7955 42.719 95.6415 42.769 95.5255 42.869C95.4095 42.965 95.3515 43.105 95.3515 43.289C95.3515 43.433 95.3915 43.553 95.4715 43.649C95.5515 43.741 95.6515 43.815 95.7715 43.871C95.8955 43.923 96.0635 43.985 96.2755 44.057C96.5435 44.141 96.7615 44.227 96.9295 44.315C97.1015 44.399 97.2455 44.523 97.3615 44.687C97.4815 44.851 97.5415 45.067 97.5415 45.335ZM98.9103 45.929H100.374V46.463H98.2263V42.227H98.9103V45.929ZM102.872 42.173C103.264 42.173 103.618 42.265 103.934 42.449C104.254 42.633 104.504 42.891 104.684 43.223C104.868 43.551 104.96 43.923 104.96 44.339C104.96 44.755 104.868 45.129 104.684 45.461C104.504 45.789 104.254 46.047 103.934 46.235C103.618 46.419 103.264 46.511 102.872 46.511C102.476 46.511 102.118 46.419 101.798 46.235C101.482 46.047 101.232 45.789 101.048 45.461C100.864 45.129 100.772 44.755 100.772 44.339C100.772 43.923 100.864 43.551 101.048 43.223C101.232 42.891 101.482 42.633 101.798 42.449C102.118 42.265 102.476 42.173 102.872 42.173ZM102.872 42.809C102.6 42.809 102.358 42.871 102.146 42.995C101.934 43.119 101.768 43.297 101.648 43.529C101.532 43.761 101.474 44.031 101.474 44.339C101.474 44.647 101.532 44.917 101.648 45.149C101.768 45.381 101.934 45.559 102.146 45.683C102.358 45.807 102.6 45.869 102.872 45.869C103.14 45.869 103.378 45.807 103.586 45.683C103.798 45.559 103.962 45.381 104.078 45.149C104.198 44.917 104.258 44.647 104.258 44.339C104.258 44.031 104.198 43.761 104.078 43.529C103.962 43.297 103.798 43.119 103.586 42.995C103.378 42.871 103.14 42.809 102.872 42.809ZM107.588 42.191C108.092 42.191 108.512 42.315 108.848 42.563C109.184 42.811 109.406 43.149 109.514 43.577H108.794C108.702 43.349 108.55 43.167 108.338 43.031C108.13 42.895 107.882 42.827 107.594 42.827C107.33 42.827 107.092 42.889 106.88 43.013C106.672 43.137 106.508 43.313 106.388 43.541C106.272 43.769 106.214 44.037 106.214 44.345C106.214 44.669 106.274 44.947 106.394 45.179C106.514 45.411 106.682 45.589 106.898 45.713C107.118 45.833 107.372 45.893 107.66 45.893C108.012 45.893 108.314 45.785 108.566 45.569C108.818 45.349 108.97 45.049 109.022 44.669H107.468V44.165H109.598V44.819C109.55 45.131 109.438 45.415 109.262 45.671C109.09 45.923 108.86 46.125 108.572 46.277C108.288 46.429 107.962 46.505 107.594 46.505C107.182 46.505 106.818 46.413 106.502 46.229C106.186 46.045 105.942 45.791 105.77 45.467C105.598 45.139 105.512 44.765 105.512 44.345C105.512 43.925 105.598 43.553 105.77 43.229C105.942 42.901 106.184 42.647 106.496 42.467C106.812 42.283 107.176 42.191 107.588 42.191ZM112.817 45.545H111.029L110.705 46.463H109.973L111.533 42.293H112.319L113.873 46.463H113.141L112.817 45.545ZM112.625 45.017L111.923 43.037L111.221 45.017H112.625ZM117.807 46.463H117.123L115.065 43.337V46.463H114.381V42.233H115.065L117.123 45.371V42.233H117.807V46.463ZM123.407 42.227V46.463H122.717V44.561H120.725V46.463H120.041V42.227H120.725V44.003H122.717V42.227H123.407ZM124.92 42.779V44.063H126.48V44.591H124.92V45.905H126.66V46.463H124.236V42.227H126.66V42.779H124.92ZM129.55 46.463L128.494 44.771H128.008V46.463H127.324V42.227H128.818C129.302 42.227 129.668 42.345 129.916 42.581C130.168 42.817 130.294 43.129 130.294 43.517C130.294 43.849 130.2 44.121 130.012 44.333C129.828 44.545 129.56 44.681 129.208 44.741L130.318 46.463H129.55ZM128.008 44.285H128.764C129.316 44.285 129.592 44.041 129.592 43.553C129.592 43.321 129.524 43.141 129.388 43.013C129.256 42.881 129.048 42.815 128.764 42.815H128.008V44.285ZM131.594 42.779V44.063H133.154V44.591H131.594V45.905H133.334V46.463H130.91V42.227H133.334V42.779H131.594Z" fill="#B9B9B9"/>
</svg>
