<?xml version="1.0" encoding="UTF-8" standalone="no"?>
<!-- Created with Inkscape (http://www.inkscape.org/) -->

<svg
   width="17.197924mm"
   height="17.197918mm"
   viewBox="0 0 17.197924 17.197918"
   version="1.1"
   id="svg1"
   xml:space="preserve"
   xmlns="http://www.w3.org/2000/svg"
   xmlns:svg="http://www.w3.org/2000/svg"><defs
     id="defs1" /><g
     id="layer1"
     transform="translate(-120.49582,-143.88589)"><g
       style="fill:none"
       id="g1"
       transform="matrix(0.26458333,0,0,0.26458333,120.49582,143.88589)"><path
         d="M 0,32.5 C 0,50.4493 14.5507,65 32.5,65 50.4493,65 65,50.4493 65,32.5 65,14.5507 50.4493,0 32.5,0 14.5507,0 0,14.5507 0,32.5 Z"
         fill="#f2eddc"
         id="path1" /></g><g
       style="fill:none"
       id="g2"
       transform="matrix(0.26458333,0,0,0.26458333,126.44894,149.83901)"><path
         fill-rule="evenodd"
         clip-rule="evenodd"
         d="m 2.5,2.5 h 15 C 18.8807,2.5 20,3.61929 20,5 v 10 c 0,1.3807 -1.1193,2.5 -2.5,2.5 H 2.5 C 1.11929,17.5 0,16.3807 0,15 V 5 C 0,3.61929 1.11929,2.5 2.5,2.5 Z m 0,2.5 v 10 h 15 V 5 Z M 10,9.98503 17.5,6.25 V 8.61803 L 10,12.5 2.5,8.75 v -2.5 z"
         fill="#4f5955"
         id="path1-8" /></g></g></svg>
