<?xml version="1.0" encoding="UTF-8" standalone="no"?>
<!-- Created with Inkscape (http://www.inkscape.org/) -->

<svg
   width="17.197916mm"
   height="17.197918mm"
   viewBox="0 0 17.197916 17.197918"
   version="1.1"
   id="svg1"
   xml:space="preserve"
   xmlns="http://www.w3.org/2000/svg"
   xmlns:svg="http://www.w3.org/2000/svg"><defs
     id="defs1" /><g
     id="layer1"
     transform="translate(-116.86685,-143.55284)"><g
       style="fill:none"
       id="g1"
       transform="matrix(0.26458333,0,0,0.26458333,116.86685,143.55284)"><path
         d="M 0,32.5 C 0,50.4493 14.5507,65 32.5,65 50.4493,65 65,50.4493 65,32.5 65,14.5507 50.4493,0 32.5,0 14.5507,0 0,14.5507 0,32.5 Z"
         fill="#f2eddc"
         id="path1" /></g><g
       style="fill:none"
       id="g2"
       transform="matrix(0.26458333,0,0,0.26458333,122.81998,149.34068)"><path
         fill-rule="evenodd"
         clip-rule="evenodd"
         d="M 10,19.9994 8.71159,18.8511 C 4.59737,15.1846 2.5,11.9276 2.5,8.87888 2.5,4.55054 5.82171,1.25 10,1.25 c 4.1783,0 7.5,3.30054 7.5,7.62888 0,3.04872 -2.0974,6.30572 -6.2116,9.97222 z M 15,8.87888 C 15,5.93484 12.8011,3.75 10,3.75 c -2.80115,0 -5,2.18484 -5,5.12888 0,2.08702 1.6225,4.67972 5,7.76752 3.3775,-3.0878 5,-5.6805 5,-7.76752 z M 10,5 c 2.0711,0 3.75,1.67893 3.75,3.75 0,2.0711 -1.6789,3.75 -3.75,3.75 C 7.92893,12.5 6.25,10.8211 6.25,8.75 6.25,6.67893 7.92893,5 10,5 Z m 0,2.5 C 9.30964,7.5 8.75,8.05964 8.75,8.75 8.75,9.44036 9.30964,10 10,10 10.6904,10 11.25,9.44036 11.25,8.75 11.25,8.05964 10.6904,7.5 10,7.5 Z"
         fill="#4f5955"
         id="path1-6" /></g></g></svg>
