<svg width="170" height="170" viewBox="0 0 170 170" fill="none" xmlns="http://www.w3.org/2000/svg">
<path d="M85 170C131.944 170 170 131.944 170 85C170 38.0558 131.944 0 85 0C38.0558 0 0 38.0558 0 85C0 131.944 38.0558 170 85 170Z" fill="url(#paint0_linear_234_4341)"/>
<path d="M52.3724 113.838C61.4146 113.838 68.7448 106.52 68.7448 97.4924C68.7448 88.4652 61.4146 81.1472 52.3724 81.1472C43.3302 81.1472 36 88.4652 36 97.4924C36 106.52 43.3302 113.838 52.3724 113.838Z" fill="#F2EDDC"/>
<path d="M84.1815 67.0203C91.9319 67.0203 98.2149 60.7478 98.2149 53.0102C98.2149 45.2726 91.9319 39 84.1815 39C76.431 39 70.148 45.2726 70.148 53.0102C70.148 60.7478 76.431 67.0203 84.1815 67.0203Z" fill="#F2EDDC"/>
<path d="M110.611 131C123.528 131 134 120.546 134 107.65C134 94.7538 123.528 84.2996 110.611 84.2996C97.6934 84.2996 87.2217 94.7538 87.2217 107.65C87.2217 120.546 97.6934 131 110.611 131Z" fill="#F2EDDC"/>
<path d="M50.0332 121.427H102.659C103.945 121.427 104.998 120.376 104.998 119.092V49.0408C104.998 47.7566 103.945 46.7058 102.659 46.7058H61.7278C56.2314 52.1931 53.1908 55.2287 47.6943 60.716V119.092C47.6943 120.376 48.7468 121.427 50.0332 121.427Z" fill="white"/>
<path opacity="0.2" d="M71.083 121.427H102.658C103.945 121.427 104.997 120.376 104.997 119.092V56.0459H94.4721C81.6081 56.0459 71.083 66.5535 71.083 79.3962V121.427Z" fill="#4F5955"/>
<path d="M102.659 122.244H50.0333C48.2791 122.244 46.7588 120.843 46.7588 118.975V60.5992C46.7588 60.3657 46.8757 60.1322 46.9927 60.0154L61.0262 46.0052C61.1431 45.8885 61.377 45.7717 61.6109 45.7717H102.542C104.296 45.7717 105.816 47.1727 105.816 49.0408V119.092C105.933 120.843 104.413 122.244 102.659 122.244ZM48.63 61.0662V119.092C48.63 119.909 49.3316 120.609 50.1502 120.609H102.776C103.594 120.609 104.296 119.909 104.296 119.092V49.0408C104.296 48.2235 103.594 47.523 102.776 47.523H62.1956L48.63 61.0662Z" fill="#4F5955"/>
<path d="M87.457 72.3909H122.541V65.3858C122.541 64.1015 121.488 63.0508 120.202 63.0508H89.7959C88.5095 63.0508 87.457 64.1015 87.457 65.3858V72.3909Z" fill="white"/>
<path opacity="0.2" d="M94.4727 72.391H122.54V67.7209H96.8116C95.5252 67.7209 94.4727 68.7717 94.4727 70.056V72.391Z" fill="#4F5955"/>
<path d="M89.7959 107.416H104.999V89.9036H87.457V105.081C87.457 106.366 88.5095 107.416 89.7959 107.416Z" fill="white"/>
<path d="M104.999 72.3911H87.457V89.9038H104.999V72.3911Z" fill="white"/>
<path d="M104.998 107.416H120.201C121.487 107.416 122.54 106.366 122.54 105.081V89.9036H104.998V107.416Z" fill="white"/>
<path d="M122.54 72.3911H104.998V89.9038H122.54V72.3911Z" fill="white"/>
<path opacity="0.2" d="M110.845 89.9036H122.539V78.2285H114.353C112.365 78.2285 110.845 79.7463 110.845 81.7311V89.9036Z" fill="#4F5955"/>
<path opacity="0.2" d="M110.845 107.299H120.2C121.487 107.299 122.539 106.249 122.539 104.964V93.2893H114.353C112.365 93.2893 110.845 94.8071 110.845 96.7918V107.299Z" fill="#4F5955"/>
<path opacity="0.2" d="M93.3037 89.9036H104.998V78.2285H96.8121C94.824 78.2285 93.3037 79.7463 93.3037 81.7311V89.9036Z" fill="#4F5955"/>
<path opacity="0.2" d="M93.3037 107.299H104.998V97.9592H99.151C95.8765 97.9592 93.3037 100.528 93.3037 103.797V107.299Z" fill="#4F5955"/>
<path d="M122.541 73.2081H87.457C86.9893 73.2081 86.5215 72.8579 86.5215 72.2741V65.269C86.5215 63.5178 87.9248 62 89.7959 62H120.202C121.956 62 123.476 63.401 123.476 65.269V72.2741C123.476 72.8579 123.009 73.2081 122.541 73.2081ZM88.3927 71.4568H121.722V65.269C121.722 64.4518 121.02 63.7513 120.202 63.7513H89.7959C88.9773 63.7513 88.2757 64.4518 88.2757 65.269V71.4568H88.3927Z" fill="#4F5955"/>
<path d="M104.999 108.233H89.7959C88.0418 108.233 86.5215 106.832 86.5215 104.964V89.7868C86.5215 89.3198 86.8723 88.8528 87.457 88.8528H104.999C105.467 88.8528 105.935 89.203 105.935 89.7868V107.299C105.935 107.883 105.467 108.233 104.999 108.233ZM88.3927 90.7208V105.081C88.3927 105.898 89.0943 106.599 89.9129 106.599H104.297V90.8376H88.3927V90.7208Z" fill="#4F5955"/>
<path d="M104.999 90.7208H87.457C86.9893 90.7208 86.5215 90.3706 86.5215 89.7868V72.2741C86.5215 71.8071 86.8723 71.3401 87.457 71.3401H104.999C105.467 71.3401 105.935 71.6903 105.935 72.2741V89.7868C105.935 90.3706 105.467 90.7208 104.999 90.7208ZM88.3927 88.9695H104.18V73.2081H88.3927V88.9695Z" fill="#4F5955"/>
<path d="M120.201 108.233H104.998C104.53 108.233 104.062 107.883 104.062 107.299V89.7868C104.062 89.3198 104.413 88.8528 104.998 88.8528H122.54C123.008 88.8528 123.476 89.203 123.476 89.7868V104.964C123.476 106.832 121.955 108.233 120.201 108.233ZM105.934 106.482H120.318C121.137 106.482 121.838 105.782 121.838 104.964V90.6041H106.051V106.482H105.934Z" fill="#4F5955"/>
<path d="M122.54 90.7208H104.998C104.53 90.7208 104.062 90.3706 104.062 89.7868V72.2741C104.062 71.8071 104.413 71.3401 104.998 71.3401H122.54C123.008 71.3401 123.476 71.6903 123.476 72.2741V89.7868C123.476 90.3706 123.008 90.7208 122.54 90.7208ZM105.934 88.9695H121.721V73.2081H105.934V88.9695Z" fill="#4F5955"/>
<path d="M47.6943 60.716L61.7278 46.7058V60.716H47.6943Z" fill="white"/>
<path opacity="0.2" d="M55.8809 60.716L61.7281 46.7058V60.716H55.8809Z" fill="#4F5955"/>
<path d="M61.7286 61.5331H47.6952C47.3443 61.5331 46.9935 61.2996 46.8766 60.9493C46.7597 60.599 46.7596 60.2488 47.1104 60.0153L61.1439 46.0051C61.3778 45.7716 61.7287 45.6549 62.0795 45.7716C62.4304 45.8884 62.6643 46.2386 62.6643 46.5889V60.5991C62.6643 61.1828 62.1964 61.5331 61.7286 61.5331ZM49.8002 59.7818H60.7931V48.8072L49.8002 59.7818Z" fill="#4F5955"/>
<path d="M106.168 68.7716C105.817 68.7716 105.583 68.6548 105.349 68.4213C105.115 68.1878 104.998 67.9543 104.998 67.6041C104.998 67.2538 105.115 67.0203 105.349 66.7868C105.817 66.3198 106.518 66.3198 106.986 66.7868C107.22 67.0203 107.337 67.3705 107.337 67.6041C107.337 67.9543 107.22 68.1878 106.986 68.4213C106.752 68.6548 106.518 68.7716 106.168 68.7716Z" fill="#4F5955"/>
<path d="M110.261 67.604C110.261 66.9035 110.845 66.4365 111.43 66.4365C112.132 66.4365 112.6 66.9035 112.6 67.604C112.6 68.1878 112.132 68.7716 111.43 68.7716C110.845 68.7716 110.261 68.3045 110.261 67.604Z" fill="#4F5955"/>
<path d="M116.692 68.7716C116.341 68.7716 116.107 68.6548 115.873 68.4213C115.639 68.1878 115.522 67.9543 115.522 67.6041C115.522 67.2538 115.639 67.0203 115.873 66.7868C116.341 66.3198 117.043 66.3198 117.511 66.7868C117.744 67.0203 117.861 67.2538 117.861 67.6041C117.861 67.9543 117.744 68.1878 117.511 68.4213C117.277 68.6548 117.043 68.7716 116.692 68.7716Z" fill="#4F5955"/>
<path d="M99.7365 81.9644H92.7197C92.2519 81.9644 91.7842 81.6142 91.7842 81.0304C91.7842 80.5634 92.135 80.0964 92.7197 80.0964H99.7365C100.204 80.0964 100.672 80.4467 100.672 81.0304C100.672 81.6142 100.204 81.9644 99.7365 81.9644Z" fill="#4F5955"/>
<path d="M117.277 81.9644H110.261C109.793 81.9644 109.325 81.6142 109.325 81.0304C109.325 80.5634 109.676 80.0964 110.261 80.0964H117.277C117.745 80.0964 118.213 80.4467 118.213 81.0304C118.213 81.6142 117.745 81.9644 117.277 81.9644Z" fill="#4F5955"/>
<path d="M117.277 101.812H110.261C109.793 101.812 109.325 101.462 109.325 100.878C109.325 100.411 109.676 99.9443 110.261 99.9443H117.277C117.745 99.9443 118.213 100.295 118.213 100.878C118.213 101.462 117.745 101.812 117.277 101.812Z" fill="#4F5955"/>
<path d="M117.277 97.142H110.261C109.793 97.142 109.325 96.7917 109.325 96.208C109.325 95.741 109.676 95.2739 110.261 95.2739H117.277C117.745 95.2739 118.213 95.6242 118.213 96.208C118.213 96.7917 117.745 97.142 117.277 97.142Z" fill="#4F5955"/>
<path d="M96.2275 85.4668C95.7598 85.4668 95.292 85.1166 95.292 84.5328V77.5278C95.292 77.0608 95.6428 76.5938 96.2275 76.5938C96.6953 76.5938 97.1632 76.944 97.1632 77.5278V84.5328C97.1632 85.1166 96.6953 85.4668 96.2275 85.4668Z" fill="#4F5955"/>
<path d="M99.1512 102.396C98.9173 102.396 98.6834 102.279 98.5665 102.162L92.7192 96.3248C92.3683 95.9745 92.3683 95.3908 92.7192 95.0405C93.07 94.6903 93.6548 94.6903 94.0056 95.0405L99.8529 100.878C100.204 101.228 100.204 101.812 99.8529 102.162C99.619 102.279 99.3851 102.396 99.1512 102.396Z" fill="#4F5955"/>
<path d="M93.3039 102.396C93.07 102.396 92.8361 102.279 92.7192 102.162C92.3683 101.812 92.3683 101.228 92.7192 100.878L98.5665 95.0405C98.9173 94.6903 99.5021 94.6903 99.8529 95.0405C100.204 95.3908 100.204 95.9745 99.8529 96.3248L94.0056 102.162C93.7717 102.279 93.5378 102.396 93.3039 102.396Z" fill="#4F5955"/>
<path d="M67.575 114.422C74.6796 114.422 80.439 108.672 80.439 101.579C80.439 94.4862 74.6796 88.7363 67.575 88.7363C60.4704 88.7363 54.7109 94.4862 54.7109 101.579C54.7109 108.672 60.4704 114.422 67.575 114.422Z" fill="white"/>
<path opacity="0.2" d="M80.4396 101.579C80.4396 101.462 80.4396 101.228 80.4396 101.112C78.1007 98.8934 75.0601 97.6091 71.6687 97.6091C64.535 97.6091 58.8047 103.33 58.8047 110.452C58.8047 110.569 58.8047 110.802 58.8047 110.919C61.1436 113.137 64.1842 114.421 67.5756 114.421C74.7093 114.305 80.4396 108.584 80.4396 101.579Z" fill="#4F5955"/>
<path d="M67.5744 102.396C67.4575 102.396 67.3405 102.396 67.2236 102.279C66.8728 102.163 66.7559 101.812 66.7559 101.462V88.6196C66.7559 88.1526 67.1067 87.6855 67.6914 87.6855C68.1592 87.6855 68.627 88.0358 68.627 88.6196V99.4774L76.6962 92.1221C77.0471 91.7718 77.6318 91.7718 77.9826 92.1221C78.3335 92.4724 78.3335 93.0561 77.9826 93.4064L68.51 102.046C68.0423 102.279 67.8083 102.396 67.5744 102.396Z" fill="#4F5955"/>
<path d="M60.4415 113.137C60.3246 113.137 60.0906 113.137 59.9737 113.021C59.6229 112.787 59.506 112.203 59.7399 111.853L66.8735 101.112C67.1074 100.762 67.5752 100.645 68.043 100.762L79.6206 106.366C80.0884 106.599 80.2053 107.066 79.9714 107.533C79.7376 108 79.2698 108.117 78.802 107.884L67.9261 102.63L61.2601 112.67C61.0263 113.021 60.7923 113.137 60.4415 113.137Z" fill="#4F5955"/>
<path d="M67.575 115.239C59.9735 115.239 53.7754 109.051 53.7754 101.462C53.7754 93.8734 59.9735 87.6855 67.575 87.6855C75.1764 87.6855 81.3746 93.8734 81.3746 101.462C81.3746 109.051 75.1764 115.239 67.575 115.239ZM67.575 89.5536C60.9091 89.5536 55.5296 94.9241 55.5296 101.579C55.5296 108.234 60.9091 113.604 67.575 113.604C74.2409 113.604 79.6204 108.234 79.6204 101.579C79.6204 94.9241 74.2409 89.5536 67.575 89.5536Z" fill="#4F5955"/>
<path d="M71.5512 99.9441C72.019 99.9441 72.4868 100.061 72.9546 100.178C72.3698 97.7259 70.1479 95.9746 67.4581 95.9746C64.3006 95.9746 61.8447 98.5432 61.8447 101.579C61.8447 104.147 63.5989 106.365 66.0547 107.066C65.9378 106.599 65.8208 106.132 65.8208 105.665C65.9378 102.396 68.5106 99.9441 71.5512 99.9441Z" fill="white"/>
<path opacity="0.2" d="M73.1891 101.579C73.1891 101.112 73.0722 100.645 72.9552 100.178C72.4874 100.061 72.0196 99.9443 71.5519 99.9443C68.3943 99.9443 65.9385 102.513 65.9385 105.548C65.9385 106.015 66.0554 106.482 66.1724 106.949C66.6402 107.066 67.1079 107.183 67.5757 107.183C70.7332 107.183 73.1891 104.614 73.1891 101.579Z" fill="#4F5955"/>
<path d="M67.5753 108C63.95 108 61.0264 105.081 61.0264 101.462C61.0264 97.8426 63.95 94.9238 67.5753 94.9238C71.2006 94.9238 74.1243 97.8426 74.1243 101.462C74.1243 105.081 71.2006 108 67.5753 108ZM67.5753 96.7919C65.0025 96.7919 62.7806 98.8934 62.7806 101.579C62.7806 104.147 64.8855 106.365 67.5753 106.365C70.1481 106.365 72.3701 104.264 72.3701 101.579C72.3701 98.8934 70.1481 96.7919 67.5753 96.7919Z" fill="#4F5955"/>
<path d="M82.7785 67.3705H73.4229C72.9551 67.3705 72.4873 67.0202 72.4873 66.4365C72.4873 65.9695 72.8381 65.5024 73.4229 65.5024H82.7785C83.2463 65.5024 83.7141 65.8527 83.7141 66.4365C83.7141 67.0202 83.2463 67.3705 82.7785 67.3705Z" fill="#4F5955"/>
<path d="M68.7444 67.3705H54.7109C54.2432 67.3705 53.7754 67.0202 53.7754 66.4365C53.7754 65.9695 54.1262 65.5024 54.7109 65.5024H68.7444C69.2122 65.5024 69.68 65.8527 69.68 66.4365C69.68 67.0202 69.2122 67.3705 68.7444 67.3705Z" fill="#4F5955"/>
<path d="M82.7781 61.5328H67.5752C67.1074 61.5328 66.6396 61.1826 66.6396 60.5988C66.6396 60.1318 66.9905 59.6648 67.5752 59.6648H82.7781C83.2459 59.6648 83.7138 60.0151 83.7138 60.5988C83.7138 61.1826 83.2459 61.5328 82.7781 61.5328Z" fill="#4F5955"/>
<path d="M82.7782 73.2081H65.2363C64.7685 73.2081 64.3008 72.8579 64.3008 72.2741C64.3008 71.8071 64.6516 71.3401 65.2363 71.3401H82.7782C83.246 71.3401 83.7138 71.6903 83.7138 72.2741C83.7138 72.8579 83.246 73.2081 82.7782 73.2081Z" fill="#4F5955"/>
<path d="M60.5582 73.2081H54.7109C54.2432 73.2081 53.7754 72.8579 53.7754 72.2741C53.7754 71.8071 54.1262 71.3401 54.7109 71.3401H60.5582C61.026 71.3401 61.4938 71.6903 61.4938 72.2741C61.4938 72.8579 61.026 73.2081 60.5582 73.2081Z" fill="#4F5955"/>
<path d="M82.7785 79.0457H73.4229C72.9551 79.0457 72.4873 78.6955 72.4873 78.1117C72.4873 77.6447 72.8381 77.1777 73.4229 77.1777H82.7785C83.2463 77.1777 83.7141 77.528 83.7141 78.1117C83.7141 78.6955 83.2463 79.0457 82.7785 79.0457Z" fill="#4F5955"/>
<path d="M68.7444 79.0457H54.7109C54.2432 79.0457 53.7754 78.6955 53.7754 78.1117C53.7754 77.6447 54.1262 77.1777 54.7109 77.1777H68.7444C69.2122 77.1777 69.68 77.528 69.68 78.1117C69.68 78.6955 69.2122 79.0457 68.7444 79.0457Z" fill="#4F5955"/>
<path d="M75.7609 84.8831H68.7441C68.2764 84.8831 67.8086 84.5329 67.8086 83.9492C67.8086 83.4821 68.1594 83.0151 68.7441 83.0151H75.7609C76.2287 83.0151 76.6965 83.3654 76.6965 83.9492C76.6965 84.5329 76.2287 84.8831 75.7609 84.8831Z" fill="#4F5955"/>
<path d="M64.0666 84.8831H54.7109C54.2432 84.8831 53.7754 84.5329 53.7754 83.9492C53.7754 83.4821 54.1262 83.0151 54.7109 83.0151H64.0666C64.5344 83.0151 65.0022 83.3654 65.0022 83.9492C65.0022 84.5329 64.5344 84.8831 64.0666 84.8831Z" fill="#4F5955"/>
<path d="M112.015 115.589C113.306 115.589 114.354 114.544 114.354 113.254C114.354 111.964 113.306 110.919 112.015 110.919C110.723 110.919 109.676 111.964 109.676 113.254C109.676 114.544 110.723 115.589 112.015 115.589Z" fill="white"/>
<path d="M112.015 116.406C110.261 116.406 108.74 115.005 108.74 113.137C108.74 111.386 110.144 109.868 112.015 109.868C113.769 109.868 115.289 111.269 115.289 113.137C115.289 115.005 113.769 116.406 112.015 116.406ZM112.015 111.736C111.196 111.736 110.494 112.437 110.494 113.254C110.494 114.071 111.196 114.772 112.015 114.772C112.833 114.772 113.535 114.071 113.535 113.254C113.535 112.437 112.833 111.736 112.015 111.736Z" fill="#4F5955"/>
<path d="M120.201 121.426C121.493 121.426 122.54 120.381 122.54 119.091C122.54 117.802 121.493 116.756 120.201 116.756C118.909 116.756 117.862 117.802 117.862 119.091C117.862 120.381 118.909 121.426 120.201 121.426Z" fill="white"/>
<path d="M120.201 122.244C118.447 122.244 116.927 120.843 116.927 118.975C116.927 117.223 118.33 115.706 120.201 115.706C122.072 115.706 123.476 117.107 123.476 118.975C123.476 120.843 121.955 122.244 120.201 122.244ZM120.201 117.574C119.383 117.574 118.681 118.274 118.681 119.091C118.681 119.909 119.383 120.609 120.201 120.609C121.02 120.609 121.722 119.909 121.722 119.091C121.722 118.274 121.02 117.574 120.201 117.574Z" fill="#4F5955"/>
<path d="M120.201 58.2638C121.493 58.2638 122.54 57.2184 122.54 55.9288C122.54 54.6392 121.493 53.5938 120.201 53.5938C118.909 53.5938 117.862 54.6392 117.862 55.9288C117.862 57.2184 118.909 58.2638 120.201 58.2638Z" fill="white"/>
<path d="M120.201 59.198C118.447 59.198 116.927 57.797 116.927 55.929C116.927 54.1777 118.33 52.6599 120.201 52.6599C122.072 52.6599 123.476 54.0609 123.476 55.929C123.476 57.797 121.955 59.198 120.201 59.198ZM120.201 54.5279C119.383 54.5279 118.681 55.2284 118.681 56.0457C118.681 56.863 119.383 57.5635 120.201 57.5635C121.02 57.5635 121.722 56.863 121.722 56.0457C121.722 55.2284 121.02 54.5279 120.201 54.5279Z" fill="#4F5955"/>
<path d="M112.015 51.2592C113.306 51.2592 114.354 50.2137 114.354 48.9241C114.354 47.6345 113.306 46.5891 112.015 46.5891C110.723 46.5891 109.676 47.6345 109.676 48.9241C109.676 50.2137 110.723 51.2592 112.015 51.2592Z" fill="white"/>
<path d="M112.015 52.1926C110.261 52.1926 108.74 50.7916 108.74 48.9236C108.74 47.1723 110.144 45.6545 112.015 45.6545C113.769 45.6545 115.289 47.0556 115.289 48.9236C115.289 50.7916 113.769 52.1926 112.015 52.1926ZM112.015 47.5226C111.196 47.5226 110.494 48.2231 110.494 49.0403C110.494 49.8576 111.196 50.5581 112.015 50.5581C112.833 50.5581 113.535 49.8576 113.535 49.0403C113.535 48.2231 112.833 47.5226 112.015 47.5226Z" fill="#4F5955"/>
<defs>
<linearGradient id="paint0_linear_234_4341" x1="85" y1="0" x2="85" y2="170" gradientUnits="userSpaceOnUse">
<stop stop-color="#F8F5ED"/>
<stop offset="1" stop-color="#F7F7F7" stop-opacity="0"/>
</linearGradient>
</defs>
</svg>
