<svg width="17" height="21" viewBox="0 0 17 21" fill="none" xmlns="http://www.w3.org/2000/svg">
<path d="M8.41293 4.51367C7.64159 4.51367 6.88757 4.74241 6.24622 5.17094C5.60487 5.59948 5.105 6.20858 4.80982 6.92121C4.51463 7.63384 4.43739 8.418 4.58788 9.17453C4.73836 9.93106 5.1098 10.626 5.65523 11.1714C6.20065 11.7168 6.89556 12.0883 7.65209 12.2387C8.40861 12.3892 9.19278 12.312 9.90541 12.0168C10.618 11.7216 11.2271 11.2218 11.6557 10.5804C12.0842 9.93905 12.3129 9.18502 12.3129 8.41367C12.3129 7.90152 12.2121 7.39438 12.0161 6.92121C11.8201 6.44804 11.5328 6.01811 11.1707 5.65596C10.8085 5.29381 10.3786 5.00654 9.90541 4.81055C9.43224 4.61455 8.92509 4.51367 8.41293 4.51367ZM8.41293 10.6697C7.96654 10.6697 7.53017 10.5373 7.15901 10.2893C6.78785 10.0413 6.49857 9.6888 6.32775 9.27639C6.15692 8.86398 6.11223 8.41017 6.19931 7.97236C6.2864 7.53454 6.50136 7.13238 6.817 6.81673C7.13265 6.50109 7.53481 6.28613 7.97263 6.19904C8.41044 6.11196 8.86425 6.15665 9.27666 6.32748C9.68907 6.4983 10.0416 6.78759 10.2896 7.15875C10.5376 7.52991 10.6699 7.96628 10.6699 8.41267C10.6691 9.01102 10.4311 9.58464 10.008 10.0077C9.58491 10.4308 9.01128 10.6689 8.41293 10.6697Z" fill="#D9C3A9"/>
<path d="M8.41495 0C6.18442 0.00238235 4.04592 0.889514 2.46869 2.46674C0.891465 4.04397 0.00433547 6.18247 0.00195312 8.413V8.646C0.00195312 10.992 1.34695 13.726 4.00195 16.772C5.19958 18.1433 6.50363 19.418 7.90195 20.584L8.41495 21L8.93095 20.583C10.3293 19.417 11.6334 18.1424 12.831 16.771C15.484 13.725 16.831 10.991 16.831 8.645V8.413C16.8286 6.18195 15.941 4.043 14.3632 2.46568C12.7853 0.88837 10.646 0.00158818 8.41495 0V0ZM15.186 8.646C15.186 12.611 10.077 17.41 8.41495 18.867C6.75195 17.41 1.64395 12.61 1.64395 8.646V8.413C1.64395 7.52375 1.8191 6.64322 2.1594 5.82166C2.4997 5.0001 2.99849 4.25362 3.62728 3.62483C4.25607 2.99603 5.00256 2.49725 5.82411 2.15695C6.64567 1.81665 7.52621 1.6415 8.41545 1.6415C9.3047 1.6415 10.1852 1.81665 11.0068 2.15695C11.8284 2.49725 12.5748 2.99603 13.2036 3.62483C13.8324 4.25362 14.3312 5.0001 14.6715 5.82166C15.0118 6.64322 15.187 7.52375 15.187 8.413L15.186 8.646Z" fill="#D9C3A9"/>
</svg>
