<svg width="35" height="30" viewBox="0 0 35 30" fill="none" xmlns="http://www.w3.org/2000/svg">
<path d="M14.3083 5.96228C14.5149 5.8815 14.7025 5.75882 14.8594 5.60197C15.0163 5.44512 15.139 5.2575 15.2198 5.0509C15.3007 4.8443 15.3379 4.6232 15.3291 4.40152C15.3204 4.17983 15.2658 3.96236 15.1689 3.76279L13.7585 0.94044C13.5548 0.549713 13.2111 0.25029 12.7962 0.102012C12.3813 -0.0462666 11.9257 -0.0324766 11.5205 0.140625C9.23565 1.02796 7.13454 2.33022 5.32314 3.98174C3.39848 5.66552 1.96162 7.83572 1.16292 10.2653C0.305128 13.4121 -0.0819087 16.6687 0.0144067 19.929V28.3531C0.0259388 28.7992 0.213365 29.2227 0.53581 29.5311C0.858256 29.8396 1.28956 30.008 1.73567 29.9997H13.0089C13.455 30.008 13.8863 29.8396 14.2087 29.5311C14.5312 29.2227 14.7186 28.7992 14.7301 28.3531V17.5696C14.7186 17.1235 14.5312 16.7 14.2087 16.3915C13.8863 16.0831 13.455 15.9146 13.0089 15.923H7.61117C7.55561 13.5433 8.25895 11.2077 9.61931 9.25451C10.8602 7.75784 12.4793 6.62102 14.3083 5.96228Z" fill="#D9C3A9"/>
<path d="M33.9779 5.96321C34.1845 5.88243 34.3721 5.75975 34.529 5.6029C34.6859 5.44605 34.8086 5.25843 34.8895 5.05183C34.9703 4.84523 35.0075 4.62413 34.9987 4.40245C34.99 4.18076 34.9354 3.96329 34.8386 3.76372L33.4322 0.964366C33.2284 0.573639 32.8847 0.274215 32.4698 0.125937C32.0549 -0.0223408 31.5993 -0.00855085 31.1941 0.164551C28.9312 1.06676 26.8434 2.35755 25.0247 3.97867C23.0967 5.67615 21.6515 7.85318 20.8355 10.2892C19.9837 13.4286 19.6066 16.6779 19.717 19.929V28.353C19.7285 28.7991 19.916 29.2226 20.2384 29.5311C20.5609 29.8395 20.9922 30.008 21.4383 29.9996H32.7115C33.1576 30.008 33.5889 29.8395 33.9113 29.5311C34.2338 29.2226 34.4212 28.7991 34.4327 28.353V17.5695C34.4212 17.1234 34.2338 16.6999 33.9113 16.3915C33.5889 16.083 33.1576 15.9146 32.7115 15.9229H27.2918C27.2365 13.5435 27.9398 11.2083 29.2999 9.25544C30.5377 7.7603 32.1529 6.62359 33.9779 5.96321Z" fill="#D9C3A9"/>
</svg>
