<svg width="11" height="9" viewBox="0 0 11 9" fill="none" xmlns="http://www.w3.org/2000/svg">
<path d="M-0.000990009 4.26901C-0.00394948 4.422 0.0536667 4.56996 0.159307 4.68066C0.264947 4.79135 0.410052 4.85582 0.56301 4.86001H8.79301L6.24301 7.54901C6.13458 7.66235 6.07406 7.81316 6.07406 7.97001C6.07406 8.12687 6.13458 8.27767 6.24301 8.39101C6.29323 8.44598 6.3542 8.49004 6.42215 8.52049C6.49009 8.55094 6.56356 8.56711 6.63801 8.56801C6.71268 8.56848 6.78658 8.55292 6.85472 8.52238C6.92286 8.49185 6.98366 8.44705 7.03301 8.39101L10.542 4.69801C10.6504 4.58768 10.7112 4.43919 10.7112 4.28451C10.7112 4.12984 10.6504 3.98135 10.542 3.87101L7.03201 0.177014C6.98107 0.121744 6.91922 0.0776315 6.85037 0.047459C6.78153 0.0172865 6.70718 0.00170898 6.63201 0.00170898C6.55684 0.00170898 6.48249 0.0172865 6.41365 0.047459C6.3448 0.0776315 6.28295 0.121744 6.23201 0.177014C6.12358 0.290353 6.06306 0.441159 6.06306 0.598014C6.06306 0.754869 6.12358 0.905675 6.23201 1.01901L8.79301 3.67801H0.56301C0.410052 3.68221 0.264947 3.74667 0.159307 3.85737C0.0536667 3.96807 -0.00394948 4.11603 -0.000990009 4.26901Z" fill="#F2EDDC"/>
</svg>
