<?xml version="1.0" encoding="UTF-8" standalone="no"?>
<!-- Created with Inkscape (http://www.inkscape.org/) -->

<svg
   width="26.458317mm"
   height="26.458334mm"
   viewBox="0 0 26.458317 26.458334"
   version="1.1"
   id="svg1"
   xml:space="preserve"
   xmlns="http://www.w3.org/2000/svg"
   xmlns:svg="http://www.w3.org/2000/svg"><defs
     id="defs1" /><g
     id="layer1"
     transform="translate(-91.785784,-135.27082)"><g
       style="fill:none"
       id="g1"
       transform="matrix(0.26458333,0,0,0.26458333,91.785795,135.27083)"><path
         d="m 97.9999,50 c 0,26.5097 -21.4903,48 -48,48 C 23.4903,98 1.99994,76.5097 1.99994,50 1.99994,23.4903 23.4903,2 49.9999,2 c 26.5097,0 48,21.4903 48,48 z"
         fill="#ffffff"
         stroke="#f2eddc"
         stroke-width="4"
         id="path1" /></g><g
       style="fill:none"
       id="g3"
       transform="matrix(0.26458333,0,0,0.26458333,99.723271,143.20833)"><path
         d="m 14.1406,32.9688 h 16.4063 v 2.3437 H 14.1406 Z"
         fill="#d9c3a9"
         id="path1-1" /><path
         d="M 23.3148,2.34375 C 22.8312,0.979609 21.5279,0 20,0 18.4721,0 17.1688,0.979609 16.6852,2.34375 H 11.7969 V 4.6875 H 4.76562 V 40 H 35.2344 V 4.6875 H 28.2031 V 2.34375 Z M 14.1406,4.6875 h 4.6875 V 3.51562 c 0,-0.64617 0.5257,-1.17187 1.1719,-1.17187 0.6462,0 1.1719,0.5257 1.1719,1.17187 V 4.6875 h 4.6875 V 7.03125 H 14.1406 Z m 18.75,2.34375 V 37.6562 H 7.10938 V 7.03125 H 11.7969 V 9.375 H 28.2031 V 7.03125 Z"
         fill="#4f5955"
         id="path2-2" /><path
         d="m 14.1406,30.625 h 2.3438 v -2.3438 h 2.3437 V 18.75 H 16.4844 V 16.4062 H 14.1406 V 18.75 h -2.3437 v 9.5312 h 2.3437 z m 0,-9.5312 h 2.3438 v 4.8437 h -2.3438 z"
         fill="#d9c3a9"
         id="path3-7" /><path
         d="m 23.5156,30.625 h 2.3438 v -2.3438 h 2.3437 V 14.0625 h -2.3437 v -2.3437 h -2.3438 v 2.3437 h -2.3437 v 14.2187 h 2.3437 z m 0,-14.2188 h 2.3438 v 9.5313 h -2.3438 z"
         fill="#d9c3a9"
         id="path4-0" /><path
         d="m 9.45312,32.9688 h 2.34378 v 2.3437 H 9.45312 Z"
         fill="#d9c3a9"
         id="path5-9" /></g></g></svg>
