<?xml version="1.0" encoding="UTF-8" standalone="no"?>
<!-- Created with Inkscape (http://www.inkscape.org/) -->

<svg
   width="44.979164mm"
   height="44.97916mm"
   viewBox="0 0 44.979164 44.97916"
   version="1.1"
   id="svg1"
   xml:space="preserve"
   xmlns="http://www.w3.org/2000/svg"
   xmlns:svg="http://www.w3.org/2000/svg"><defs
     id="defs1"><linearGradient
       id="paint0_linear_170_24732"
       x1="85"
       y1="0"
       x2="85"
       y2="170"
       gradientUnits="userSpaceOnUse"><stop
         stop-color="#F8F5ED"
         id="stop1" /><stop
         offset="1"
         stop-color="#F7F7F7"
         stop-opacity="0"
         id="stop2" /></linearGradient></defs><g
     id="layer1"
     transform="translate(-82.648417,-126.01042)"><g
       style="fill:none"
       id="g1"
       transform="matrix(0.26458333,0,0,0.26458333,82.648417,126.01042)"><path
         d="m 85,170 c 46.944,0 85,-38.056 85,-85 C 170,38.0558 131.944,0 85,0 38.0558,0 0,38.0558 0,85 c 0,46.944 38.0558,85 85,85 z"
         fill="url(#paint0_linear_170_24732)"
         id="path1"
         style="fill:url(#paint0_linear_170_24732)" /></g><g
       style="fill:none"
       id="g2"
       transform="matrix(0.26458333,0,0,0.26458333,93.496294,136.32917)"><path
         d="m 70.4264,56.1528 c 9.7058,0 17.5739,-7.8564 17.5739,-17.5477 0,-9.6914 -7.8681,-17.5477 -17.5739,-17.5477 -9.7058,0 -17.5739,7.8563 -17.5739,17.5477 0,9.6913 7.8681,17.5477 17.5739,17.5477 z"
         fill="#f2eddc"
         id="path1-3" /><path
         d="m 21.5916,92 c 8.3193,0 15.0633,-6.734 15.0633,-15.0409 0,-8.3069 -6.744,-15.0409 -15.0633,-15.0409 -8.3192,0 -15.06328,6.734 -15.06328,15.0409 C 6.52832,85.266 13.2724,92 21.5916,92 Z"
         fill="#f2eddc"
         id="path2" /><path
         d="M 25.1055,50.1363 C 38.9709,50.1363 50.211,38.9129 50.211,25.0681 50.211,11.2234 38.9709,0 25.1055,0 11.2401,0 0,11.2234 0,25.0681 0,38.9129 11.2401,50.1363 25.1055,50.1363 Z"
         fill="#f2eddc"
         id="path3" /><path
         d="m 41.6752,34.5942 h -7.5316 c 0,9.6513 7.9082,17.5477 17.5738,17.5477 h 7.5317 c 0,-9.6512 -7.7827,-17.5477 -17.5739,-17.5477 z"
         fill="#ffffff"
         id="path4" /><path
         opacity="0.2"
         d="m 59.2491,52.1419 h -7.5317 c -9.6656,0 -17.5738,-7.8964 -17.5738,-17.5477 14.9377,5.3897 25.1055,17.5477 25.1055,17.5477 z"
         fill="#4f5955"
         id="path5" /><path
         d="m 59.2504,53.1445 h -7.5317 c -10.1677,0 -18.5781,-8.2725 -18.5781,-18.5505 0,-0.5013 0.3766,-1.0027 1.0042,-1.0027 h 7.5317 c 10.1677,0 18.5781,8.2725 18.5781,18.5504 0,0.6267 -0.5021,1.0028 -1.0042,1.0028 z M 35.1491,35.5968 c 0.5021,8.7738 7.7827,15.6676 16.5696,15.6676 h 6.5274 C 57.744,42.4905 50.4634,35.5968 41.6765,35.5968 Z"
         fill="#4f5955"
         id="path6" /><path
         d="m 59.2475,53.1447 c -0.251,0 -0.5021,-0.1253 -0.7531,-0.376 0,-0.1253 -6.2764,-7.3951 -15.8165,-13.0354 -0.5021,-0.2507 -0.6276,-0.8774 -0.3766,-1.2534 0.2511,-0.5014 0.8787,-0.6267 1.2553,-0.376 9.9167,5.891 16.0675,13.1607 16.3186,13.4114 0.3765,0.376 0.251,1.0027 -0.1256,1.3788 0,0.1253 -0.251,0.2506 -0.5021,0.2506 z"
         fill="#4f5955"
         id="path7" /><path
         d="m 76.8229,42.1145 h 7.5316 c 0,9.6512 -7.9082,17.5477 -17.5738,17.5477 H 59.249 c 0,-9.6512 7.9083,-17.5477 17.5739,-17.5477 z"
         fill="#ffffff"
         id="path8" /><path
         opacity="0.2"
         d="m 59.249,59.6622 h 7.5317 c 9.6656,0 17.5738,-7.8965 17.5738,-17.5477 C 69.4168,47.5042 59.249,59.6622 59.249,59.6622 Z"
         fill="#4f5955"
         id="path9" /><path
         d="m 66.781,60.665 h -7.5317 c -0.5021,0 -1.0042,-0.376 -1.0042,-1.0027 0,-10.1526 8.2848,-18.5505 18.5781,-18.5505 h 7.5317 c 0.5021,0 1.0042,0.376 1.0042,1.0027 0,10.278 -8.2848,18.5505 -18.5781,18.5505 z m -6.5274,-1.8801 h 6.5274 c 8.9125,0 16.0675,-6.8938 16.5696,-15.6676 h -6.5274 c -8.7869,0 -16.0675,6.8937 -16.5696,15.6676 z"
         fill="#4f5955"
         id="path10" /><path
         d="m 59.2491,60.6647 c -0.2511,0 -0.3766,-0.1253 -0.6276,-0.2506 -0.3766,-0.376 -0.5021,-0.8774 -0.1256,-1.3788 0.2511,-0.2507 6.4019,-7.6458 16.3186,-13.4114 0.5021,-0.2507 1.0042,-0.1254 1.2553,0.376 0.2511,0.5014 0.1255,1.0027 -0.3766,1.2534 -9.5401,5.6403 -15.8165,13.0354 -15.8165,13.0354 0,0.2507 -0.3766,0.376 -0.6276,0.376 z"
         fill="#4f5955"
         id="path11" /><path
         d="m 46.6969,60.916 h 7.5317 c 0,9.6513 -7.9083,17.5477 -17.5739,17.5477 H 29.123 c 0,-9.6512 7.9083,-17.5477 17.5739,-17.5477 z"
         fill="#ffffff"
         id="path12" /><path
         opacity="0.2"
         d="m 29.123,78.4637 h 7.5317 c 9.6656,0 17.5739,-7.8964 17.5739,-17.5477 C 39.2908,66.3057 29.123,78.4637 29.123,78.4637 Z"
         fill="#4f5955"
         id="path13" /><path
         d="m 36.655,79.4662 h -7.5316 c -0.5021,0 -1.0043,-0.376 -1.0043,-1.0027 0,-10.1526 8.2849,-18.5504 18.5781,-18.5504 h 7.5317 c 0.5021,0 1.0042,0.376 1.0042,1.0027 0,10.2779 -8.2848,18.5504 -18.5781,18.5504 z m -6.5274,-1.8801 h 6.5274 c 8.9125,0 16.0675,-6.8937 16.5697,-15.6676 h -6.5275 c -8.7869,0 -16.0675,6.8937 -16.5696,15.6676 z"
         fill="#4f5955"
         id="path14" /><path
         d="m 29.1221,79.466 c -0.251,0 -0.3765,-0.1253 -0.6276,-0.2506 -0.3766,-0.3761 -0.5021,-0.8774 -0.1255,-1.3788 0.251,-0.2507 6.4019,-7.6458 16.3186,-13.4115 0.5021,-0.2506 1.0042,-0.1253 1.2552,0.3761 0.2511,0.5013 0.1256,1.0027 -0.3765,1.2534 C 36.0262,71.6949 29.7498,79.09 29.7498,79.09 c 0,0.2507 -0.3766,0.376 -0.6277,0.376 z"
         fill="#4f5955"
         id="path15" /><path
         d="M 11.5492,53.3953 H 4.01758 c 0,9.6512 7.90822,17.5477 17.57382,17.5477 h 7.5317 c 0,-9.6513 -7.7827,-17.5477 -17.5739,-17.5477 z"
         fill="#ffffff"
         id="path16" /><path
         opacity="0.2"
         d="M 29.1231,70.943 H 21.5914 C 11.9258,70.943 4.01758,63.0465 4.01758,53.3953 18.9554,58.7849 29.1231,70.943 29.1231,70.943 Z"
         fill="#4f5955"
         id="path17" /><path
         d="m 29.1234,71.9457 h -7.5316 c -10.1678,0 -18.57813,-8.2725 -18.57813,-18.5504 0,-0.5014 0.37659,-1.0027 1.00423,-1.0027 h 7.5316 c 10.1678,0 18.5781,8.2725 18.5781,18.5504 0,0.6267 -0.5021,1.0027 -1.0042,1.0027 z M 5.02212,54.398 c 0.50211,8.7739 7.78268,15.6676 16.56968,15.6676 h 6.5274 C 27.6171,61.2918 20.3365,54.398 11.5495,54.398 Z"
         fill="#4f5955"
         id="path18" /><path
         d="m 29.1225,71.9458 c -0.251,0 -0.5021,-0.1254 -0.7531,-0.376 0,-0.1254 -6.2764,-7.3951 -15.8165,-13.0355 -0.5021,-0.2507 -0.6276,-0.8774 -0.3766,-1.2534 0.2511,-0.5013 0.8787,-0.6267 1.2553,-0.376 9.9167,5.7656 16.0675,13.1608 16.3186,13.4115 0.3765,0.376 0.251,1.0027 -0.1256,1.3787 0,0.1253 -0.251,0.2507 -0.5021,0.2507 z"
         fill="#4f5955"
         id="path19" /><path
         d="M 40.4203,85.7332 H 15.3148 c -0.5021,0 -1.0043,-0.376 -1.0043,-1.0027 0,-0.5014 0.3766,-1.0027 1.0043,-1.0027 h 25.1055 c 0.5021,0 1.0042,0.376 1.0042,1.0027 0,0.6267 -0.5021,1.0027 -1.0042,1.0027 z"
         fill="#4f5955"
         id="path20" /><path
         d="M 64.2709,85.7332 H 45.4417 c -0.5021,0 -1.0042,-0.376 -1.0042,-1.0027 0,-0.5014 0.3766,-1.0027 1.0042,-1.0027 h 18.8292 c 0.5021,0 1.0042,0.376 1.0042,1.0027 0,0.6267 -0.5021,1.0027 -1.0042,1.0027 z"
         fill="#4f5955"
         id="path21" /><path
         d="m 73.0572,85.7332 h -3.7659 c -0.5021,0 -1.0042,-0.376 -1.0042,-1.0027 0,-0.5014 0.3766,-1.0027 1.0042,-1.0027 h 3.7659 c 0.5021,0 1.0042,0.376 1.0042,1.0027 0,0.6267 -0.5021,1.0027 -1.0042,1.0027 z"
         fill="#4f5955"
         id="path22" /><path
         d="m 59.2494,32.0874 c 7.626,0 13.8081,-6.1729 13.8081,-13.7875 0,-7.6146 -6.1821,-13.78745 -13.8081,-13.78745 -7.6259,0 -13.808,6.17285 -13.808,13.78745 0,7.6146 6.1821,13.7875 13.808,13.7875 z"
         fill="#ffffff"
         id="path23" /><path
         opacity="0.2"
         d="m 73.0569,18.2996 c 0,-1.7548 -0.3766,-3.3842 -0.8787,-4.8883 -1.5063,-0.6267 -3.1382,-0.8774 -4.8956,-0.8774 -7.6571,0 -13.808,6.1417 -13.808,13.7875 0,1.7548 0.3766,3.3842 0.8787,4.8883 1.5063,0.6267 3.1382,0.8774 4.8956,0.8774 7.6571,0 13.808,-6.1417 13.808,-13.7875 z"
         fill="#4f5955"
         id="path24" /><path
         d="m 59.2498,33.0899 c -8.1593,0 -14.8123,-6.643 -14.8123,-14.7902 0,-8.1471 6.653,-14.79018 14.8123,-14.79018 8.1592,0 14.8122,6.64308 14.8122,14.79018 0,8.1472 -6.653,14.7902 -14.8122,14.7902 z m 0,-27.57492 c -7.1551,0 -12.9294,5.76572 -12.9294,12.91012 0,7.1444 5.7743,12.9101 12.9294,12.9101 7.155,0 12.9293,-5.7657 12.9293,-12.9101 0,-7.1444 -5.7743,-12.91012 -12.9293,-12.91012 z"
         fill="#4f5955"
         id="path25" /><path
         d="m 67.9106,19.4277 c 0.6236,0 1.1292,-0.505 1.1292,-1.128 0,-0.623 -0.5056,-1.1281 -1.1292,-1.1281 -0.6237,0 -1.1294,0.5051 -1.1294,1.1281 0,0.623 0.5057,1.128 1.1294,1.128 z"
         fill="#4f5955"
         id="path26" /><path
         d="m 50.7123,19.4277 c 0.6237,0 1.1293,-0.505 1.1293,-1.128 0,-0.623 -0.5056,-1.1281 -1.1293,-1.1281 -0.6237,0 -1.1293,0.5051 -1.1293,1.1281 0,0.623 0.5056,1.128 1.1293,1.128 z"
         fill="#4f5955"
         id="path27" /><path
         d="m 59.2486,26.5722 c -2.0084,0 -3.8913,-1.1281 -4.6445,-2.8829 -0.251,-0.5013 0,-1.0027 0.5021,-1.2534 0.5021,-0.2506 1.0042,0 1.2553,0.5014 0.5021,1.0027 1.6319,1.7548 2.8871,1.7548 1.7574,0 3.1382,-1.2535 3.1382,-2.7575 0,-1.2535 -0.5021,-2.7575 -3.1382,-2.7575 -3.6403,0 -5.0211,-2.3815 -5.0211,-4.6376 0,-2.5069 2.2595,-4.63764 5.0211,-4.63764 2.0085,0 3.8914,1.12804 4.6446,2.88284 0.251,0.5014 0,1.0027 -0.5021,1.2534 -0.5022,0.2507 -1.0043,0 -1.2553,-0.5014 -0.5021,-1.0027 -1.6319,-1.7547 -2.8872,-1.7547 -1.7573,0 -3.1381,1.2534 -3.1381,2.7575 0,1.2534 0.5021,2.7575 3.1381,2.7575 3.6403,0 5.0211,2.3814 5.0211,4.6376 0,2.6321 -2.2595,4.6376 -5.0211,4.6376 z"
         fill="#4f5955"
         id="path28" /><path
         d="m 59.2489,12.0324 c -0.5019,0 -1.0038,-0.376 -1.0038,-1.0027 V 9.02421 c 0,-0.50136 0.3765,-1.00273 1.0038,-1.00273 0.5019,0 1.0039,0.37603 1.0039,1.00273 v 2.00549 c 0,0.5013 -0.502,1.0027 -1.0039,1.0027 z"
         fill="#4f5955"
         id="path29" /><path
         d="m 59.2489,28.5778 c -0.5019,0 -1.0038,-0.376 -1.0038,-1.0027 v -2.0055 c 0,-0.5013 0.3765,-1.0027 1.0038,-1.0027 0.5019,0 1.0039,0.376 1.0039,1.0027 v 2.0055 c 0,0.6267 -0.502,1.0027 -1.0039,1.0027 z"
         fill="#4f5955"
         id="path30" /><path
         d="m 29.1225,51.0139 c 7.6259,0 13.808,-6.1728 13.808,-13.7875 0,-7.6146 -6.1821,-13.7874 -13.808,-13.7874 -7.626,0 -13.808,6.1728 -13.808,13.7874 0,7.6147 6.182,13.7875 13.808,13.7875 z"
         fill="#ffffff"
         id="path31" /><path
         opacity="0.2"
         d="m 42.9299,37.2264 c 0,-1.7548 -0.3765,-3.3842 -0.8786,-4.8883 -1.5064,-0.6267 -3.1382,-0.8774 -4.8956,-0.8774 -7.6572,0 -13.808,6.1417 -13.808,13.7875 0,1.7547 0.3765,3.3842 0.8786,4.8883 1.5064,0.6267 3.1382,0.8774 4.8956,0.8774 7.6572,0 13.808,-6.2671 13.808,-13.7875 z"
         fill="#4f5955"
         id="path32" /><path
         d="m 29.1228,51.8912 c -8.1593,0 -14.8123,-6.643 -14.8123,-14.7902 0,-8.1471 6.653,-14.7902 14.8123,-14.7902 8.1593,0 14.8123,6.6431 14.8123,14.7902 0,8.1472 -6.653,14.7902 -14.8123,14.7902 z m 0,-27.5749 c -7.1551,0 -12.9293,5.7656 -12.9293,12.9101 0,7.1444 5.7742,12.91 12.9293,12.91 7.1551,0 12.9293,-5.7656 12.9293,-12.91 0,-7.1445 -5.7742,-12.9101 -12.9293,-12.9101 z"
         fill="#4f5955"
         id="path33" /><path
         d="m 37.7836,38.3543 c 0.6237,0 1.1293,-0.5051 1.1293,-1.1281 0,-0.623 -0.5056,-1.1281 -1.1293,-1.1281 -0.6237,0 -1.1293,0.5051 -1.1293,1.1281 0,0.623 0.5056,1.1281 1.1293,1.1281 z"
         fill="#4f5955"
         id="path34" /><path
         d="m 20.5863,38.3543 c 0.6237,0 1.1293,-0.5051 1.1293,-1.1281 0,-0.623 -0.5056,-1.1281 -1.1293,-1.1281 -0.6237,0 -1.1293,0.5051 -1.1293,1.1281 0,0.623 0.5056,1.1281 1.1293,1.1281 z"
         fill="#4f5955"
         id="path35" /><path
         d="m 29.1227,45.3732 c -2.0085,0 -3.8914,-1.1281 -4.6446,-2.8828 -0.251,-0.5014 0,-1.0028 0.5022,-1.2534 0.5021,-0.2507 1.0042,-1e-4 1.2552,0.5013 0.5021,1.0027 1.6319,1.7548 2.8872,1.7548 1.7574,0 3.1382,-1.2534 3.1382,-2.7575 0,-1.2534 -0.5022,-2.7575 -3.1382,-2.7575 -3.6403,0 -5.0211,-2.3815 -5.0211,-4.6376 0,-2.5068 2.2595,-4.6376 5.0211,-4.6376 2.0084,0 3.8913,1.1281 4.6445,2.8828 0.251,0.5014 0,1.0027 -0.5021,1.2534 -0.5021,0.2507 -1.0042,0 -1.2553,-0.5013 -0.5021,-1.0028 -1.6319,-1.7548 -2.8871,-1.7548 -1.7574,0 -3.1382,1.2534 -3.1382,2.7575 0,1.2534 0.5021,2.7575 3.1382,2.7575 3.6403,0 5.0211,2.3814 5.0211,4.6376 0,2.6321 -2.2595,4.6376 -5.0211,4.6376 z"
         fill="#4f5955"
         id="path36" /><path
         d="m 29.123,30.8337 c -0.5019,0 -1.0039,-0.3761 -1.0039,-1.0028 v -2.0054 c 0,-0.5014 0.3765,-1.0027 1.0039,-1.0027 0.5019,0 1.0038,0.376 1.0038,1.0027 v 2.0054 c 0,0.5014 -0.5019,1.0028 -1.0038,1.0028 z"
         fill="#4f5955"
         id="path37" /><path
         d="m 29.123,47.3791 c -0.5019,0 -1.0039,-0.3761 -1.0039,-1.0028 v -2.0054 c 0,-0.5014 0.3765,-1.0027 1.0039,-1.0027 0.5019,0 1.0038,0.376 1.0038,1.0027 v 2.0054 c 0,0.6267 -0.5019,1.0028 -1.0038,1.0028 z"
         fill="#4f5955"
         id="path38" /><path
         d="m 59.2489,85.733 c -0.5019,0 -1.0038,-0.376 -1.0038,-1.0027 V 32.0872 c 0,-0.5014 0.3765,-1.0027 1.0038,-1.0027 0.5019,0 1.0039,0.376 1.0039,1.0027 v 52.6431 c 0,0.6267 -0.502,1.0027 -1.0039,1.0027 z"
         fill="#4f5955"
         id="path39" /><path
         d="m 29.123,85.7332 c -0.5019,0 -1.0039,-0.376 -1.0039,-1.0027 v -33.842 c 0,-0.5014 0.3765,-1.0028 1.0039,-1.0028 0.5019,0 1.0038,0.3761 1.0038,1.0028 v 33.842 c 0,0.6267 -0.5019,1.0027 -1.0038,1.0027 z"
         fill="#4f5955"
         id="path40" /><path
         d="m 35.4002,17.1716 c 1.3865,0 2.5106,-1.1224 2.5106,-2.5068 0,-1.3845 -1.1241,-2.5068 -2.5106,-2.5068 -1.3865,0 -2.5106,1.1223 -2.5106,2.5068 0,1.3844 1.1241,2.5068 2.5106,2.5068 z"
         fill="#ffffff"
         id="path41" /><path
         d="m 35.3986,18.0491 c -1.8829,0 -3.5148,-1.5041 -3.5148,-3.5095 0,-1.8801 1.5063,-3.5096 3.5148,-3.5096 2.0084,0 3.5147,1.5041 3.5147,3.5096 0,2.0054 -1.6318,3.5095 -3.5147,3.5095 z m 0,-5.0136 c -0.8787,0 -1.6319,0.752 -1.6319,1.6294 0,0.8774 0.7532,1.6294 1.6319,1.6294 0.8787,0 1.6318,-0.752 1.6318,-1.6294 0,-0.8774 -0.7531,-1.6294 -1.6318,-1.6294 z"
         fill="#4f5955"
         id="path42" /><path
         d="m 75.5682,35.9726 c 1.3865,0 2.5105,-1.1223 2.5105,-2.5068 0,-1.3845 -1.124,-2.5068 -2.5105,-2.5068 -1.3866,0 -2.5106,1.1223 -2.5106,2.5068 0,1.3845 1.124,2.5068 2.5106,2.5068 z"
         fill="#ffffff"
         id="path43" /><path
         d="m 75.5675,36.8504 c -1.8829,0 -3.5148,-1.5041 -3.5148,-3.5096 0,-1.8801 1.5064,-3.5095 3.5148,-3.5095 2.0085,0 3.5148,1.5041 3.5148,3.5095 0,2.0055 -1.5063,3.5096 -3.5148,3.5096 z m 0,-5.0136 c -0.8787,0 -1.6319,0.752 -1.6319,1.6294 0,0.8774 0.7532,1.6294 1.6319,1.6294 0.8787,0 1.6319,-0.752 1.6319,-1.6294 0,-0.8774 -0.7532,-1.6294 -1.6319,-1.6294 z"
         fill="#4f5955"
         id="path44" /><path
         d="m 69.2918,71.0683 c 1.3865,0 2.5106,-1.1223 2.5106,-2.5068 0,-1.3845 -1.1241,-2.5068 -2.5106,-2.5068 -1.3865,0 -2.5106,1.1223 -2.5106,2.5068 0,1.3845 1.1241,2.5068 2.5106,2.5068 z"
         fill="#ffffff"
         id="path45" /><path
         d="m 69.2911,71.9456 c -1.8829,0 -3.5147,-1.5041 -3.5147,-3.5096 0,-1.8801 1.5063,-3.5095 3.5147,-3.5095 2.0085,0 3.5148,1.5041 3.5148,3.5095 0,2.0055 -1.5063,3.5096 -3.5148,3.5096 z m 0,-5.0137 c -0.8787,0 -1.6318,0.7521 -1.6318,1.6295 0,0.8774 0.7531,1.6294 1.6318,1.6294 0.8787,0 1.6319,-0.752 1.6319,-1.6294 0,-0.8774 -0.7532,-1.6295 -1.6319,-1.6295 z"
         fill="#4f5955"
         id="path46" /><path
         d="m 79.3348,78.5886 c 1.3865,0 2.5105,-1.1224 2.5105,-2.5068 0,-1.3845 -1.124,-2.5068 -2.5105,-2.5068 -1.3866,0 -2.5106,1.1223 -2.5106,2.5068 0,1.3844 1.124,2.5068 2.5106,2.5068 z"
         fill="#ffffff"
         id="path47" /><path
         d="m 79.3341,79.4661 c -1.8829,0 -3.5148,-1.5041 -3.5148,-3.5096 0,-1.8801 1.5064,-3.5095 3.5148,-3.5095 2.0085,0 3.5148,1.5041 3.5148,3.5095 0,2.0055 -1.5063,3.5096 -3.5148,3.5096 z m 0,-5.0137 c -0.8787,0 -1.6319,0.7521 -1.6319,1.6295 0,0.8774 0.7532,1.6294 1.6319,1.6294 0.8787,0 1.6319,-0.752 1.6319,-1.6294 0,-0.8774 -0.7532,-1.6295 -1.6319,-1.6295 z"
         fill="#4f5955"
         id="path48" /><path
         d="m 20.3348,12.1579 c 1.3865,0 2.5105,-1.1223 2.5105,-2.5068 0,-1.38447 -1.124,-2.50681 -2.5105,-2.50681 -1.3866,0 -2.5106,1.12234 -2.5106,2.50681 0,1.3845 1.124,2.5068 2.5106,2.5068 z"
         fill="#ffffff"
         id="path49" /><path
         d="m 20.3361,13.0354 c -1.8829,0 -3.5148,-1.504 -3.5148,-3.5095 0,-1.88011 1.5063,-3.50954 3.5148,-3.50954 2.0084,0 3.5147,1.50409 3.5147,3.50954 0,2.0055 -1.6318,3.5095 -3.5147,3.5095 z m 0,-5.01358 c -0.8787,0 -1.6319,0.75205 -1.6319,1.62943 0,0.87735 0.7532,1.62945 1.6319,1.62945 0.8787,0 1.6318,-0.7521 1.6318,-1.62945 0,-0.87738 -0.7531,-1.62943 -1.6318,-1.62943 z"
         fill="#4f5955"
         id="path50" /><path
         d="m 10.2938,25.9455 c 1.3865,0 2.5105,-1.1223 2.5105,-2.5068 0,-1.3845 -1.124,-2.5068 -2.5105,-2.5068 -1.38658,0 -2.5106,1.1223 -2.5106,2.5068 0,1.3845 1.12402,2.5068 2.5106,2.5068 z"
         fill="#ffffff"
         id="path51" /><path
         d="m 10.2941,26.823 c -1.88294,0 -3.5148,-1.504 -3.5148,-3.5095 0,-1.8801 1.50633,-3.5095 3.5148,-3.5095 2.0084,0 3.5147,1.504 3.5147,3.5095 0,2.0055 -1.6318,3.5095 -3.5147,3.5095 z m 0,-5.0136 c -0.87872,0 -1.63189,0.7521 -1.63189,1.6294 0,0.8774 0.75317,1.6295 1.63189,1.6295 0.8787,0 1.6318,-0.7521 1.6318,-1.6295 0,-0.8773 -0.7531,-1.6294 -1.6318,-1.6294 z"
         fill="#4f5955"
         id="path52" /><path
         d="m 15.3143,79.8422 c 1.3865,0 2.5105,-1.1223 2.5105,-2.5068 0,-1.3844 -1.124,-2.5068 -2.5105,-2.5068 -1.3866,0 -2.5106,1.1224 -2.5106,2.5068 0,1.3845 1.124,2.5068 2.5106,2.5068 z"
         fill="#ffffff"
         id="path53" /><path
         d="m 15.3146,80.7195 c -1.8829,0 -3.5148,-1.5041 -3.5148,-3.5095 0,-1.8801 1.5063,-3.5096 3.5148,-3.5096 2.0084,0 3.5148,1.5041 3.5148,3.5096 0,2.0054 -1.6319,3.5095 -3.5148,3.5095 z m 0,-5.0136 c -0.8787,0 -1.6319,0.752 -1.6319,1.6294 0,0.8774 0.7532,1.6294 1.6319,1.6294 0.8787,0 1.6318,-0.752 1.6318,-1.6294 0,-0.8774 -0.7531,-1.6294 -1.6318,-1.6294 z"
         fill="#4f5955"
         id="path54" /></g></g></svg>
