<svg width="170" height="61" viewBox="0 0 170 61" fill="none" xmlns="http://www.w3.org/2000/svg">
<path d="M61.8637 18.5137C61.8641 18.5148 61.8644 18.516 61.8644 18.5172C61.8644 18.5184 61.8641 18.5196 61.8637 18.5208C63.6229 23.6531 64.2607 29.1092 63.7333 34.5141L63.6581 34.4442C57.9248 6.35775 33.4356 5.26554 32.418 5.23113C54.2566 4.26343 61.6782 18.1634 61.8637 18.5137Z" fill="#EBEBEB"/>
<path d="M63.6622 34.446C54.8531 10.8508 32.4221 5.23291 32.4221 5.23291C33.4406 5.26733 57.9298 6.35953 63.6622 34.446Z" fill="#BBBBBB"/>
<path d="M65.3043 32.1897L65.3444 32.1289C83.9138 25.0139 81.9419 7.81912 81.8516 7.10549C81.8527 7.10294 81.8533 7.10017 81.8533 7.09738C81.8533 7.0946 81.8527 7.09184 81.8516 7.08929V7.0822L81.7514 7.01438C66.7308 9.97516 63.9429 20.6623 63.8747 20.9326C63.8747 20.9184 63.8747 20.9063 63.8747 20.8911C63.8998 20.6947 63.9258 20.5034 63.9539 20.3131C63.9739 20.1846 63.995 20.055 64.015 19.9285C64.0441 19.7736 64.0722 19.6248 64.1033 19.4659L64.1604 19.1906C64.1815 19.0995 64.1995 19.0084 64.2206 18.9172C64.2416 18.8261 64.2637 18.732 64.2867 18.6409C64.3098 18.5498 64.3328 18.4577 64.3559 18.3686C64.379 18.2795 64.402 18.2026 64.4241 18.1176C64.4371 18.068 64.4501 18.0164 64.4642 17.9708C64.4902 17.8858 64.5143 17.8008 64.5394 17.7188C64.6065 17.5032 64.6737 17.2936 64.7469 17.0871C64.7759 17.0011 64.805 16.9181 64.8361 16.8351C64.8672 16.7521 64.8962 16.6691 64.9283 16.5871C64.9885 16.4231 65.0546 16.2601 65.1208 16.1002C65.1549 16.0213 65.189 15.9423 65.221 15.8603L65.2752 15.7429L65.3273 15.6255C65.4075 15.4483 65.4877 15.2762 65.5719 15.1062L65.6822 14.8835C65.7283 14.7924 65.7825 14.7023 65.8246 14.6112C65.9248 14.4341 66.0181 14.259 66.1173 14.0859C66.1674 13.9998 66.2176 13.9158 66.2687 13.8288C66.2947 13.7842 66.3228 13.7366 66.3509 13.6941L66.3669 13.6648C66.5464 13.3722 66.7358 13.0878 66.9273 12.8115C67.0155 12.6829 67.1058 12.5574 67.198 12.4309C67.2702 12.3357 67.3414 12.2385 67.4155 12.1444C67.4386 12.112 67.4657 12.0766 67.4907 12.0432C67.581 11.9288 67.6712 11.8144 67.7634 11.702C67.8536 11.5897 67.9469 11.4804 68.0401 11.37L68.0622 11.3457C68.1624 11.2303 68.2627 11.119 68.3629 11.0077C68.4431 10.9186 68.5253 10.8295 68.6075 10.7425C68.6412 10.7011 68.6773 10.6619 68.7158 10.625C68.793 10.544 68.8672 10.4651 68.9454 10.3861C68.9634 10.3659 68.9835 10.3467 69.0025 10.3295C69.1028 10.2282 69.203 10.127 69.2962 10.0349C69.2962 10.0298 69.3063 10.0268 69.3083 10.0238C69.3915 9.94177 69.4777 9.86079 69.5639 9.77981C69.617 9.7292 69.6722 9.67858 69.7253 9.62999C69.8145 9.54395 69.9078 9.46198 70.001 9.381C70.0942 9.30002 70.1945 9.20688 70.2937 9.12388C70.393 9.04087 70.4942 8.95383 70.5945 8.87184C70.6336 8.83944 70.6757 8.80603 70.7168 8.77061C70.792 8.71088 70.8672 8.64915 70.9434 8.58639C71.3444 8.27057 71.7454 7.96994 72.1524 7.6855L72.3789 7.53063C73.0276 7.08626 73.6822 6.68238 74.3429 6.31595C74.4231 6.26939 74.5023 6.22585 74.5845 6.18131C74.8541 6.03049 75.1258 5.88676 75.3955 5.7501L75.7123 5.58714C76.0344 5.42586 76.3549 5.27334 76.6737 5.1296C76.7739 5.08202 76.8742 5.04053 76.9744 4.99599C77.0486 4.96057 77.1238 4.92918 77.199 4.89477C77.2932 4.85124 77.3855 4.81278 77.4787 4.7733C77.6281 4.70852 77.7795 4.64879 77.9218 4.58907C78.0411 4.53947 78.1604 4.49392 78.2777 4.44533C78.395 4.39675 78.5123 4.35322 78.6296 4.30767C78.7469 4.26212 78.8601 4.22062 78.9734 4.17811C79.0867 4.1356 79.2 4.09409 79.3133 4.05461L79.6471 3.93617C79.6621 3.92909 79.6812 3.92605 79.6962 3.91897C80.013 3.81066 80.3148 3.71653 80.6095 3.61531C80.7098 3.5819 80.81 3.55154 80.9103 3.52117C81.1248 3.45335 81.3343 3.39261 81.5368 3.33693L81.7774 3.26709C82.1444 3.16587 82.4872 3.07578 82.799 2.99683L82.9353 2.96544C83.0436 2.93811 83.1459 2.91483 83.2451 2.89155L83.4456 2.84398C83.6461 2.80011 83.8256 2.76165 83.984 2.72858C84.0381 2.71745 84.0842 2.70732 84.1363 2.69922C84.4261 2.64051 84.6296 2.60712 84.7378 2.58789C84.7669 2.71341 84.8241 2.96949 84.8982 3.343C84.9093 3.39767 84.9213 3.45536 84.9303 3.51306C85.0205 3.97767 85.1308 4.59514 85.2241 5.32901C85.2481 5.51223 85.2722 5.70354 85.2962 5.90093C85.3073 6.00215 85.3183 6.10338 85.3303 6.2046C85.3514 6.40705 85.3724 6.61962 85.3935 6.83725C85.4737 7.70676 85.5308 8.67546 85.5439 9.71402C85.5439 9.84358 85.5439 9.97416 85.5439 10.1047C85.5439 10.371 85.5439 10.6372 85.5338 10.9084C85.5338 11.0441 85.5338 11.1797 85.5238 11.3184C85.5008 11.9561 85.4566 12.6131 85.3915 13.2811C85.3845 13.3824 85.3734 13.4836 85.3614 13.5777C85.326 13.9151 85.2839 14.2559 85.2351 14.6001C85.2221 14.6952 85.206 14.7873 85.191 14.8825C85.1078 15.423 85.0065 15.9717 84.8902 16.5183C84.8231 16.8169 84.7519 17.1124 84.6747 17.41C84.6015 17.6884 84.5233 17.9688 84.4411 18.2482C84.3589 18.5275 84.2687 18.8029 84.1734 19.0802C84.1474 19.1551 84.1223 19.231 84.0942 19.3039C83.4976 21.0168 82.661 22.6346 81.61 24.108C81.5098 24.2558 81.3965 24.4015 81.2832 24.5483C81.1699 24.6951 81.0586 24.8388 80.9404 24.9815L80.7629 25.1931C80.6419 25.3362 80.5186 25.4772 80.393 25.6162C80.3308 25.6861 80.2667 25.7559 80.2025 25.8187C80.1383 25.8814 80.0882 25.9391 80.0301 26.0029L79.4877 26.5394C79.4266 26.5991 79.3634 26.6568 79.2993 26.7145C79.2351 26.7722 79.1719 26.8319 79.1088 26.8876C79.0456 26.9433 78.9815 27.003 78.9153 27.0587C78.7148 27.2307 78.5143 27.3988 78.3138 27.5648C78.1133 27.7308 77.8907 27.8917 77.6712 28.0486C77.587 28.1094 77.5068 28.1681 77.4226 28.2268C77.3564 28.2713 77.2912 28.3169 77.2221 28.3614C77.1529 28.4059 77.0717 28.4626 76.9925 28.5142C76.9133 28.5659 76.8391 28.6155 76.7599 28.6641C76.6045 28.7653 76.4431 28.8665 76.2827 28.9576C76.2025 29.0042 76.1243 29.0528 76.0411 29.0963C72.7255 30.8984 69.0625 31.9537 65.3043 32.1897Z" fill="#BBBBBB"/>
<path d="M32.389 5.23396L32.2717 5.35949C32.9484 25.9079 45.3875 32.8771 47.4035 33.8741L47.4697 33.8843C47.4827 33.8864 47.4954 33.8898 47.5078 33.8944H47.4486C47.5729 33.9541 47.6491 33.9885 47.6732 33.9956C47.6521 33.9956 47.6351 33.9855 47.618 33.9814L47.3103 33.8873C45.7664 33.8772 35.8075 34.3408 29.0647 47.0362L29.0997 47.1486C29.1036 47.1523 29.1085 47.1548 29.1138 47.1557C33.4692 48.9636 38.262 49.4092 42.8712 48.4346C47.4803 47.46 51.6934 45.1101 54.9644 41.6896C42.5764 59.7438 24.3118 48.8086 24 48.6204C24.0521 48.5262 24.1414 48.3379 24.2837 48.0768C24.3048 48.0312 24.3288 47.9867 24.3559 47.9371C24.4351 47.7903 24.5253 47.6334 24.6246 47.4523C24.6586 47.3925 24.6937 47.3338 24.7248 47.2711C24.7769 47.181 24.8251 47.0899 24.8872 46.9917C24.9113 46.9502 24.9353 46.9117 24.9564 46.8702C25.1258 46.5908 25.3083 46.2882 25.5158 45.9592C25.5569 45.8894 25.606 45.8195 25.6501 45.7466C25.7644 45.5685 25.8817 45.3843 26.009 45.199L26.1885 44.9338C26.3679 44.6797 26.5474 44.4186 26.7449 44.1422C26.756 44.129 26.7664 44.1152 26.7759 44.1007L26.9865 43.8143C27.0586 43.7131 27.1318 43.623 27.204 43.5217C27.2762 43.4205 27.3524 43.3264 27.4286 43.2282C27.5048 43.13 27.584 43.0257 27.6632 42.9245C27.7424 42.8233 27.8185 42.7221 27.9018 42.6208C28.002 42.4994 28.1023 42.3739 28.2025 42.2473C28.2677 42.1674 28.3338 42.0904 28.403 42.0135C28.4551 41.9508 28.5033 41.885 28.5624 41.8252C28.6316 41.7412 28.7008 41.6613 28.7759 41.5772C29.0038 41.3127 29.2421 41.0478 29.4907 40.7826C29.5739 40.6986 29.6571 40.6116 29.7393 40.5245C29.9469 40.3049 30.1644 40.0852 30.385 39.8686C30.4501 39.8028 30.5163 39.74 30.5855 39.6773C31.1278 39.1509 31.7043 38.6347 32.3158 38.1397C32.389 38.084 32.4581 38.0243 32.5303 37.9686C32.9203 37.6579 33.3243 37.3552 33.7393 37.0657C33.8226 37.01 33.9048 36.9574 33.981 36.9017C34.0261 36.8734 34.0702 36.842 34.1123 36.8147C34.2226 36.7408 34.3298 36.6709 34.4401 36.6021C34.5504 36.5333 34.6576 36.4624 34.7679 36.3997C34.8782 36.3369 34.9784 36.2671 35.0857 36.2073C35.1479 36.1689 35.21 36.1304 35.2752 36.0919C35.3754 36.0322 35.4757 35.9765 35.5759 35.9178C35.5759 35.9178 35.583 35.9178 35.59 35.9107C35.7073 35.845 35.8316 35.7781 35.9559 35.7154C35.9782 35.7012 36.0013 35.6884 36.0251 35.6769C36.1253 35.6212 36.2256 35.5757 36.3258 35.5231C36.3709 35.4988 36.419 35.4745 36.4672 35.4532C36.5744 35.4006 36.6817 35.3449 36.792 35.2963C36.9263 35.2336 37.0576 35.1708 37.193 35.108C37.2039 35.1048 37.2144 35.1 37.2241 35.0939L37.6251 34.9269C37.7564 34.8712 37.8907 34.8155 38.0261 34.7629C38.0642 34.7487 38.1053 34.7315 38.1434 34.7214C38.2576 34.6758 38.3679 34.6374 38.4822 34.5959C38.6276 34.5432 38.7719 34.4946 38.9213 34.4461C39.2391 34.3448 39.5639 34.2436 39.8947 34.1565C39.9054 34.1559 39.9159 34.1535 39.9258 34.1495C39.9739 34.1353 40.0261 34.1211 40.0772 34.111L40.3639 34.0371C40.5574 33.9916 40.7509 33.9501 40.9474 33.9116C41.0476 33.8944 41.1479 33.8731 41.2481 33.8519L41.4897 33.8134C41.6762 33.782 41.8627 33.7537 42.0521 33.7294C42.0932 33.7223 42.1383 33.7193 42.1795 33.7152C42.2206 33.7112 42.2657 33.701 42.3068 33.698C42.393 33.6909 42.4762 33.6808 42.5624 33.6697C42.7355 33.6521 42.9083 33.6383 43.0807 33.6282C43.1669 33.6211 43.2531 33.614 43.3434 33.6109L43.606 33.6008C43.8236 33.5907 44.0451 33.5867 44.2657 33.5867C44.3519 33.5867 44.4381 33.5867 44.5283 33.5867C44.5764 33.5867 44.6286 33.5867 44.6767 33.5937C44.7629 33.5937 44.8491 33.5937 44.9363 33.6008C45.0236 33.6079 45.1188 33.6079 45.212 33.615C45.3053 33.6221 45.4025 33.6251 45.4957 33.6322L45.7714 33.6535L46.0481 33.6818C46.2035 33.696 46.3589 33.7162 46.5143 33.7304C46.6386 33.7517 46.7659 33.7689 46.8942 33.7861C46.9564 33.7962 47.0185 33.8033 47.0847 33.8175L46.8221 33.7334C46.6496 33.6778 46.4732 33.618 46.3008 33.5593C46.0902 33.4854 45.8827 33.4095 45.6762 33.3326L45.3003 33.1858L44.9343 33.039L44.5614 32.8822C44.4411 32.8265 44.3168 32.7738 44.1955 32.7222C44.0742 32.6706 43.9749 32.621 43.8606 32.5694C43.7955 32.538 43.7293 32.5066 43.6672 32.4752L43.3283 32.3112C43.0446 32.1685 42.7659 32.0218 42.4922 31.8719C42.382 31.8122 42.2717 31.7495 42.1614 31.6908C42.0511 31.632 41.9439 31.5652 41.8366 31.5025C41.6231 31.377 41.4085 31.2474 41.198 31.1158C41.0977 31.0483 40.9942 30.9808 40.8872 30.9133C40.8391 30.8789 40.787 30.8435 40.7358 30.8121C40.6847 30.7807 40.6356 30.7423 40.5845 30.7109C40.3559 30.5581 40.1353 30.4012 39.9148 30.2432C39.8145 30.1734 39.7213 30.1036 39.6281 30.0337C39.5108 29.9497 39.3935 29.8596 39.2792 29.7685C39.0516 29.5944 38.8311 29.4162 38.6125 29.2351C38.5023 29.145 38.395 29.0539 38.2877 28.9597C38.2286 28.9142 38.1704 28.8585 38.1183 28.813C38.1049 28.8034 38.0922 28.7929 38.0802 28.7816C37.7143 28.4607 37.3554 28.1257 37.0135 27.7876C36.8551 27.6347 36.6997 27.4768 36.5434 27.3169C36.4261 27.1914 36.3088 27.0699 36.1915 26.9434C36.1504 26.9019 36.1083 26.8563 36.0702 26.8108C35.9288 26.6579 35.7905 26.5071 35.6561 26.3472C35.5178 26.1906 35.3841 26.0337 35.2551 25.8765C35.2447 25.8645 35.2353 25.8517 35.2271 25.838C35.0857 25.674 34.9504 25.507 34.819 25.34C34.7118 25.2033 34.6085 25.0677 34.5053 24.9351C34.4561 24.8771 34.4099 24.8167 34.3669 24.7539C34.2667 24.6284 34.1734 24.5029 34.0842 24.3743C34.0601 24.3399 34.0391 24.3085 34.015 24.2731C33.8977 24.1121 33.7835 23.9522 33.6732 23.7882C33.6673 23.782 33.6626 23.7748 33.6592 23.767C33.5589 23.6303 33.4697 23.4916 33.3754 23.3489C33.3163 23.2619 33.2581 23.1748 33.203 23.0837C33.1028 22.9369 33.0095 22.7871 32.9163 22.6343C32.8231 22.4814 32.7158 22.3205 32.6226 22.1606C32.5293 22.0006 32.4331 21.8427 32.3398 21.6828C32.3048 21.617 32.2667 21.5502 32.2286 21.4803L32.0201 21.123C31.6682 20.4853 31.3403 19.8395 31.0356 19.1947C30.9768 19.0759 30.9216 18.9575 30.8702 18.8394C30.394 17.811 29.9789 16.7826 29.609 15.7602C29.5639 15.6347 29.5188 15.5122 29.4747 15.3867C29.3263 14.9646 29.188 14.5465 29.0566 14.1315C29.0045 13.9675 28.9564 13.8035 28.9053 13.6396C28.7499 13.1446 28.6115 12.6526 28.4802 12.1678C28.4391 12.0149 28.401 11.8641 28.3599 11.7082C28.3318 11.5959 28.3008 11.4845 28.2737 11.3701C28.2396 11.2274 28.2015 11.0837 28.1734 10.945C28.1183 10.7152 28.0662 10.4915 28.018 10.2719C27.9729 10.0876 27.9348 9.90948 27.8977 9.72829C27.8607 9.5471 27.8216 9.37603 27.7875 9.19788C27.7534 9.01972 27.7153 8.84865 27.6872 8.6786C27.6591 8.50854 27.6221 8.33647 27.587 8.16641C27.5519 7.99636 27.5248 7.82832 27.4967 7.66029C27.4897 7.63904 27.4897 7.6117 27.4827 7.58741C27.4035 7.11672 27.3313 6.66021 27.2692 6.21685C27.2481 6.064 27.2281 5.91318 27.207 5.76033C27.1619 5.44249 27.1238 5.1287 27.0897 4.82908C27.0757 4.70761 27.0617 4.58513 27.0486 4.46974C26.9895 3.92212 26.9414 3.41296 26.9033 2.95139C26.9033 2.88559 26.8932 2.81877 26.8892 2.74893C26.8752 2.58899 26.8652 2.43513 26.8551 2.28836C26.8551 2.18713 26.8451 2.08592 26.8381 1.9847C26.8211 1.6952 26.807 1.43 26.797 1.19313C26.797 1.11317 26.79 1.04029 26.79 0.970441C26.7759 0.545302 26.7729 0.244659 26.7689 0.0877629C26.9484 0.0735916 27.3213 0.0493076 27.8606 0.0280507C27.9398 0.0280507 28.0231 0.0209612 28.1023 0.0209612C28.7759 -0.00333242 29.6632 -0.0104181 30.7088 0.0209612C30.9714 0.0209612 31.2441 0.0351346 31.5278 0.0452569L31.9559 0.0665099C32.2456 0.0806812 32.5494 0.0978912 32.8581 0.119148C34.0942 0.203164 35.4647 0.338793 36.9163 0.558448C37.0994 0.582742 37.2825 0.610755 37.4657 0.642472C37.8356 0.702194 38.2075 0.767982 38.5845 0.837826C38.7739 0.873254 38.9644 0.90768 39.1539 0.946145C40.0411 1.12734 40.9534 1.33585 41.8717 1.58082C42.01 1.61523 42.1444 1.65066 42.2797 1.69216C42.7429 1.81768 43.212 1.95736 43.6832 2.10414C43.8105 2.14564 43.9388 2.18815 44.0662 2.23269C44.805 2.46955 45.5439 2.73882 46.2827 3.03439C46.6837 3.19837 47.0847 3.36944 47.4857 3.54051C47.8586 3.70753 48.2346 3.88162 48.6045 4.06281C48.9744 4.244 49.3403 4.43633 49.7073 4.63473C49.8075 4.68736 49.9078 4.74304 50.008 4.79871C52.2689 6.03581 54.3416 7.59512 56.1624 9.42866C56.3449 9.6139 56.5243 9.80219 56.7048 9.9935C56.8852 10.1848 57.0566 10.3842 57.2301 10.5826C57.3163 10.6838 57.4025 10.7851 57.4887 10.8863C57.6581 11.0887 57.8276 11.3013 57.99 11.5108C58.0732 11.6121 58.1554 11.7234 58.2386 11.8317C58.3218 11.94 58.381 12.02 58.4561 12.1172C58.6697 12.4107 58.8772 12.7063 59.0847 13.01C59.1539 13.1112 59.219 13.2124 59.2852 13.3197C59.3514 13.427 59.4206 13.5221 59.4857 13.6335C59.5509 13.7448 59.62 13.843 59.6862 13.9473C59.8797 14.2682 60.0692 14.5921 60.2526 14.9271C60.4361 15.2622 60.6155 15.6043 60.784 15.9525C60.8491 16.0851 60.9113 16.2147 60.9774 16.3463C61.0226 16.4475 61.0707 16.5558 61.1188 16.6601C61.1669 16.7643 61.2261 16.901 61.2812 17.0224C61.3363 17.1439 61.3815 17.2634 61.4366 17.3889C61.5368 17.6328 61.6371 17.8839 61.7373 18.1349C61.7825 18.2604 61.8306 18.3859 61.8757 18.5114C61.6932 18.1592 54.2677 4.26424 32.4361 5.23396C32.4268 5.2324 32.4173 5.2324 32.408 5.23396H32.389Z" fill="#BBBBBB"/>
<path d="M56.6185 42.052C56.6185 42.052 56.6185 42.06 56.6105 42.065L56.6185 42.052Z" fill="#BBBBBB"/>
<path d="M68.7179 30.0489V44.2419H68.6609L58.5719 34.0009L58.6099 43.7859H56.7479V29.6309H56.8429L66.9129 39.9859L66.8749 30.0489H68.7179ZM79.8689 40.1759H74.5869L73.1239 43.7859H71.2999L77.3039 29.4789H77.4179L83.4219 43.7859H81.2939L79.8689 40.1759ZM79.2419 38.5799L77.2849 33.5639L75.2519 38.5799H79.2419ZM93.027 30.0489V31.8159H89.341V43.7859H87.498V31.8159H83.907V30.0489H93.027ZM97.6446 38.9219C97.6446 39.5299 97.7902 40.0809 98.0816 40.5749C98.3729 41.0562 98.7656 41.4426 99.2596 41.7339C99.7662 42.0126 100.324 42.1519 100.932 42.1519C101.565 42.1519 102.135 42.0126 102.642 41.7339C103.161 41.4552 103.566 41.0689 103.858 40.5749C104.149 40.0809 104.295 39.5299 104.295 38.9219V30.0489H106.1V38.9789C106.1 39.9542 105.872 40.8219 105.416 41.5819C104.96 42.3292 104.339 42.9119 103.554 43.3299C102.768 43.7352 101.894 43.9379 100.932 43.9379C99.9816 43.9379 99.1139 43.7352 98.3286 43.3299C97.5432 42.9119 96.9226 42.3292 96.4666 41.5819C96.0232 40.8219 95.8016 39.9542 95.8016 38.9789V30.0489H97.6446V38.9219ZM117.451 43.7859L114.221 38.7129C114.119 38.7256 113.967 38.7319 113.765 38.7319H111.732V43.7859H109.889V30.0489H113.556C114.493 30.0489 115.329 30.2136 116.064 30.5429C116.798 30.8722 117.375 31.3599 117.793 32.0059C118.211 32.6392 118.42 33.4056 118.42 34.3049C118.42 35.1536 118.23 35.9326 117.85 36.6419C117.482 37.3512 116.912 37.8896 116.14 38.2569L119.598 43.7859H117.451ZM113.727 36.9459C114.715 36.9459 115.424 36.6862 115.855 36.1669C116.298 35.6476 116.52 35.0522 116.52 34.3809C116.52 33.9756 116.425 33.5766 116.235 33.1839C116.057 32.7912 115.766 32.4682 115.361 32.2149C114.968 31.9489 114.468 31.8159 113.86 31.8159H111.732V36.9459H113.727ZM129.633 40.1759H124.351L122.888 43.7859H121.064L127.068 29.4789H127.182L133.186 43.7859H131.058L129.633 40.1759ZM129.006 38.5799L127.049 33.5639L125.016 38.5799H129.006ZM137.597 30.0489V41.9999H144.589V43.7859H135.754V30.0489H137.597Z" fill="#BBBBBB"/>
<path d="M67.8218 54.7423V56.0233H68.6128V56.5413H67.8218V58.9143H67.1638V56.5413H66.6318V56.0233H67.1638V54.7423H67.8218ZM72.3812 56.0163V58.9143H71.7302V58.4383C71.6276 58.5736 71.4782 58.6996 71.2822 58.8163C71.0862 58.9283 70.8646 58.9843 70.6172 58.9843C70.3419 58.9843 70.0922 58.926 69.8682 58.8093C69.6489 58.688 69.4739 58.513 69.3432 58.2843C69.2172 58.0556 69.1542 57.7826 69.1542 57.4653C69.1542 57.148 69.2196 56.8726 69.3502 56.6393C69.4856 56.4013 69.6652 56.2193 69.8892 56.0933C70.1179 55.9626 70.3699 55.8973 70.6452 55.8973C70.8926 55.8973 71.1072 55.951 71.2892 56.0583C71.4712 56.1656 71.6182 56.3056 71.7302 56.4783L71.7792 56.0163H72.3812ZM70.7922 58.4453C71.0302 58.4453 71.2332 58.38 71.4012 58.2493C71.5739 58.114 71.6836 57.932 71.7302 57.7033V57.1293C71.6742 56.924 71.5576 56.7583 71.3802 56.6323C71.2029 56.5016 70.9999 56.4363 70.7712 56.4363C70.5986 56.4363 70.4376 56.4783 70.2882 56.5623C70.1436 56.6463 70.0269 56.7653 69.9382 56.9193C69.8542 57.0686 69.8122 57.239 69.8122 57.4303C69.8122 57.617 69.8566 57.7873 69.9452 57.9413C70.0339 58.0953 70.1529 58.219 70.3022 58.3123C70.4516 58.401 70.6149 58.4453 70.7922 58.4453ZM74.5436 57.5213L74.1656 57.8293V58.9143H73.5146V53.4893H74.1656V57.1503L75.6636 55.9463L76.0626 56.2963L74.9916 57.1573L76.2026 58.9143H75.4396L74.5436 57.5213ZM78.2564 58.4243C78.4991 58.4243 78.7348 58.3403 78.9634 58.1723L79.2644 58.6553C79.1104 58.758 78.9424 58.8396 78.7604 58.9003C78.5831 58.9563 78.4104 58.9843 78.2424 58.9843C77.9204 58.9843 77.6381 58.919 77.3954 58.7883C77.1574 58.653 76.9731 58.4686 76.8424 58.2353C76.7118 58.002 76.6464 57.7383 76.6464 57.4443C76.6464 57.1596 76.7164 56.9006 76.8564 56.6673C77.0011 56.4293 77.1971 56.2426 77.4444 56.1073C77.6918 55.9673 77.9624 55.8973 78.2564 55.8973C78.6344 55.8973 78.9494 56.0093 79.2014 56.2333C79.4581 56.4526 79.6331 56.7606 79.7264 57.1573L77.4304 57.9623C77.5144 58.107 77.6264 58.2213 77.7664 58.3053C77.9111 58.3846 78.0744 58.4243 78.2564 58.4243ZM78.2074 56.4153C77.9414 56.4153 77.7221 56.5086 77.5494 56.6953C77.3768 56.882 77.2904 57.12 77.2904 57.4093C77.2904 57.4793 77.2928 57.533 77.2974 57.5703L78.9844 56.9473C78.9144 56.7886 78.8141 56.6603 78.6834 56.5623C78.5574 56.4643 78.3988 56.4153 78.2074 56.4153ZM85.102 58.6413C84.9713 58.7486 84.815 58.8326 84.633 58.8933C84.4557 58.954 84.2737 58.9843 84.087 58.9843C83.7743 58.9843 83.4967 58.9213 83.254 58.7953C83.016 58.6693 82.8293 58.492 82.694 58.2633C82.5633 58.03 82.498 57.7616 82.498 57.4583C82.498 57.1596 82.568 56.896 82.708 56.6673C82.848 56.434 83.0347 56.2543 83.268 56.1283C83.5013 56.0023 83.7533 55.9393 84.024 55.9393C84.4673 55.9393 84.8337 56.0606 85.123 56.3033L84.794 56.7303C84.7007 56.6603 84.5933 56.602 84.472 56.5553C84.3507 56.504 84.22 56.4783 84.08 56.4783C83.9073 56.4783 83.7487 56.5226 83.604 56.6113C83.464 56.6953 83.352 56.812 83.268 56.9613C83.1887 57.1106 83.149 57.2763 83.149 57.4583C83.149 57.6403 83.191 57.806 83.275 57.9553C83.3637 58.1046 83.4827 58.2236 83.632 58.3123C83.7813 58.401 83.9517 58.4453 84.143 58.4453C84.381 58.4453 84.5887 58.3753 84.766 58.2353L85.102 58.6413ZM88.9174 56.0163V58.9143H88.2664V58.4383C88.1637 58.5736 88.0144 58.6996 87.8184 58.8163C87.6224 58.9283 87.4007 58.9843 87.1534 58.9843C86.878 58.9843 86.6284 58.926 86.4044 58.8093C86.185 58.688 86.01 58.513 85.8794 58.2843C85.7534 58.0556 85.6904 57.7826 85.6904 57.4653C85.6904 57.148 85.7557 56.8726 85.8864 56.6393C86.0217 56.4013 86.2014 56.2193 86.4254 56.0933C86.654 55.9626 86.906 55.8973 87.1814 55.8973C87.4287 55.8973 87.6434 55.951 87.8254 56.0583C88.0074 56.1656 88.1544 56.3056 88.2664 56.4783L88.3154 56.0163H88.9174ZM87.3284 58.4453C87.5664 58.4453 87.7694 58.38 87.9374 58.2493C88.11 58.114 88.2197 57.932 88.2664 57.7033V57.1293C88.2104 56.924 88.0937 56.7583 87.9164 56.6323C87.739 56.5016 87.536 56.4363 87.3074 56.4363C87.1347 56.4363 86.9737 56.4783 86.8244 56.5623C86.6797 56.6463 86.563 56.7653 86.4744 56.9193C86.3904 57.0686 86.3484 57.239 86.3484 57.4303C86.3484 57.617 86.3927 57.7873 86.4814 57.9413C86.57 58.0953 86.689 58.219 86.8384 58.3123C86.9877 58.401 87.151 58.4453 87.3284 58.4453ZM90.6808 56.7023C90.7554 56.5436 90.8604 56.4036 90.9958 56.2823C91.1358 56.161 91.2828 56.0676 91.4368 56.0023C91.5908 55.937 91.7261 55.902 91.8428 55.8973L91.8148 56.5483C91.6048 56.539 91.4134 56.581 91.2408 56.6743C91.0728 56.7676 90.9398 56.8983 90.8418 57.0663C90.7484 57.2296 90.7018 57.4046 90.7018 57.5913V58.9143H90.0508V56.0163H90.6318L90.6808 56.7023ZM93.9176 58.4243C94.1602 58.4243 94.3959 58.3403 94.6246 58.1723L94.9256 58.6553C94.7716 58.758 94.6036 58.8396 94.4216 58.9003C94.2442 58.9563 94.0716 58.9843 93.9036 58.9843C93.5816 58.9843 93.2992 58.919 93.0566 58.7883C92.8186 58.653 92.6342 58.4686 92.5036 58.2353C92.3729 58.002 92.3076 57.7383 92.3076 57.4443C92.3076 57.1596 92.3776 56.9006 92.5176 56.6673C92.6622 56.4293 92.8582 56.2426 93.1056 56.1073C93.3529 55.9673 93.6236 55.8973 93.9176 55.8973C94.2956 55.8973 94.6106 56.0093 94.8626 56.2333C95.1192 56.4526 95.2942 56.7606 95.3876 57.1573L93.0916 57.9623C93.1756 58.107 93.2876 58.2213 93.4276 58.3053C93.5722 58.3846 93.7356 58.4243 93.9176 58.4243ZM93.8686 56.4153C93.6026 56.4153 93.3832 56.5086 93.2106 56.6953C93.0379 56.882 92.9516 57.12 92.9516 57.4093C92.9516 57.4793 92.9539 57.533 92.9586 57.5703L94.6456 56.9473C94.5756 56.7886 94.4752 56.6603 94.3446 56.5623C94.2186 56.4643 94.0599 56.4153 93.8686 56.4153ZM98.1591 57.4373C98.1591 57.1526 98.2268 56.8936 98.3621 56.6603C98.5021 56.4223 98.6935 56.2356 98.9361 56.1003C99.1835 55.965 99.4611 55.8973 99.7691 55.8973C100.077 55.8973 100.35 55.965 100.588 56.1003C100.831 56.2356 101.017 56.42 101.148 56.6533C101.283 56.8866 101.351 57.148 101.351 57.4373C101.351 57.7266 101.283 57.9903 101.148 58.2283C101.017 58.4616 100.831 58.646 100.588 58.7813C100.345 58.9166 100.068 58.9843 99.7551 58.9843C99.4518 58.9843 99.1788 58.9213 98.9361 58.7953C98.6935 58.6646 98.5021 58.4826 98.3621 58.2493C98.2268 58.016 98.1591 57.7453 98.1591 57.4373ZM98.8171 57.4443C98.8171 57.6263 98.8568 57.7943 98.9361 57.9483C99.0201 58.1023 99.1321 58.2236 99.2721 58.3123C99.4168 58.401 99.5755 58.4453 99.7481 58.4453C100.019 58.4453 100.243 58.3496 100.42 58.1583C100.597 57.967 100.686 57.729 100.686 57.4443C100.686 57.1596 100.597 56.9216 100.42 56.7303C100.243 56.5343 100.019 56.4363 99.7481 56.4363C99.5708 56.4363 99.4121 56.483 99.2721 56.5763C99.1321 56.665 99.0201 56.7863 98.9361 56.9403C98.8568 57.0943 98.8171 57.2623 98.8171 57.4443ZM102.464 56.5973H101.967V56.0093H102.464V54.7913C102.464 54.3713 102.559 54.0493 102.751 53.8253C102.942 53.6013 103.222 53.4893 103.591 53.4893C103.693 53.4893 103.803 53.5056 103.92 53.5383C104.036 53.5663 104.139 53.6083 104.228 53.6643L103.948 54.1403C103.878 54.0656 103.78 54.0283 103.654 54.0283C103.476 54.0283 103.341 54.089 103.248 54.2103C103.159 54.3316 103.115 54.5276 103.115 54.7983V56.0093H104.039V56.5973H103.115V58.9143H102.464V56.5973ZM109.858 56.0163L107.989 60.3073H107.345L108.01 58.8163L106.666 56.0163H107.401L108.339 58.0813L109.256 56.0163H109.858ZM110.218 57.4373C110.218 57.1526 110.285 56.8936 110.421 56.6603C110.561 56.4223 110.752 56.2356 110.995 56.1003C111.242 55.965 111.52 55.8973 111.828 55.8973C112.136 55.8973 112.409 55.965 112.647 56.1003C112.889 56.2356 113.076 56.42 113.207 56.6533C113.342 56.8866 113.41 57.148 113.41 57.4373C113.41 57.7266 113.342 57.9903 113.207 58.2283C113.076 58.4616 112.889 58.646 112.647 58.7813C112.404 58.9166 112.126 58.9843 111.814 58.9843C111.51 58.9843 111.237 58.9213 110.995 58.7953C110.752 58.6646 110.561 58.4826 110.421 58.2493C110.285 58.016 110.218 57.7453 110.218 57.4373ZM110.876 57.4443C110.876 57.6263 110.915 57.7943 110.995 57.9483C111.079 58.1023 111.191 58.2236 111.331 58.3123C111.475 58.401 111.634 58.4453 111.807 58.4453C112.077 58.4453 112.301 58.3496 112.479 58.1583C112.656 57.967 112.745 57.729 112.745 57.4443C112.745 57.1596 112.656 56.9216 112.479 56.7303C112.301 56.5343 112.077 56.4363 111.807 56.4363C111.629 56.4363 111.471 56.483 111.331 56.5763C111.191 56.665 111.079 56.7863 110.995 56.9403C110.915 57.0943 110.876 57.2623 110.876 57.4443ZM116.979 56.0163V58.9143H116.391L116.349 58.3613C116.251 58.5573 116.1 58.7183 115.894 58.8443C115.689 58.9656 115.46 59.0263 115.208 59.0263C114.942 59.0263 114.723 58.947 114.55 58.7883C114.382 58.625 114.294 58.415 114.284 58.1583V56.0163H114.935V57.9273C114.945 58.0906 114.991 58.2213 115.075 58.3193C115.164 58.4126 115.295 58.4616 115.467 58.4663C115.626 58.4663 115.771 58.4196 115.901 58.3263C116.032 58.2283 116.135 58.0953 116.209 57.9273C116.289 57.7593 116.328 57.5726 116.328 57.3673V56.0163H116.979ZM118.742 56.7023C118.817 56.5436 118.922 56.4036 119.057 56.2823C119.197 56.161 119.344 56.0676 119.498 56.0023C119.652 55.937 119.788 55.902 119.904 55.8973L119.876 56.5483C119.666 56.539 119.475 56.581 119.302 56.6743C119.134 56.7676 119.001 56.8983 118.903 57.0663C118.81 57.2296 118.763 57.4046 118.763 57.5913V58.9143H118.112V56.0163H118.693L118.742 56.7023ZM121.563 58.9773C121.348 58.9773 121.143 58.94 120.947 58.8653C120.756 58.7906 120.599 58.681 120.478 58.5363L120.758 58.1583C120.875 58.2703 120.996 58.3566 121.122 58.4173C121.253 58.478 121.381 58.5083 121.507 58.5083C121.661 58.5083 121.787 58.478 121.885 58.4173C121.983 58.3566 122.032 58.2633 122.032 58.1373C122.032 58.0393 122.002 57.96 121.941 57.8993C121.88 57.8386 121.81 57.7943 121.731 57.7663C121.656 57.7383 121.528 57.6963 121.346 57.6403C120.851 57.4816 120.604 57.1993 120.604 56.7933C120.604 56.5506 120.693 56.343 120.87 56.1703C121.052 55.9976 121.304 55.9113 121.626 55.9113C121.831 55.9113 122.013 55.937 122.172 55.9883C122.331 56.0396 122.478 56.1213 122.613 56.2333L122.354 56.6323C122.279 56.553 122.184 56.49 122.067 56.4433C121.955 56.3966 121.848 56.371 121.745 56.3663C121.614 56.3663 121.502 56.399 121.409 56.4643C121.316 56.525 121.269 56.609 121.269 56.7163C121.269 56.805 121.299 56.8796 121.36 56.9403C121.421 56.9963 121.484 57.0383 121.549 57.0663C121.614 57.0896 121.743 57.1316 121.934 57.1923C122.172 57.2716 122.356 57.3743 122.487 57.5003C122.622 57.6263 122.69 57.7966 122.69 58.0113C122.69 58.2913 122.592 58.5223 122.396 58.7043C122.2 58.8863 121.922 58.9773 121.563 58.9773ZM124.96 58.4243C125.202 58.4243 125.438 58.3403 125.667 58.1723L125.968 58.6553C125.814 58.758 125.646 58.8396 125.464 58.9003C125.286 58.9563 125.114 58.9843 124.946 58.9843C124.624 58.9843 124.341 58.919 124.099 58.7883C123.861 58.653 123.676 58.4686 123.546 58.2353C123.415 58.002 123.35 57.7383 123.35 57.4443C123.35 57.1596 123.42 56.9006 123.56 56.6673C123.704 56.4293 123.9 56.2426 124.148 56.1073C124.395 55.9673 124.666 55.8973 124.96 55.8973C125.338 55.8973 125.653 56.0093 125.905 56.2333C126.161 56.4526 126.336 56.7606 126.43 57.1573L124.134 57.9623C124.218 58.107 124.33 58.2213 124.47 58.3053C124.614 58.3846 124.778 58.4243 124.96 58.4243ZM124.911 56.4153C124.645 56.4153 124.425 56.5086 124.253 56.6953C124.08 56.882 123.994 57.12 123.994 57.4093C123.994 57.4793 123.996 57.533 124.001 57.5703L125.688 56.9473C125.618 56.7886 125.517 56.6603 125.387 56.5623C125.261 56.4643 125.102 56.4153 124.911 56.4153ZM127.889 53.4893V58.9143H127.238V53.4893H127.889ZM129.26 56.5973H128.763V56.0093H129.26V54.7913C129.26 54.3713 129.356 54.0493 129.547 53.8253C129.739 53.6013 130.019 53.4893 130.387 53.4893C130.49 53.4893 130.6 53.5056 130.716 53.5383C130.833 53.5663 130.936 53.6083 131.024 53.6643L130.744 54.1403C130.674 54.0656 130.576 54.0283 130.45 54.0283C130.273 54.0283 130.138 54.089 130.044 54.2103C129.956 54.3316 129.911 54.5276 129.911 54.7983V56.0093H130.835V56.5973H129.911V58.9143H129.26V56.5973Z" fill="#BBBBBB"/>
</svg>
