<svg width="47" height="47" viewBox="0 0 47 47" fill="none" xmlns="http://www.w3.org/2000/svg">
<path d="M45.4333 10.0588H33.6833V5.35294C33.6833 4.05343 32.6312 3 31.3333 3H15.6667C14.3688 3 13.3167 4.05343 13.3167 5.35294V10.0588H1.56667C0.701377 10.0588 0 10.7611 0 11.6275V41.4314C0 42.2977 0.701377 43 1.56667 43H45.4333C46.2986 43 47 42.2977 47 41.4314V11.6275C47 10.7611 46.2986 10.0588 45.4333 10.0588ZM14.8833 5.35294C14.8833 4.9198 15.2341 4.56863 15.6667 4.56863H31.3333C31.7659 4.56863 32.1167 4.9198 32.1167 5.35294V10.0588H14.8833V5.35294ZM45.4333 41.4314H1.56667V17.0063L7.4824 27.6659C7.89502 28.4176 8.68433 28.884 9.541 28.8824H20.3667V31.2353C20.3667 32.5348 21.4188 33.5882 22.7167 33.5882H24.2833C25.5812 33.5882 26.6333 32.5348 26.6333 31.2353V28.8824H37.459C38.3138 28.8847 39.1018 28.4201 39.5145 27.6706L45.4333 17.0055V41.4314ZM21.9333 31.2353V24.9608C21.9333 24.5276 22.2841 24.1765 22.7167 24.1765H24.2833C24.7159 24.1765 25.0667 24.5276 25.0667 24.9608V31.2353C25.0667 31.6684 24.7159 32.0196 24.2833 32.0196H22.7167C22.2841 32.0196 21.9333 31.6684 21.9333 31.2353ZM45.4333 13.7773L38.1421 26.9137C38.005 27.1625 37.7428 27.316 37.459 27.3137H26.6333V24.9608C26.6333 23.6613 25.5812 22.6078 24.2833 22.6078H22.7167C21.4188 22.6078 20.3667 23.6613 20.3667 24.9608V27.3137H9.541C9.25528 27.3155 8.99169 27.1601 8.8548 26.909L1.56667 13.7773V11.6275H45.4333V13.7773Z" fill="#D9C3A9"/>
</svg>
