<?xml version="1.0" encoding="UTF-8" standalone="no"?>
<!-- Created with Inkscape (http://www.inkscape.org/) -->

<svg
   width="42.333332mm"
   height="42.333336mm"
   viewBox="0 0 42.333332 42.333336"
   version="1.1"
   id="svg1"
   xml:space="preserve"
   xmlns="http://www.w3.org/2000/svg"
   xmlns:svg="http://www.w3.org/2000/svg"><defs
     id="defs1"><linearGradient
       id="paint0_linear_247_2172"
       x1="80"
       y1="0"
       x2="80"
       y2="160"
       gradientUnits="userSpaceOnUse"><stop
         stop-color="#F8F5ED"
         id="stop1" /><stop
         offset="1"
         stop-color="#F7F7F7"
         stop-opacity="0"
         id="stop2" /></linearGradient></defs><g
     id="layer1"
     transform="translate(-83.731981,-127.33332)"><g
       style="fill:none"
       id="g1"
       transform="matrix(0.26458333,0,0,0.26458333,92.992385,136.59372)"><path
         d="m 55.473,90.0002 c 8.4128,0 15.2327,-6.725 15.2327,-15.0208 0,-8.2958 -6.8199,-15.0209 -15.2327,-15.0209 -8.4128,0 -15.2328,6.7251 -15.2328,15.0209 0,8.2958 6.82,15.0208 15.2328,15.0208 z"
         fill="#f2eddc"
         id="path1" /><path
         d="m 74.7674,43.3103 c 8.4128,0 15.2327,-6.7251 15.2327,-15.0209 0,-8.2958 -6.8199,-15.0208 -15.2327,-15.0208 -8.4128,0 -15.2327,6.725 -15.2327,15.0208 0,8.2958 6.8199,15.0209 15.2327,15.0209 z"
         fill="#f2eddc"
         id="path2" /><path
         d="m 25.3879,53.6994 c 14.0213,0 25.3878,-11.2084 25.3878,-25.0348 C 50.7757,14.8383 39.4092,3.62988 25.3879,3.62988 11.3665,3.62988 0,14.8383 0,28.6646 0,42.491 11.3665,53.6994 25.3879,53.6994 Z"
         fill="#f2eddc"
         id="path3" /><path
         d="m 14.8521,73.7275 h 60.9308 c 0,4.1308 -3.4273,7.5105 -7.6163,7.5105 H 22.4684 c -4.189,0 -7.6163,-3.3797 -7.6163,-7.5105 z"
         fill="#ffffff"
         id="path4" /><path
         d="m 32.6235,76.231 h 43.1593 l -5.0775,5.0069 H 27.5459 c 0,-2.7538 2.2849,-5.0069 5.0776,-5.0069 z"
         fill="#dcdedd"
         id="path5" /><path
         d="M 68.1659,82.1138 H 22.4678 c -4.6968,0 -8.6319,-3.7552 -8.6319,-8.5118 0,-0.5007 0.3808,-1.0014 1.0155,-1.0014 h 60.9309 c 0.5078,0 1.0155,0.3755 1.0155,1.0014 -0.1269,4.7566 -3.9351,8.5118 -8.6319,8.5118 z m -52.299,-7.5104 c 0.5078,3.1293 3.3005,5.6328 6.6009,5.6328 h 45.6981 c 3.3005,0 6.0931,-2.5035 6.6009,-5.6328 z"
         fill="#4f5955"
         id="path6" /><path
         d="m 21.1992,18.6509 h 48.237 V 61.21 c 0,6.8846 -5.7123,12.5174 -12.694,12.5174 H 33.8931 c -6.9816,0 -12.6939,-5.6328 -12.6939,-12.5174 z"
         fill="#ffffff"
         id="path7" /><path
         d="m 38.9706,31.1685 h 30.4655 v 30.0417 c 0,6.8845 -5.7123,12.5174 -12.694,12.5174 H 46.587 c -6.9817,0 -12.6939,-5.6329 -12.6939,-12.5174 V 36.1754 c 0,-2.7538 2.2849,-5.0069 5.0775,-5.0069 z"
         fill="#dcdedd"
         id="path8" /><path
         d="M 56.7421,74.6037 H 33.893 c -7.4894,0 -13.7094,-6.0084 -13.7094,-13.5188 V 18.5258 c 0,-0.5007 0.3808,-1.0014 1.0155,-1.0014 H 69.436 c 0.5078,0 1.0155,0.3755 1.0155,1.0014 v 42.5591 c -0.1269,7.5104 -6.22,13.5188 -13.7094,13.5188 z M 22.0877,19.5272 v 41.5577 c 0,6.3839 5.2045,11.6412 11.8053,11.6412 h 22.8491 c 6.4739,0 11.8053,-5.2573 11.8053,-11.6412 V 19.5272 Z"
         fill="#4f5955"
         id="path9" /><path
         d="m 74.5135,60.8346 h -5.0776 c -0.5077,0 -1.0155,-0.3755 -1.0155,-1.0014 V 27.288 c 0,-0.5007 0.3808,-1.0014 1.0155,-1.0014 h 5.0776 c 7.4894,0 13.7094,6.0084 13.7094,13.5188 v 7.5104 c -0.1269,7.5105 -6.22,13.5188 -13.7094,13.5188 z m -4.189,-1.8776 h 4.189 c 6.4739,0 11.8053,-5.1321 11.8053,-11.6412 v -7.5104 c 0,-6.3839 -5.2045,-11.6412 -11.8053,-11.6412 h -4.189 z"
         fill="#4f5955"
         id="path10" /><path
         d="M 78.3213,74.6034 H 12.3129 c -0.5078,0 -1.0155,-0.3756 -1.0155,-1.0014 0,-0.5007 0.3808,-1.0014 1.0155,-1.0014 h 66.0084 c 0.5078,0 1.0155,0.3755 1.0155,1.0014 -0.1269,0.6258 -0.5077,1.0014 -1.0155,1.0014 z"
         fill="#4f5955"
         id="path11" /><path
         d="M 70.7053,19.5272 H 19.9296 c -0.5078,0 -1.0155,-0.3755 -1.0155,-1.0014 0,-0.5007 0.3808,-1.0014 1.0155,-1.0014 h 50.7757 c 0.5077,0 1.0155,0.3755 1.0155,1.0014 -0.127,0.6259 -0.5078,1.0014 -1.0155,1.0014 z"
         fill="#4f5955"
         id="path12" /><path
         d="m 45.3177,14.5201 c -0.5077,0 -1.0155,-0.3755 -1.0155,-1.0014 0,-6.00832 4.9507,-11.01528 11.1707,-11.01528 0.5077,0 1.0155,0.37552 1.0155,1.00139 0,0.62587 -0.3808,1.0014 -1.0155,1.0014 -5.0776,0 -9.2666,4.13073 -9.2666,9.13769 0,0.5007 -0.3808,0.8762 -0.8886,0.8762 z"
         fill="#4f5955"
         id="path13" /><path
         d="m 58.0106,14.5201 c -0.5077,0 -1.0155,-0.3756 -1.0155,-1.0014 0,-4.63147 3.8082,-8.51186 8.6319,-8.51186 0.5077,0 1.0155,0.37552 1.0155,1.00139 0,0.62587 -0.3808,1.00139 -1.0155,1.00139 -3.6813,0 -6.7278,3.00418 -6.7278,6.63418 0,0.5007 -0.3808,0.8763 -0.8886,0.8763 z"
         fill="#4f5955"
         id="path14" /><path
         d="m 32.6236,14.5202 c -0.5078,0 -1.0155,-0.3756 -1.0155,-1.0014 C 31.6081,6.13352 37.7011,0 45.1905,0 c 0.5078,0 1.0156,0.375525 1.0156,1.00139 0,0.62587 -0.3809,1.0014 -1.0156,1.0014 -6.4739,0 -11.6783,5.13212 -11.6783,11.64121 0,0.5006 -0.3809,0.8762 -0.8886,0.8762 z"
         fill="#4f5955"
         id="path15" /><path
         d="M 7.74329,64.5897 H 5.96618 c -0.50775,0 -1.0155,-0.3755 -1.0155,-1.0014 0,-0.5007 0.38081,-1.0014 1.0155,-1.0014 h 1.77711 c 0.50775,0 1.01557,0.3755 1.01557,1.0014 -0.12694,0.6259 -0.50782,1.0014 -1.01557,1.0014 z"
         fill="#4f5955"
         id="path16" /><path
         d="M 13.5822,64.5897 H 11.805 c -0.5077,0 -1.0154,-0.3755 -1.0154,-1.0014 0,-0.5007 0.3808,-1.0014 1.0154,-1.0014 h 1.7772 c 0.5078,0 1.0155,0.3755 1.0155,1.0014 -0.1269,0.6259 -0.5077,1.0014 -1.0155,1.0014 z"
         fill="#4f5955"
         id="path17" /><path
         d="m 9.77478,68.3451 c -0.50776,0 -1.0155,-0.3756 -1.0155,-1.0014 v -1.7525 c 0,-0.5007 0.3808,-1.0014 1.0155,-1.0014 0.50772,0 1.01552,0.3756 1.01552,1.0014 v 1.7525 c -0.127,0.6258 -0.5078,1.0014 -1.01552,1.0014 z"
         fill="#4f5955"
         id="path18" /><path
         d="m 9.77478,62.5868 c -0.50776,0 -1.0155,-0.3756 -1.0155,-1.0014 v -1.7525 c 0,-0.5007 0.3808,-1.0014 1.0155,-1.0014 0.50772,0 1.01552,0.3756 1.01552,1.0014 v 1.7525 c -0.127,0.6258 -0.5078,1.0014 -1.01552,1.0014 z"
         fill="#4f5955"
         id="path19" /><path
         d="M 11.5519,38.3031 H 9.77478 c -0.50776,0 -1.0155,-0.3755 -1.0155,-1.0014 0,-0.5007 0.3808,-1.0014 1.0155,-1.0014 h 1.77712 c 0.5077,0 1.0156,0.3755 1.0156,1.0014 -0.127,0.6259 -0.5079,1.0014 -1.0156,1.0014 z"
         fill="#4f5955"
         id="path20" /><path
         d="m 17.3918,38.3031 h -1.7772 c -0.5077,0 -1.0155,-0.3755 -1.0155,-1.0014 0,-0.5007 0.3808,-1.0014 1.0155,-1.0014 h 1.7772 c 0.5078,0 1.0155,0.3755 1.0155,1.0014 -0.1269,0.6259 -0.5077,1.0014 -1.0155,1.0014 z"
         fill="#4f5955"
         id="path21" /><path
         d="m 13.5824,42.0584 c -0.5078,0 -1.0155,-0.3755 -1.0155,-1.0014 v -1.7524 c 0,-0.5007 0.3808,-1.0014 1.0155,-1.0014 0.5078,0 1.0155,0.3755 1.0155,1.0014 v 1.7524 c -0.1269,0.6259 -0.5077,1.0014 -1.0155,1.0014 z"
         fill="#4f5955"
         id="path22" /><path
         d="m 13.5824,36.3006 c -0.5078,0 -1.0155,-0.3755 -1.0155,-1.0014 v -1.7524 c 0,-0.5007 0.3808,-1.0014 1.0155,-1.0014 0.5078,0 1.0155,0.3755 1.0155,1.0014 v 1.7524 c -0.1269,0.6259 -0.5077,1.0014 -1.0155,1.0014 z"
         fill="#4f5955"
         id="path23" /><path
         d="M 7.74329,23.2826 H 5.96618 c -0.50775,0 -1.0155,-0.3756 -1.0155,-1.0014 0,-0.5007 0.38081,-1.0014 1.0155,-1.0014 h 1.77711 c 0.50775,0 1.01557,0.3755 1.01557,1.0014 -0.12694,0.6258 -0.50782,1.0014 -1.01557,1.0014 z"
         fill="#4f5955"
         id="path24" /><path
         d="M 13.5822,23.2826 H 11.805 c -0.5077,0 -1.0154,-0.3756 -1.0154,-1.0014 0,-0.5007 0.3808,-1.0014 1.0154,-1.0014 h 1.7772 c 0.5078,0 1.0155,0.3755 1.0155,1.0014 -0.1269,0.6258 -0.5077,1.0014 -1.0155,1.0014 z"
         fill="#4f5955"
         id="path25" /><path
         d="m 9.77478,27.0374 c -0.50776,0 -1.0155,-0.3755 -1.0155,-1.0014 v -1.7524 c 0,-0.5007 0.3808,-1.0014 1.0155,-1.0014 0.50772,0 1.01552,0.3755 1.01552,1.0014 v 1.7524 c -0.127,0.6259 -0.5078,1.0014 -1.01552,1.0014 z"
         fill="#4f5955"
         id="path26" /><path
         d="m 9.77478,21.2796 c -0.50776,0 -1.0155,-0.3755 -1.0155,-1.0014 v -1.7524 c 0,-0.5007 0.3808,-1.0014 1.0155,-1.0014 0.50772,0 1.01552,0.3755 1.01552,1.0014 v 1.7524 c -0.127,0.6259 -0.5078,1.0014 -1.01552,1.0014 z"
         fill="#4f5955"
         id="path27" /><path
         d="m 63.0887,54.4506 c -0.5077,0 -1.0155,-0.3755 -1.0155,-1.0014 V 37.427 c 0,-0.5007 0.3808,-0.8762 1.0155,-0.8762 0.6347,0 1.0155,0.3755 1.0155,0.8762 v 16.0222 c -0.1269,0.6259 -0.5077,1.0014 -1.0155,1.0014 z"
         fill="#4f5955"
         id="path28" /><path
         d="m 63.0887,62.2117 c -0.5077,0 -1.0155,-0.3755 -1.0155,-1.0014 v -2.7538 c 0,-0.5007 0.3808,-1.0014 1.0155,-1.0014 0.6347,0 1.0155,0.3755 1.0155,1.0014 v 2.7538 c -0.1269,0.6259 -0.5077,1.0014 -1.0155,1.0014 z"
         fill="#4f5955"
         id="path29" /></g><g
       style="fill:none"
       id="g2"
       transform="matrix(0.26458333,0,0,0.26458333,83.731982,127.33333)"><path
         d="m 80,160 c 44.183,0 80,-35.817 80,-80 C 160,35.8172 124.183,0 80,0 35.8172,0 0,35.8172 0,80 c 0,44.183 35.8172,80 80,80 z"
         fill="url(#paint0_linear_247_2172)"
         id="path1-3"
         style="fill:url(#paint0_linear_247_2172)" /></g></g></svg>
