<svg xmlns="http://www.w3.org/2000/svg" xmlns:xlink="http://www.w3.org/1999/xlink" id="Layer_1" x="0px" y="0px" viewBox="0 0 100 100" style="enable-background:new 0 0 100 100;" xml:space="preserve"><g>	<path d="M86.6,76.3H50c-1.9,0-3.4-1.5-3.4-3.4c0-1.9,1.5-3.4,3.4-3.4h36.6c1.9,0,3.4,1.5,3.4,3.4C90,74.8,88.5,76.3,86.6,76.3z   M31.7,76.3H13.4c-1.9,0-3.4-1.5-3.4-3.4c0-1.9,1.5-3.4,3.4-3.4h18.3c1.9,0,3.4,1.5,3.4,3.4C35.1,74.8,33.6,76.3,31.7,76.3z   M86.6,53.4H13.4c-1.9,0-3.4-1.5-3.4-3.4c0-1.9,1.5-3.4,3.4-3.4h73.1c1.9,0,3.4,1.5,3.4,3.4C90,51.9,88.5,53.4,86.6,53.4z   M86.6,30.6H68.3c-1.9,0-3.4-1.5-3.4-3.4c0-1.9,1.5-3.4,3.4-3.4h18.3c1.9,0,3.4,1.5,3.4,3.4C90,29,88.5,30.6,86.6,30.6z M50,30.6  H13.4c-1.9,0-3.4-1.5-3.4-3.4c0-1.9,1.5-3.4,3.4-3.4H50c1.9,0,3.4,1.5,3.4,3.4C53.4,29,51.9,30.6,50,30.6z"></path></g></svg>
