<?xml version="1.0" encoding="UTF-8" standalone="no"?>
<!-- Created with Inkscape (http://www.inkscape.org/) -->

<svg
   width="17.197916mm"
   height="17.197918mm"
   viewBox="0 0 17.197916 17.197918"
   version="1.1"
   id="svg1"
   xml:space="preserve"
   xmlns="http://www.w3.org/2000/svg"
   xmlns:svg="http://www.w3.org/2000/svg"><defs
     id="defs1" /><g
     id="layer1"
     transform="translate(-110.27037,-142.39073)"><g
       style="fill:none"
       id="g1"
       transform="matrix(0.26458333,0,0,0.26458333,110.27038,142.39072)"><path
         d="M 0,32.5 C 0,50.4493 14.5507,65 32.5,65 50.4493,65 65,50.4493 65,32.5 65,14.5507 50.4493,0 32.5,0 14.5507,0 0,14.5507 0,32.5 Z"
         fill="#f2eddc"
         id="path1" /></g><g
       style="fill:none"
       id="g2"
       transform="matrix(0.26458333,0,0,0.26458333,116.22351,148.34384)"><path
         fill-rule="evenodd"
         clip-rule="evenodd"
         d="m 7.97944,8.48272 c 0.29685,0.59315 0.85626,1.32531 1.5332,2.00288 0.67646,0.6771 1.40796,1.2367 2.00086,1.5336 0.1945,0.0974 0.3576,0.158 0.4743,0.1846 l 0.5998,-0.6001 c 0.4243,-0.4248 0.6497,-0.6303 0.97,-0.8404 0.7111,-0.4665 1.5115,-0.5981 2.1959,0.0085 1.8708,1.3385 2.9286,2.1593 3.4605,2.712 1.1185,1.1621 0.9728,2.9411 0.0073,3.9615 C 18.9164,17.7676 18.531,18.1532 18.08,18.5879 15.2069,21.4624 9.27971,19.7523 4.76507,15.2335 0.249664,10.7138 -1.45929,4.78708 1.40615,1.92025 1.8968,1.42191 2.05922,1.25957 2.53706,0.788765 3.52665,-0.186275 5.38571,-0.337274 6.52679,0.789877 7.07981,1.33615 7.94238,2.44548 9.22458,4.23904 9.90179,4.99475 9.68919,5.83399 9.1171,6.60491 8.98993,6.77628 8.84538,6.94279 8.67201,7.125 8.59017,7.21101 8.52685,7.27519 8.39514,7.40702 8.04882,7.75362 7.98821,7.81427 7.79473,8.00779 7.82135,8.12458 7.88198,8.28796 7.97944,8.48272 Z M 14.355,13.3702 13.61,14.1156 C 12.1765,15.5498 9.90181,14.4107 7.74508,12.252 5.5871,10.092 4.44953,7.81889 5.88305,6.38556 6.20814,6.06042 6.20814,6.06043 6.62757,5.64065 6.74516,5.52295 6.79857,5.46882 6.86194,5.40222 6.8862,5.37673 6.90913,5.35222 6.93076,5.32866 5.87695,3.86714 5.15598,2.94823 4.77093,2.56789 4.67249,2.47065 4.36513,2.49562 4.29066,2.569 3.82158,3.03118 3.66806,3.18461 3.17995,3.68032 1.56559,5.2955 2.8626,9.79363 6.53264,13.4671 c 3.66866,3.6721 8.16556,4.9694 9.79646,3.338 0.442,-0.4263 0.8016,-0.7861 1.0773,-1.0775 0.1062,-0.1123 0.1286,-0.3848 0.0074,-0.5108 -0.3565,-0.3704 -1.2393,-1.0619 -2.7477,-2.1493 -0.0832,0.0771 -0.1839,0.1754 -0.3111,0.3027 z"
         fill="#4f5955"
         id="path1-7"
         clip-path="url(#clipPath1)" /></g></g></svg>
