<svg width="17" height="13" viewBox="0 0 17 13" fill="none" xmlns="http://www.w3.org/2000/svg">
<path d="M1.993 12.8991C1.46499 12.8972 0.959135 12.6866 0.585774 12.3133C0.212413 11.9399 0.00184482 11.4341 0 10.9061L0 2.40606C0.00210814 1.87823 0.212793 1.37263 0.586125 0.999482C0.959458 0.626337 1.46516 0.415906 1.993 0.414062L15.008 0.414063C15.5358 0.416171 16.0414 0.626855 16.4146 1.00019C16.7877 1.37352 16.9982 1.87923 17 2.40706V10.9071C16.9982 11.4351 16.7876 11.9409 16.4142 12.3143C16.0409 12.6876 15.535 12.8982 15.007 12.9001L1.993 12.8991ZM1.329 10.9061C1.32926 11.0821 1.39931 11.2508 1.52377 11.3753C1.64824 11.4998 1.81698 11.5698 1.993 11.5701H15.008C15.184 11.5698 15.3528 11.4998 15.4772 11.3753C15.6017 11.2508 15.6717 11.0821 15.672 10.9061V2.81406L8.5 8.14806L1.328 2.81406L1.329 10.9061ZM8.5 6.49306L14.887 1.74306H2.114L8.5 6.49306Z" fill="#D9C3A9"/>
</svg>
